{
  "accessors": [
    {
      "bufferView": 2,
      "componentType": 5126,
      "count": 24967,
      "max": [
        0.70987701416015625,
        -1.1027580499649048,
        0.8773530125617981
      ],
      "min": [
        -0.77863997220993042,
        -1.321382999420166,
        0.46256300806999207
      ],
      "type": "VEC3"
    },
    {
      "bufferView": 2,
      "byteOffset": 299604,
      "componentType": 5126,
      "count": 24967,
      "max": [
        0.99950480461120605,
        0.99999690055847168,
        0.99999719858169556
      ],
      "min": [
        -0.99989265203475952,
        -0.99999302625656128,
        -0.99999696016311646
      ],
      "type": "VEC3"
    },
    {
      "bufferView": 3,
      "componentType": 5126,
      "count": 24967,
      "max": [
        0.99985170364379883,
        0.99721479415893555,
        0.99993133544921875,
        -1
      ],
      "min": [
        -0.99983829259872437,
        -0.99872457981109619,
        -0.99105215072631836,
        -1
      ],
      "type": "VEC4"
    },
    {
      "bufferView": 1,
      "componentType": 5126,
      "count": 24967,
      "max": [
        0.99733597040176392,
        0.97241199016571045
      ],
      "min": [
        0.00073199998587369919,
        0.0021989999804645777
      ],
      "type": "VEC2"
    },
    {
      "bufferView": 0,
      "componentType": 5125,
      "count": 120000,
      "max": [
        24966
      ],
      "min": [
        0
      ],
      "type": "SCALAR"
    }
  ],
  "asset": {
    "extras": {
      "author": "Zdenko Roman (https://sketchfab.com/zdenkoroman)",
      "license": "CC-BY-4.0 (http://creativecommons.org/licenses/by/4.0/)",
      "source": "https://sketchfab.com/3d-models/garden-rake-old-3d-scan-24ed9d54f4834275a995fd9c5267381e",
      "title": "Garden Rake Old 3D Scan"
    },
    "generator": "Sketchfab-7.75.0",
    "version": "2.0"
  },
  "bufferViews": [
    {
      "buffer": 0,
      "byteLength": 480000,
      "byteOffset": 0,
      "name": "floatBufferViews",
      "target": 34963
    },
    {
      "buffer": 0,
      "byteLength": 199736,
      "byteOffset": 480000,
      "byteStride": 8,
      "name": "floatBufferViews",
      "target": 34962
    },
    {
      "buffer": 0,
      "byteLength": 599208,
      "byteOffset": 679736,
      "byteStride": 12,
      "name": "floatBufferViews",
      "target": 34962
    },
    {
      "buffer": 0,
      "byteLength": 399472,
      "byteOffset": 1278944,
      "byteStride": 16,
      "name": "floatBufferViews",
      "target": 34962
    }
  ],
  "buffers": [
    {
      "byteLength": 1678416,
      "uri": "scene.bin"
    }
  ],
  "extensionsRequired": [
    "KHR_materials_pbrSpecularGlossiness"
  ],
  "extensionsUsed": [
    "KHR_materials_pbrSpecularGlossiness"
  ],
  "images": [
    {
      "uri": "textures/material_0_diffuse.png"
    },
    {
      "uri": "textures/material_0_specularGlossiness.png"
    },
    {
      "uri": "textures/material_0_normal.png"
    }
  ],
  "materials": [
    {
      "doubleSided": true,
      "extensions": {
        "KHR_materials_pbrSpecularGlossiness": {
          "diffuseFactor": [
            1,
            1,
            1,
            1
          ],
          "diffuseTexture": {
            "index": 0,
            "texCoord": 0
          },
          "glossinessFactor": 1,
          "specularFactor": [
            0.062690548780487798,
            0.062690548780487798,
            0.062690548780487798
          ],
          "specularGlossinessTexture": {
            "index": 1,
            "texCoord": 0
          }
        }
      },
      "name": "material_0",
      "normalTexture": {
        "index": 2,
        "scale": 1,
        "texCoord": 0
      }
    }
  ],
  "meshes": [
    {
      "primitives": [
        {
          "attributes": {
            "NORMAL": 1,
            "POSITION": 0,
            "TANGENT": 2,
            "TEXCOORD_0": 3
          },
          "indices": 4,
          "material": 0,
          "mode": 4
        }
      ]
    }
  ],
  "nodes": [
    {
      "children": [
        1
      ],
      "name": "RootNode (gltf orientation matrix)",
      "rotation": [
        -0.70710678118654746,
        -0,
        -0,
        0.70710678118654757
      ]
    },
    {
      "children": [
        2
      ],
      "matrix": [
        0.99779236316680908,
        -0.02737724781036377,
        -0.060505162924528122,
        0,
        -0.066351994872093201,
        -0.37264835834503174,
        -0.9255974292755127,
        0,
        0.0027931586373597383,
        0.92756867408752441,
        -0.37364223599433899,
        0,
        -0.082370296120643616,
        -2.2861161231994629,
        -0.20368359982967377,
        1
      ],
      "name": "RootNode (model correction matrix)"
    },
    {
      "children": [
        3
      ],
      "name": "hrable-low.obj.cleaner.materialmerger.gles"
    },
    {
      "mesh": 0,
      "name": ""
    }
  ],
  "samplers": [
    {
      "magFilter": 9729,
      "minFilter": 9987,
      "wrapS": 10497,
      "wrapT": 10497
    }
  ],
  "scene": 0,
  "scenes": [
    {
      "name": "OSG_Scene",
      "nodes": [
        0
      ]
    }
  ],
  "textures": [
    {
      "sampler": 0,
      "source": 0
    },
    {
      "sampler": 0,
      "source": 1
    },
    {
      "sampler": 0,
      "source": 2
    }
  ]
}

