{
  "accessors": [
    {
      "bufferView": 1,
      "componentType": 5126,
      "count": 559,
      "max": [
        0.94536983966827393,
        0.367836594581604,
        0.13501912355422974
      ],
      "min": [
        -0.95151221752166748,
        -0.56805253028869629,
        -0.14713507890701294
      ],
      "type": "VEC3"
    },
    {
      "bufferView": 1,
      "byteOffset": 6708,
      "componentType": 5126,
      "count": 559,
      "max": [
        1,
        1,
        1
      ],
      "min": [
        -1,
        -1,
        -1
      ],
      "type": "VEC3"
    },
    {
      "bufferView": 0,
      "componentType": 5125,
      "count": 1050,
      "max": [
        558
      ],
      "min": [
        0
      ],
      "type": "SCALAR"
    },
    {
      "bufferView": 1,
      "byteOffset": 13416,
      "componentType": 5126,
      "count": 1056,
      "max": [
        0.0019835829734802246,
        0.0011558830738067627,
        1.0170631408691406
      ],
      "min": [
        -0.90852230787277222,
        -0.16078981757164001,
        -0.60897707939147949
      ],
      "type": "VEC3"
    },
    {
      "bufferView": 1,
      "byteOffset": 26088,
      "componentType": 5126,
      "count": 1056,
      "max": [
        1,
        1,
        1
      ],
      "min": [
        -1,
        -1,
        -1
      ],
      "type": "VEC3"
    },
    {
      "bufferView": 0,
      "byteOffset": 4200,
      "componentType": 5125,
      "count": 1128,
      "max": [
        1055
      ],
      "min": [
        0
      ],
      "type": "SCALAR"
    },
    {
      "bufferView": 1,
      "byteOffset": 38760,
      "componentType": 5126,
      "count": 1056,
      "max": [
        0.0019835829734802246,
        0.0011558830738067627,
        1.0170631408691406
      ],
      "min": [
        -0.90852230787277222,
        -0.16078981757164001,
        -0.60897707939147949
      ],
      "type": "VEC3"
    },
    {
      "bufferView": 1,
      "byteOffset": 51432,
      "componentType": 5126,
      "count": 1056,
      "max": [
        1,
        1,
        1
      ],
      "min": [
        -1,
        -1,
        -1
      ],
      "type": "VEC3"
    },
    {
      "bufferView": 0,
      "byteOffset": 8712,
      "componentType": 5125,
      "count": 1128,
      "max": [
        1055
      ],
      "min": [
        0
      ],
      "type": "SCALAR"
    },
    {
      "bufferView": 1,
      "byteOffset": 64104,
      "componentType": 5126,
      "count": 418,
      "max": [
        1.0379438400268555,
        0.44760274887084961,
        1.0418697595596313
      ],
      "min": [
        -1.0379440784454346,
        -0.44760251045227051,
        -1.0078506469726562
      ],
      "type": "VEC3"
    },
    {
      "bufferView": 1,
      "byteOffset": 69120,
      "componentType": 5126,
      "count": 418,
      "max": [
        1,
        1,
        1
      ],
      "min": [
        -1,
        -1,
        -1
      ],
      "type": "VEC3"
    },
    {
      "bufferView": 0,
      "byteOffset": 13224,
      "componentType": 5125,
      "count": 660,
      "max": [
        417
      ],
      "min": [
        0
      ],
      "type": "SCALAR"
    }
  ],
  "asset": {
    "extras": {
      "author": "pedro.coelhho (https://sketchfab.com/pedro.coelhho)",
      "license": "CC-BY-4.0 (http://creativecommons.org/licenses/by/4.0/)",
      "source": "https://sketchfab.com/3d-models/guarda-roupa-1-f371a96e996b4aee9af69ffbd7642f9f",
      "title": "Guarda-roupa 1"
    },
    "generator": "Sketchfab-6.9.0",
    "version": "2.0"
  },
  "bufferViews": [
    {
      "buffer": 0,
      "byteLength": 15864,
      "byteOffset": 0,
      "name": "floatBufferViews",
      "target": 34963
    },
    {
      "buffer": 0,
      "byteLength": 74136,
      "byteOffset": 15864,
      "byteStride": 12,
      "name": "floatBufferViews",
      "target": 34962
    }
  ],
  "buffers": [
    {
      "byteLength": 90000,
      "uri": "scene.bin"
    }
  ],
  "materials": [
    {
      "doubleSided": true,
      "emissiveFactor": [
        0,
        0,
        0
      ],
      "name": "Material",
      "pbrMetallicRoughness": {
        "baseColorFactor": [
          0.80000000000000004,
          0.80000000000000004,
          0.80000000000000004,
          1
        ],
        "metallicFactor": 0,
        "roughnessFactor": 0.82394172574614266
      }
    }
  ],
  "meshes": [
    {
      "name": "Cube.003_Material_0",
      "primitives": [
        {
          "attributes": {
            "NORMAL": 1,
            "POSITION": 0
          },
          "indices": 2,
          "material": 0,
          "mode": 4
        }
      ]
    },
    {
      "name": "Cube.002_Material_0",
      "primitives": [
        {
          "attributes": {
            "NORMAL": 4,
            "POSITION": 3
          },
          "indices": 5,
          "material": 0,
          "mode": 4
        }
      ]
    },
    {
      "name": "Cube.001_Material_0",
      "primitives": [
        {
          "attributes": {
            "NORMAL": 7,
            "POSITION": 6
          },
          "indices": 8,
          "material": 0,
          "mode": 4
        }
      ]
    },
    {
      "name": "Cube_Material_0",
      "primitives": [
        {
          "attributes": {
            "NORMAL": 10,
            "POSITION": 9
          },
          "indices": 11,
          "material": 0,
          "mode": 4
        }
      ]
    }
  ],
  "nodes": [
    {
      "children": [
        1
      ],
      "name": "RootNode (gltf orientation matrix)",
      "rotation": [
        -0.70710678118654746,
        -0,
        -0,
        0.70710678118654757
      ]
    },
    {
      "children": [
        2
      ],
      "name": "RootNode (model correction matrix)"
    },
    {
      "children": [
        3
      ],
      "matrix": [
        1,
        0,
        0,
        0,
        0,
        0,
        1,
        0,
        0,
        -1,
        0,
        0,
        0,
        0,
        0,
        1
      ],
      "name": "00f2ef8acb40497087cfbdfdc51d40cd.fbx"
    },
    {
      "children": [
        4,
        6,
        8,
        10
      ],
      "name": "RootNode"
    },
    {
      "children": [
        5
      ],
      "matrix": [
        256.34927368164062,
        0,
        0,
        0,
        0,
        -4.1764597829815419e-05,
        -256.34927368163721,
        0,
        0,
        495.19070434569659,
        -8.0676805980521484e-05,
        0,
        0,
        125.7027587890625,
        98.248580932617188,
        1
      ],
      "name": "Cube.003"
    },
    {
      "mesh": 0,
      "name": "Cube.003_Material_0"
    },
    {
      "children": [
        7
      ],
      "matrix": [
        -262.05850219724573,
        0.00010204934845225704,
        -2.6333184034685753e-12,
        0,
        1.8839683604518033e-11,
        4.1764597943657365e-05,
        -256.34927368163716,
        0,
        -0.00019283437978307897,
        -495.19070434565896,
        -8.0676806200430319e-05,
        0,
        -250.96092224121094,
        704.5225830078125,
        110.02452087402344,
        1
      ],
      "name": "Cube.002"
    },
    {
      "mesh": 1,
      "name": "Cube.002_Material_0"
    },
    {
      "children": [
        9
      ],
      "matrix": [
        217.84822462418279,
        0,
        -145.65985585323494,
        0,
        -142.48651460575167,
        -4.1764597886736392e-05,
        -213.10218974146622,
        0,
        -4.4842556895584364e-05,
        495.19070434569664,
        -6.7066326272635765e-05,
        0,
        247.79986572265625,
        502.48165893554688,
        110.02452087402344,
        1
      ],
      "name": "Cube.001"
    },
    {
      "mesh": 2,
      "name": "Cube.001_Material_0"
    },
    {
      "children": [
        11
      ],
      "matrix": [
        256.34927368164062,
        0,
        0,
        0,
        0,
        -4.1764597829815419e-05,
        -256.34927368163721,
        0,
        0,
        495.19070434569659,
        -8.0676805980521484e-05,
        0,
        0,
        502.48165893554688,
        0,
        1
      ],
      "name": "Cube"
    },
    {
      "mesh": 3,
      "name": "Cube_Material_0"
    }
  ],
  "scene": 0,
  "scenes": [
    {
      "name": "OSG_Scene",
      "nodes": [
        0
      ]
    }
  ]
}

