{
  "accessors": [
    {
      "bufferView": 2,
      "componentType": 5126,
      "count": 1343,
      "max": [
        5.7932286262512207,
        8.2832460403442383,
        -0.55126047134399414
      ],
      "min": [
        -3.6703739166259766,
        0.23664641380310059,
        -10.341191291809082
      ],
      "type": "VEC3"
    },
    {
      "bufferView": 2,
      "byteOffset": 16116,
      "componentType": 5126,
      "count": 1343,
      "max": [
        1,
        1,
        1
      ],
      "min": [
        -1,
        -1,
        -1
      ],
      "type": "VEC3"
    },
    {
      "bufferView": 3,
      "componentType": 5126,
      "count": 1343,
      "max": [
        1,
        0.99932026863098145,
        1,
        1
      ],
      "min": [
        -1,
        -0.65902292728424072,
        -1,
        1
      ],
      "type": "VEC4"
    },
    {
      "bufferView": 1,
      "componentType": 5126,
      "count": 1343,
      "max": [
        0.98565942049026489,
        0.982380211353302
      ],
      "min": [
        0.028221992775797844,
        0.12472594529390335
      ],
      "type": "VEC2"
    },
    {
      "bufferView": 0,
      "componentType": 5125,
      "count": 5472,
      "max": [
        1342
      ],
      "min": [
        0
      ],
      "type": "SCALAR"
    },
    {
      "bufferView": 2,
      "byteOffset": 32232,
      "componentType": 5126,
      "count": 336,
      "max": [
        -4.8206424713134766,
        4.4710111618041992,
        4.8993606567382812
      ],
      "min": [
        -10.31739616394043,
        0.47950789332389832,
        -0.75283646583557129
      ],
      "type": "VEC3"
    },
    {
      "bufferView": 2,
      "byteOffset": 36264,
      "componentType": 5126,
      "count": 336,
      "max": [
        0.99671840667724609,
        1,
        0.98847812414169312
      ],
      "min": [
        -0.99671834707260132,
        -1,
        -0.98755121231079102
      ],
      "type": "VEC3"
    },
    {
      "bufferView": 3,
      "byteOffset": 21488,
      "componentType": 5126,
      "count": 336,
      "max": [
        1,
        0.99672222137451172,
        0.99998587369918823,
        1
      ],
      "min": [
        -0.99995172023773193,
        -0.023978995159268379,
        -1,
        1
      ],
      "type": "VEC4"
    },
    {
      "bufferView": 1,
      "byteOffset": 10744,
      "componentType": 5126,
      "count": 336,
      "max": [
        0.98081862926483154,
        0.98793429136276245
      ],
      "min": [
        0.021916761994361877,
        0.015788614749908447
      ],
      "type": "VEC2"
    },
    {
      "bufferView": 1,
      "byteOffset": 13432,
      "componentType": 5126,
      "count": 336,
      "max": [
        1,
        1
      ],
      "min": [
        0,
        0
      ],
      "type": "VEC2"
    },
    {
      "bufferView": 1,
      "byteOffset": 16120,
      "componentType": 5126,
      "count": 336,
      "max": [
        1,
        1
      ],
      "min": [
        0,
        0
      ],
      "type": "VEC2"
    },
    {
      "bufferView": 0,
      "byteOffset": 21888,
      "componentType": 5125,
      "count": 852,
      "max": [
        335
      ],
      "min": [
        0
      ],
      "type": "SCALAR"
    },
    {
      "bufferView": 2,
      "byteOffset": 40296,
      "componentType": 5126,
      "count": 144,
      "max": [
        16.19244384765625,
        0.17746454477310181,
        10.423199653625488
      ],
      "min": [
        -17.530210494995117,
        -0.17746454477310181,
        -15.088216781616211
      ],
      "type": "VEC3"
    },
    {
      "bufferView": 2,
      "byteOffset": 42024,
      "componentType": 5126,
      "count": 144,
      "max": [
        1,
        1,
        1
      ],
      "min": [
        -1,
        -1,
        -1
      ],
      "type": "VEC3"
    },
    {
      "bufferView": 3,
      "byteOffset": 26864,
      "componentType": 5126,
      "count": 144,
      "max": [
        0,
        2.3851811192798777e-07,
        1,
        1
      ],
      "min": [
        -1,
        -2.4150713784365507e-07,
        -1,
        1
      ],
      "type": "VEC4"
    },
    {
      "bufferView": 1,
      "byteOffset": 18808,
      "componentType": 5126,
      "count": 144,
      "max": [
        0.52653098106384277,
        0.99672806262969971
      ],
      "min": [
        0.0047020316123962402,
        0.013077939860522747
      ],
      "type": "VEC2"
    },
    {
      "bufferView": 0,
      "byteOffset": 25296,
      "componentType": 5125,
      "count": 216,
      "max": [
        143
      ],
      "min": [
        0
      ],
      "type": "SCALAR"
    },
    {
      "bufferView": 2,
      "byteOffset": 43752,
      "componentType": 5126,
      "count": 48,
      "max": [
        -4.4245786666870117,
        2.9912576675415039,
        7.4190034866333008
      ],
      "min": [
        -10.620738983154297,
        0.18559384346008301,
        -11.476170539855957
      ],
      "type": "VEC3"
    },
    {
      "bufferView": 2,
      "byteOffset": 44328,
      "componentType": 5126,
      "count": 48,
      "max": [
        1,
        1,
        1
      ],
      "min": [
        -1,
        -1,
        -1
      ],
      "type": "VEC3"
    },
    {
      "bufferView": 3,
      "byteOffset": 29168,
      "componentType": 5126,
      "count": 48,
      "max": [
        1.2928890100738499e-06,
        0,
        1,
        1
      ],
      "min": [
        -1,
        -1.3364325468501193e-06,
        -1,
        1
      ],
      "type": "VEC4"
    },
    {
      "bufferView": 1,
      "byteOffset": 19960,
      "componentType": 5126,
      "count": 48,
      "max": [
        0.84459614753723145,
        0.794655442237854
      ],
      "min": [
        0.45909896492958069,
        0.13841533660888672
      ],
      "type": "VEC2"
    },
    {
      "bufferView": 0,
      "byteOffset": 26160,
      "componentType": 5125,
      "count": 84,
      "max": [
        47
      ],
      "min": [
        0
      ],
      "type": "SCALAR"
    },
    {
      "bufferView": 2,
      "byteOffset": 44904,
      "componentType": 5126,
      "count": 740,
      "max": [
        -9.2730255126953125,
        7.5980920791625977,
        -0.26478493213653564
      ],
      "min": [
        -10.047639846801758,
        0.46616697311401367,
        -2.4714021682739258
      ],
      "type": "VEC3"
    },
    {
      "bufferView": 2,
      "byteOffset": 53784,
      "componentType": 5126,
      "count": 740,
      "max": [
        1,
        1,
        0.9997754693031311
      ],
      "min": [
        -1,
        -1,
        -0.9997754693031311
      ],
      "type": "VEC3"
    },
    {
      "bufferView": 3,
      "byteOffset": 29936,
      "componentType": 5126,
      "count": 740,
      "max": [
        1,
        1,
        1,
        1
      ],
      "min": [
        -1,
        -1,
        -1,
        1
      ],
      "type": "VEC4"
    },
    {
      "bufferView": 1,
      "byteOffset": 20344,
      "componentType": 5126,
      "count": 740,
      "max": [
        0.98608577251434326,
        0.9658958911895752
      ],
      "min": [
        0.026321232318878174,
        0.016502559185028076
      ],
      "type": "VEC2"
    },
    {
      "bufferView": 0,
      "byteOffset": 26496,
      "componentType": 5125,
      "count": 2970,
      "max": [
        739
      ],
      "min": [
        0
      ],
      "type": "SCALAR"
    },
    {
      "bufferView": 2,
      "byteOffset": 62664,
      "componentType": 5126,
      "count": 382,
      "max": [
        10.851877212524414,
        2.64876389503479,
        0.68866884708404541
      ],
      "min": [
        -4.8924503326416016,
        0.18974107503890991,
        -5.8788690567016602
      ],
      "type": "VEC3"
    },
    {
      "bufferView": 2,
      "byteOffset": 67248,
      "componentType": 5126,
      "count": 382,
      "max": [
        0.99693268537521362,
        1,
        0.98734503984451294
      ],
      "min": [
        -0.99897277355194092,
        -1,
        -0.99489885568618774
      ],
      "type": "VEC3"
    },
    {
      "bufferView": 3,
      "byteOffset": 41776,
      "componentType": 5126,
      "count": 382,
      "max": [
        1,
        0.99897289276123047,
        0.7657315731048584,
        1
      ],
      "min": [
        -0.64100313186645508,
        -0.91975533962249756,
        -0.99862658977508545,
        1
      ],
      "type": "VEC4"
    },
    {
      "bufferView": 1,
      "byteOffset": 26264,
      "componentType": 5126,
      "count": 382,
      "max": [
        0.97843551635742188,
        0.98239552974700928
      ],
      "min": [
        0.028894269838929176,
        0.024874091148376465
      ],
      "type": "VEC2"
    },
    {
      "bufferView": 1,
      "byteOffset": 29320,
      "componentType": 5126,
      "count": 382,
      "max": [
        1,
        1
      ],
      "min": [
        0,
        0
      ],
      "type": "VEC2"
    },
    {
      "bufferView": 1,
      "byteOffset": 32376,
      "componentType": 5126,
      "count": 382,
      "max": [
        1,
        1
      ],
      "min": [
        0,
        0
      ],
      "type": "VEC2"
    },
    {
      "bufferView": 0,
      "byteOffset": 38376,
      "componentType": 5125,
      "count": 888,
      "max": [
        381
      ],
      "min": [
        0
      ],
      "type": "SCALAR"
    },
    {
      "bufferView": 2,
      "byteOffset": 71832,
      "componentType": 5126,
      "count": 2792,
      "max": [
        4.2811098098754883,
        13.546469688415527,
        14.632299423217773
      ],
      "min": [
        -4.2811098098754883,
        0.18764472007751465,
        -3.0147123336791992
      ],
      "type": "VEC3"
    },
    {
      "bufferView": 2,
      "byteOffset": 105336,
      "componentType": 5126,
      "count": 2792,
      "max": [
        0.99992972612380981,
        1,
        0.99997687339782715
      ],
      "min": [
        -0.99992978572845459,
        -1,
        -1
      ],
      "type": "VEC3"
    },
    {
      "bufferView": 3,
      "byteOffset": 47888,
      "componentType": 5126,
      "count": 2792,
      "max": [
        1,
        0.99969732761383057,
        1,
        1
      ],
      "min": [
        -0.99999624490737915,
        -0.99999302625656128,
        -1,
        1
      ],
      "type": "VEC4"
    },
    {
      "bufferView": 1,
      "byteOffset": 35432,
      "componentType": 5126,
      "count": 2792,
      "max": [
        0.98347163200378418,
        0.47361856698989868
      ],
      "min": [
        0.0044009163975715637,
        0.013636810705065727
      ],
      "type": "VEC2"
    },
    {
      "bufferView": 1,
      "byteOffset": 57768,
      "componentType": 5126,
      "count": 2792,
      "max": [
        1.8848618268966675,
        1
      ],
      "min": [
        0,
        0
      ],
      "type": "VEC2"
    },
    {
      "bufferView": 0,
      "byteOffset": 41928,
      "componentType": 5125,
      "count": 10818,
      "max": [
        2791
      ],
      "min": [
        0
      ],
      "type": "SCALAR"
    }
  ],
  "asset": {
    "extras": {
      "author": "Prudence (https://sketchfab.com/prudence)",
      "license": "CC-BY-4.0 (http://creativecommons.org/licenses/by/4.0/)",
      "source": "https://sketchfab.com/3d-models/garden-set-d7b65635448f403ca22ffd1b27856bff",
      "title": "Garden set"
    },
    "generator": "Sketchfab-8.20.0",
    "version": "2.0"
  },
  "bufferViews": [
    {
      "buffer": 0,
      "byteLength": 85200,
      "byteOffset": 0,
      "name": "floatBufferViews",
      "target": 34963
    },
    {
      "buffer": 0,
      "byteLength": 80104,
      "byteOffset": 85200,
      "byteStride": 8,
      "name": "floatBufferViews",
      "target": 34962
    },
    {
      "buffer": 0,
      "byteLength": 138840,
      "byteOffset": 165304,
      "byteStride": 12,
      "name": "floatBufferViews",
      "target": 34962
    },
    {
      "buffer": 0,
      "byteLength": 92560,
      "byteOffset": 304144,
      "byteStride": 16,
      "name": "floatBufferViews",
      "target": 34962
    }
  ],
  "buffers": [
    {
      "byteLength": 396704,
      "uri": "scene.bin"
    }
  ],
  "images": [
    {
      "uri": "textures/bucket_m_baseColor.jpeg"
    },
    {
      "uri": "textures/bucket_m_metallicRoughness.png"
    },
    {
      "uri": "textures/bucket_m_normal.jpeg"
    },
    {
      "uri": "textures/pot_m_baseColor.jpeg"
    },
    {
      "uri": "textures/pot_m_metallicRoughness.png"
    },
    {
      "uri": "textures/pot_m_normal.jpeg"
    },
    {
      "uri": "textures/plank_box_baseColor.jpeg"
    },
    {
      "uri": "textures/plank_box_metallicRoughness.png"
    },
    {
      "uri": "textures/plank_box_normal.jpeg"
    },
    {
      "uri": "textures/shovel_m_baseColor.jpeg"
    },
    {
      "uri": "textures/shovel_m_metallicRoughness.png"
    },
    {
      "uri": "textures/shovel_m_normal.jpeg"
    },
    {
      "uri": "textures/pot2_m_baseColor.jpeg"
    },
    {
      "uri": "textures/pot2_m_metallicRoughness.png"
    },
    {
      "uri": "textures/pot2_m_normal.jpeg"
    },
    {
      "uri": "textures/can_m_baseColor.jpeg"
    },
    {
      "uri": "textures/can_m_metallicRoughness.png"
    },
    {
      "uri": "textures/can_m_normal.jpeg"
    }
  ],
  "materials": [
    {
      "doubleSided": true,
      "name": "bucket_m",
      "normalTexture": {
        "index": 2,
        "scale": 1,
        "texCoord": 0
      },
      "occlusionTexture": {
        "index": 1,
        "strength": 1,
        "texCoord": 0
      },
      "pbrMetallicRoughness": {
        "baseColorFactor": [
          1,
          1,
          1,
          1
        ],
        "baseColorTexture": {
          "index": 0,
          "texCoord": 0
        },
        "metallicFactor": 1,
        "metallicRoughnessTexture": {
          "index": 1,
          "texCoord": 0
        },
        "roughnessFactor": 1
      }
    },
    {
      "doubleSided": true,
      "emissiveFactor": [
        0,
        0,
        0
      ],
      "name": "pot_m",
      "normalTexture": {
        "index": 5,
        "scale": 1,
        "texCoord": 0
      },
      "occlusionTexture": {
        "index": 4,
        "strength": 1,
        "texCoord": 0
      },
      "pbrMetallicRoughness": {
        "baseColorFactor": [
          1,
          1,
          1,
          1
        ],
        "baseColorTexture": {
          "index": 3,
          "texCoord": 0
        },
        "metallicFactor": 1,
        "metallicRoughnessTexture": {
          "index": 4,
          "texCoord": 0
        },
        "roughnessFactor": 1
      }
    },
    {
      "doubleSided": true,
      "emissiveFactor": [
        0,
        0,
        0
      ],
      "name": "plank_box",
      "normalTexture": {
        "index": 8,
        "scale": 1,
        "texCoord": 0
      },
      "occlusionTexture": {
        "index": 7,
        "strength": 1,
        "texCoord": 0
      },
      "pbrMetallicRoughness": {
        "baseColorFactor": [
          1,
          1,
          1,
          1
        ],
        "baseColorTexture": {
          "index": 6,
          "texCoord": 0
        },
        "metallicFactor": 1,
        "metallicRoughnessTexture": {
          "index": 7,
          "texCoord": 0
        },
        "roughnessFactor": 1
      }
    },
    {
      "doubleSided": true,
      "emissiveFactor": [
        0,
        0,
        0
      ],
      "name": "shovel_m",
      "normalTexture": {
        "index": 11,
        "scale": 1,
        "texCoord": 0
      },
      "occlusionTexture": {
        "index": 10,
        "strength": 1,
        "texCoord": 0
      },
      "pbrMetallicRoughness": {
        "baseColorFactor": [
          1,
          1,
          1,
          1
        ],
        "baseColorTexture": {
          "index": 9,
          "texCoord": 0
        },
        "metallicFactor": 1,
        "metallicRoughnessTexture": {
          "index": 10,
          "texCoord": 0
        },
        "roughnessFactor": 1
      }
    },
    {
      "doubleSided": true,
      "name": "pot2_m",
      "normalTexture": {
        "index": 14,
        "scale": 1,
        "texCoord": 0
      },
      "occlusionTexture": {
        "index": 13,
        "strength": 1,
        "texCoord": 0
      },
      "pbrMetallicRoughness": {
        "baseColorFactor": [
          1,
          1,
          1,
          1
        ],
        "baseColorTexture": {
          "index": 12,
          "texCoord": 0
        },
        "metallicFactor": 1,
        "metallicRoughnessTexture": {
          "index": 13,
          "texCoord": 0
        },
        "roughnessFactor": 1
      }
    },
    {
      "doubleSided": true,
      "name": "can_m",
      "normalTexture": {
        "index": 17,
        "scale": 1,
        "texCoord": 0
      },
      "occlusionTexture": {
        "index": 16,
        "strength": 1,
        "texCoord": 0
      },
      "pbrMetallicRoughness": {
        "baseColorFactor": [
          1,
          1,
          1,
          1
        ],
        "baseColorTexture": {
          "index": 15,
          "texCoord": 0
        },
        "metallicFactor": 1,
        "metallicRoughnessTexture": {
          "index": 16,
          "texCoord": 0
        },
        "roughnessFactor": 1
      }
    }
  ],
  "meshes": [
    {
      "name": "bucket_bucket_m_0",
      "primitives": [
        {
          "attributes": {
            "NORMAL": 1,
            "POSITION": 0,
            "TANGENT": 2,
            "TEXCOORD_0": 3
          },
          "indices": 4,
          "material": 0,
          "mode": 4
        }
      ]
    },
    {
      "name": "pot_pot_m_0",
      "primitives": [
        {
          "attributes": {
            "NORMAL": 6,
            "POSITION": 5,
            "TANGENT": 7,
            "TEXCOORD_0": 8,
            "TEXCOORD_1": 9,
            "TEXCOORD_2": 10
          },
          "indices": 11,
          "material": 1,
          "mode": 4
        }
      ]
    },
    {
      "name": "plank_plank_box_0",
      "primitives": [
        {
          "attributes": {
            "NORMAL": 13,
            "POSITION": 12,
            "TANGENT": 14,
            "TEXCOORD_0": 15
          },
          "indices": 16,
          "material": 2,
          "mode": 4
        }
      ]
    },
    {
      "name": "box_plank_box_0",
      "primitives": [
        {
          "attributes": {
            "NORMAL": 18,
            "POSITION": 17,
            "TANGENT": 19,
            "TEXCOORD_0": 20
          },
          "indices": 21,
          "material": 2,
          "mode": 4
        }
      ]
    },
    {
      "name": "shovel_shovel_m_0",
      "primitives": [
        {
          "attributes": {
            "NORMAL": 23,
            "POSITION": 22,
            "TANGENT": 24,
            "TEXCOORD_0": 25
          },
          "indices": 26,
          "material": 3,
          "mode": 4
        }
      ]
    },
    {
      "name": "pot2_pot2_m_0",
      "primitives": [
        {
          "attributes": {
            "NORMAL": 28,
            "POSITION": 27,
            "TANGENT": 29,
            "TEXCOORD_0": 30,
            "TEXCOORD_1": 31,
            "TEXCOORD_2": 32
          },
          "indices": 33,
          "material": 4,
          "mode": 4
        }
      ]
    },
    {
      "name": "can_can_m_0",
      "primitives": [
        {
          "attributes": {
            "NORMAL": 35,
            "POSITION": 34,
            "TANGENT": 36,
            "TEXCOORD_0": 37,
            "TEXCOORD_1": 38
          },
          "indices": 39,
          "material": 5,
          "mode": 4
        }
      ]
    }
  ],
  "nodes": [
    {
      "children": [
        1
      ],
      "name": "RootNode (gltf orientation matrix)",
      "rotation": [
        -0.70710678118654746,
        -0,
        -0,
        0.70710678118654757
      ]
    },
    {
      "children": [
        2
      ],
      "name": "RootNode (model correction matrix)"
    },
    {
      "children": [
        3
      ],
      "matrix": [
        1,
        0,
        0,
        0,
        0,
        0,
        1,
        0,
        0,
        -1,
        0,
        0,
        0,
        0,
        0,
        1
      ],
      "name": "ae5f1a4f4f7746feb4071d2266741d39.fbx"
    },
    {
      "children": [
        4,
        6,
        8,
        10,
        12,
        14,
        16
      ],
      "name": "RootNode"
    },
    {
      "children": [
        5
      ],
      "matrix": [
        0.25881904510252063,
        0,
        -0.96592582628906831,
        0,
        0,
        1,
        0,
        0,
        0.96592582628906831,
        0,
        0.25881904510252063,
        0,
        -1.4590144157409668,
        0,
        -6.1654129028320312,
        1
      ],
      "name": "bucket"
    },
    {
      "mesh": 0,
      "name": "bucket_bucket_m_0"
    },
    {
      "children": [
        7
      ],
      "matrix": [
        0.70710678118654735,
        0,
        0.70710678118654768,
        0,
        0,
        1,
        0,
        0,
        -0.70710678118654768,
        0,
        0.70710678118654735,
        0,
        10.250035285949707,
        0,
        -3.6420872211456299,
        1
      ],
      "name": "pot"
    },
    {
      "mesh": 1,
      "name": "pot_pot_m_0"
    },
    {
      "children": [
        9
      ],
      "matrix": [
        0.97326571024738862,
        0,
        -0.22968207865797069,
        0,
        0,
        1,
        0,
        0,
        0.22968207865797069,
        0,
        0.97326571024738862,
        0,
        0,
        0,
        0,
        1
      ],
      "name": "plank"
    },
    {
      "mesh": 2,
      "name": "plank_plank_box_0"
    },
    {
      "children": [
        11
      ],
      "matrix": [
        0.70710678118654735,
        0,
        0.70710678118654768,
        0,
        0,
        1,
        0,
        0,
        -0.70710678118654768,
        0,
        0.70710678118654735,
        0,
        4.1531147956848145,
        0,
        2.350257396697998,
        1
      ],
      "name": "box"
    },
    {
      "mesh": 3,
      "name": "box_plank_box_0"
    },
    {
      "children": [
        13
      ],
      "matrix": [
        0.92011616594864698,
        0.3048955511950317,
        0.24581485720240703,
        0,
        -0.25496720001889456,
        0.94275228594404703,
        -0.21496477446735032,
        0,
        -0.29728432194531718,
        0.13511783823297188,
        0.94517998376857382,
        0,
        4.7921886444091797,
        3.1099319458007812,
        1.5690115690231323,
        1
      ],
      "name": "shovel"
    },
    {
      "mesh": 4,
      "name": "shovel_shovel_m_0"
    },
    {
      "children": [
        15
      ],
      "name": "pot2"
    },
    {
      "mesh": 5,
      "name": "pot2_pot2_m_0"
    },
    {
      "children": [
        17
      ],
      "matrix": [
        0.96592582628906831,
        0,
        0.25881904510252074,
        0,
        0,
        1,
        0,
        0,
        -0.25881904510252074,
        0,
        0.96592582628906831,
        0,
        7.1987733840942383,
        0,
        0.19792984426021576,
        1
      ],
      "name": "can"
    },
    {
      "mesh": 6,
      "name": "can_can_m_0"
    }
  ],
  "samplers": [
    {
      "magFilter": 9729,
      "minFilter": 9987,
      "wrapS": 10497,
      "wrapT": 10497
    }
  ],
  "scene": 0,
  "scenes": [
    {
      "name": "OSG_Scene",
      "nodes": [
        0
      ]
    }
  ],
  "textures": [
    {
      "sampler": 0,
      "source": 0
    },
    {
      "sampler": 0,
      "source": 1
    },
    {
      "sampler": 0,
      "source": 2
    },
    {
      "sampler": 0,
      "source": 3
    },
    {
      "sampler": 0,
      "source": 4
    },
    {
      "sampler": 0,
      "source": 5
    },
    {
      "sampler": 0,
      "source": 6
    },
    {
      "sampler": 0,
      "source": 7
    },
    {
      "sampler": 0,
      "source": 8
    },
    {
      "sampler": 0,
      "source": 9
    },
    {
      "sampler": 0,
      "source": 10
    },
    {
      "sampler": 0,
      "source": 11
    },
    {
      "sampler": 0,
      "source": 12
    },
    {
      "sampler": 0,
      "source": 13
    },
    {
      "sampler": 0,
      "source": 14
    },
    {
      "sampler": 0,
      "source": 15
    },
    {
      "sampler": 0,
      "source": 16
    },
    {
      "sampler": 0,
      "source": 17
    }
  ]
}

