{
  "accessors": [
    {
      "bufferView": 2,
      "componentType": 5126,
      "count": 216,
      "max": [
        142.6072998046875,
        105.39710235595703,
        73.956588745117188
      ],
      "min": [
        -142.6072998046875,
        80.999786376953125,
        -73.956588745117188
      ],
      "type": "VEC3"
    },
    {
      "bufferView": 2,
      "byteOffset": 2592,
      "componentType": 5126,
      "count": 216,
      "max": [
        0.99999982118606567,
        0.9999997615814209,
        0.99999994039535522
      ],
      "min": [
        -0.99999982118606567,
        -1,
        -0.99999994039535522
      ],
      "type": "VEC3"
    },
    {
      "bufferView": 3,
      "componentType": 5126,
      "count": 216,
      "max": [
        0.85976022481918335,
        1,
        1,
        1
      ],
      "min": [
        -0.85675603151321411,
        -1,
        -0.99999988079071045,
        1
      ],
      "type": "VEC4"
    },
    {
      "bufferView": 1,
      "componentType": 5126,
      "count": 216,
      "max": [
        0.9330756664276123,
        0.36320272088050842
      ],
      "min": [
        0.56006377935409546,
        0.0019920468330383301
      ],
      "type": "VEC2"
    },
    {
      "bufferView": 0,
      "componentType": 5125,
      "count": 1044,
      "max": [
        215
      ],
      "min": [
        0
      ],
      "type": "SCALAR"
    },
    {
      "bufferView": 2,
      "byteOffset": 5184,
      "componentType": 5126,
      "count": 2170,
      "max": [
        196.63821411132812,
        132.94931030273438,
        -65.139396667480469
      ],
      "min": [
        -73.276115417480469,
        93.32611083984375,
        -315.796875
      ],
      "type": "VEC3"
    },
    {
      "bufferView": 2,
      "byteOffset": 31224,
      "componentType": 5126,
      "count": 2170,
      "max": [
        0.99796313047409058,
        1,
        0.99993300437927246
      ],
      "min": [
        -0.99999916553497314,
        -1,
        -1
      ],
      "type": "VEC3"
    },
    {
      "bufferView": 3,
      "byteOffset": 3456,
      "componentType": 5126,
      "count": 2170,
      "max": [
        0.99993306398391724,
        0.81521320343017578,
        1,
        1
      ],
      "min": [
        -1,
        -0.81996744871139526,
        -1,
        -1
      ],
      "type": "VEC4"
    },
    {
      "bufferView": 1,
      "byteOffset": 1728,
      "componentType": 5126,
      "count": 2170,
      "max": [
        0.99800807237625122,
        0.94630032777786255
      ],
      "min": [
        0.0019920321647077799,
        0.021909505128860474
      ],
      "type": "VEC2"
    },
    {
      "bufferView": 0,
      "byteOffset": 4176,
      "componentType": 5125,
      "count": 11520,
      "max": [
        2169
      ],
      "min": [
        0
      ],
      "type": "SCALAR"
    },
    {
      "bufferView": 2,
      "byteOffset": 57264,
      "componentType": 5126,
      "count": 410,
      "max": [
        161.61663818359375,
        136.76762390136719,
        22.958267211914062
      ],
      "min": [
        21.152153015136719,
        106.70370483398438,
        -79.619895935058594
      ],
      "type": "VEC3"
    },
    {
      "bufferView": 2,
      "byteOffset": 62184,
      "componentType": 5126,
      "count": 410,
      "max": [
        0.99828159809112549,
        0.99992191791534424,
        0.99777376651763916
      ],
      "min": [
        -0.99965387582778931,
        -0.99989813566207886,
        -0.99961310625076294
      ],
      "type": "VEC3"
    },
    {
      "bufferView": 3,
      "byteOffset": 38176,
      "componentType": 5126,
      "count": 410,
      "max": [
        0.95796257257461548,
        0.99956876039505005,
        0.99998486042022705,
        1
      ],
      "min": [
        -0.96529477834701538,
        -0.99857586622238159,
        -0.94405460357666016,
        1
      ],
      "type": "VEC4"
    },
    {
      "bufferView": 1,
      "byteOffset": 19088,
      "componentType": 5126,
      "count": 410,
      "max": [
        0.99759739637374878,
        0.57532763481140137
      ],
      "min": [
        0.0019920468330383301,
        0.0018888232298195362
      ],
      "type": "VEC2"
    },
    {
      "bufferView": 0,
      "byteOffset": 50256,
      "componentType": 5125,
      "count": 1788,
      "max": [
        409
      ],
      "min": [
        0
      ],
      "type": "SCALAR"
    },
    {
      "bufferView": 2,
      "byteOffset": 67104,
      "componentType": 5126,
      "count": 624,
      "max": [
        159.904541015625,
        189.94294738769531,
        86.612045288085938
      ],
      "min": [
        -159.41212463378906,
        0.14653778076171875,
        -87.929649353027344
      ],
      "type": "VEC3"
    },
    {
      "bufferView": 2,
      "byteOffset": 74592,
      "componentType": 5126,
      "count": 624,
      "max": [
        1,
        1,
        1
      ],
      "min": [
        -1,
        -1,
        -1
      ],
      "type": "VEC3"
    },
    {
      "bufferView": 3,
      "byteOffset": 44736,
      "componentType": 5126,
      "count": 624,
      "max": [
        1,
        1,
        1,
        1
      ],
      "min": [
        -1,
        -1,
        -1,
        1
      ],
      "type": "VEC4"
    },
    {
      "bufferView": 1,
      "byteOffset": 22368,
      "componentType": 5126,
      "count": 624,
      "max": [
        0.99796146154403687,
        0.99800801277160645
      ],
      "min": [
        0.0019919276237487793,
        0.0028843448963016272
      ],
      "type": "VEC2"
    },
    {
      "bufferView": 0,
      "byteOffset": 57408,
      "componentType": 5125,
      "count": 948,
      "max": [
        623
      ],
      "min": [
        0
      ],
      "type": "SCALAR"
    }
  ],
  "asset": {
    "extras": {
      "author": "avelina.99 (https://sketchfab.com/avelina.99)",
      "license": "CC-BY-4.0 (http://creativecommons.org/licenses/by/4.0/)",
      "source": "https://sketchfab.com/3d-models/old-bed-4ae72cf4832046c1a5e2f31a13311803",
      "title": "Old bed"
    },
    "generator": "Sketchfab-8.20.0",
    "version": "2.0"
  },
  "bufferViews": [
    {
      "buffer": 0,
      "byteLength": 61200,
      "byteOffset": 0,
      "name": "floatBufferViews",
      "target": 34963
    },
    {
      "buffer": 0,
      "byteLength": 27360,
      "byteOffset": 61200,
      "byteStride": 8,
      "name": "floatBufferViews",
      "target": 34962
    },
    {
      "buffer": 0,
      "byteLength": 82080,
      "byteOffset": 88560,
      "byteStride": 12,
      "name": "floatBufferViews",
      "target": 34962
    },
    {
      "buffer": 0,
      "byteLength": 54720,
      "byteOffset": 170640,
      "byteStride": 16,
      "name": "floatBufferViews",
      "target": 34962
    }
  ],
  "buffers": [
    {
      "byteLength": 225360,
      "uri": "scene.bin"
    }
  ],
  "images": [
    {
      "uri": "textures/M_bed_baseColor.png"
    },
    {
      "uri": "textures/M_bed_metallicRoughness.png"
    },
    {
      "uri": "textures/M_bed_normal.png"
    },
    {
      "uri": "textures/M_pillow_blanket_baseColor.png"
    },
    {
      "uri": "textures/M_pillow_blanket_metallicRoughness.png"
    },
    {
      "uri": "textures/M_pillow_blanket_normal.png"
    }
  ],
  "materials": [
    {
      "doubleSided": true,
      "emissiveFactor": [
        0,
        0,
        0
      ],
      "name": "M_bed",
      "normalTexture": {
        "index": 2,
        "scale": 1,
        "texCoord": 0
      },
      "pbrMetallicRoughness": {
        "baseColorFactor": [
          1,
          1,
          1,
          1
        ],
        "baseColorTexture": {
          "index": 0,
          "texCoord": 0
        },
        "metallicFactor": 0,
        "metallicRoughnessTexture": {
          "index": 1,
          "texCoord": 0
        },
        "roughnessFactor": 1
      }
    },
    {
      "doubleSided": true,
      "emissiveFactor": [
        0,
        0,
        0
      ],
      "name": "M_pillow_blanket",
      "normalTexture": {
        "index": 5,
        "scale": 1,
        "texCoord": 0
      },
      "pbrMetallicRoughness": {
        "baseColorFactor": [
          1,
          1,
          1,
          1
        ],
        "baseColorTexture": {
          "index": 3,
          "texCoord": 0
        },
        "metallicFactor": 0,
        "metallicRoughnessTexture": {
          "index": 4,
          "texCoord": 0
        },
        "roughnessFactor": 1
      }
    }
  ],
  "meshes": [
    {
      "name": "polySurface3584_M_bed_0",
      "primitives": [
        {
          "attributes": {
            "NORMAL": 1,
            "POSITION": 0,
            "TANGENT": 2,
            "TEXCOORD_0": 3
          },
          "indices": 4,
          "material": 0,
          "mode": 4
        }
      ]
    },
    {
      "name": "polySurface3390_M_pillow_blanket_0",
      "primitives": [
        {
          "attributes": {
            "NORMAL": 6,
            "POSITION": 5,
            "TANGENT": 7,
            "TEXCOORD_0": 8
          },
          "indices": 9,
          "material": 1,
          "mode": 4
        }
      ]
    },
    {
      "name": "polySurface3595_M_pillow_blanket_0",
      "primitives": [
        {
          "attributes": {
            "NORMAL": 11,
            "POSITION": 10,
            "TANGENT": 12,
            "TEXCOORD_0": 13
          },
          "indices": 14,
          "material": 1,
          "mode": 4
        }
      ]
    },
    {
      "name": "polySurface3573_M_bed_0",
      "primitives": [
        {
          "attributes": {
            "NORMAL": 16,
            "POSITION": 15,
            "TANGENT": 17,
            "TEXCOORD_0": 18
          },
          "indices": 19,
          "material": 0,
          "mode": 4
        }
      ]
    }
  ],
  "nodes": [
    {
      "children": [
        1
      ],
      "name": "RootNode (gltf orientation matrix)",
      "rotation": [
        -0.70710678118654746,
        -0,
        -0,
        0.70710678118654757
      ]
    },
    {
      "children": [
        2
      ],
      "name": "RootNode (model correction matrix)"
    },
    {
      "children": [
        3
      ],
      "matrix": [
        1,
        0,
        0,
        0,
        0,
        0,
        1,
        0,
        0,
        -1,
        0,
        0,
        0,
        0,
        0,
        1
      ],
      "name": "Old_bed.fbx"
    },
    {
      "children": [
        4,
        7,
        12
      ],
      "name": "RootNode"
    },
    {
      "children": [
        5
      ],
      "name": "polySurface3568"
    },
    {
      "children": [
        6
      ],
      "matrix": [
        1,
        0,
        0,
        0,
        0,
        1,
        0,
        0,
        0,
        0,
        1,
        0,
        0,
        -10.40971851348877,
        0,
        1
      ],
      "name": "polySurface3584"
    },
    {
      "mesh": 0,
      "name": "polySurface3584_M_bed_0"
    },
    {
      "children": [
        8,
        10
      ],
      "name": "pPlane11"
    },
    {
      "children": [
        9
      ],
      "matrix": [
        1.2296551995836049e-16,
        0,
        0.5537874698638916,
        0,
        0,
        0.5537874698638916,
        0,
        0,
        -0.5537874698638916,
        0,
        1.2296551995836049e-16,
        0,
        -46.357231140136719,
        30.886665344238281,
        -21.566543579101562,
        1
      ],
      "name": "polySurface3390"
    },
    {
      "mesh": 1,
      "name": "polySurface3390_M_pillow_blanket_0"
    },
    {
      "children": [
        11
      ],
      "matrix": [
        -0.03223248764788364,
        3.9473412826537139e-18,
        -0.76118132779159864,
        0,
        8.3538336701013374e-20,
        0.76186347007751465,
        3.9473412826537139e-18,
        0,
        0.76118132779159864,
        8.3538336701013374e-20,
        -0.03223248764788364,
        0,
        -65.23284912109375,
        11.172503471374512,
        68.646919250488281,
        1
      ],
      "name": "polySurface3595"
    },
    {
      "mesh": 2,
      "name": "polySurface3595_M_pillow_blanket_0"
    },
    {
      "children": [
        13
      ],
      "name": "polySurface3573"
    },
    {
      "mesh": 3,
      "name": "polySurface3573_M_bed_0"
    }
  ],
  "samplers": [
    {
      "magFilter": 9729,
      "minFilter": 9987,
      "wrapS": 10497,
      "wrapT": 10497
    }
  ],
  "scene": 0,
  "scenes": [
    {
      "name": "OSG_Scene",
      "nodes": [
        0
      ]
    }
  ],
  "textures": [
    {
      "sampler": 0,
      "source": 0
    },
    {
      "sampler": 0,
      "source": 1
    },
    {
      "sampler": 0,
      "source": 2
    },
    {
      "sampler": 0,
      "source": 3
    },
    {
      "sampler": 0,
      "source": 4
    },
    {
      "sampler": 0,
      "source": 5
    }
  ]
}

