{
    "asset" : {
        "generator" : "Khronos glTF Blender I/O v1.0.5",
        "version" : "2.0"
    },
    "scene" : 0,
    "scenes" : [
        {
            "name" : "Scene",
            "nodes" : [
                0,
                1,
                2,
                3,
                4,
                5,
                6,
                7,
                8,
                9,
                10,
                11
            ]
        }
    ],
    "nodes" : [
        {
            "mesh" : 0,
            "name" : "Object",
            "scale" : [
                0.001270000240765512,
                0.001270000240765512,
                0.001270000240765512
            ]
        },
        {
            "mesh" : 1,
            "name" : "Object.001",
            "scale" : [
                0.001270000240765512,
                0.001270000240765512,
                0.001270000240765512
            ]
        },
        {
            "mesh" : 2,
            "name" : "Object.002",
            "scale" : [
                0.001270000240765512,
                0.001270000240765512,
                0.001270000240765512
            ]
        },
        {
            "mesh" : 3,
            "name" : "Object.003",
            "scale" : [
                0.001270000240765512,
                0.001270000240765512,
                0.001270000240765512
            ]
        },
        {
            "mesh" : 4,
            "name" : "Object.004",
            "scale" : [
                0.001270000240765512,
                0.001270000240765512,
                0.001270000240765512
            ]
        },
        {
            "mesh" : 5,
            "name" : "Object.005",
            "scale" : [
                0.001270000240765512,
                0.001270000240765512,
                0.001270000240765512
            ]
        },
        {
            "mesh" : 6,
            "name" : "Object.006",
            "scale" : [
                0.001270000240765512,
                0.001270000240765512,
                0.001270000240765512
            ]
        },
        {
            "mesh" : 7,
            "name" : "Object.007",
            "scale" : [
                0.001270000240765512,
                0.001270000240765512,
                0.001270000240765512
            ]
        },
        {
            "mesh" : 8,
            "name" : "Object.008",
            "scale" : [
                0.001270000240765512,
                0.001270000240765512,
                0.001270000240765512
            ]
        },
        {
            "mesh" : 9,
            "name" : "Object.009",
            "scale" : [
                0.001270000240765512,
                0.001270000240765512,
                0.001270000240765512
            ]
        },
        {
            "mesh" : 10,
            "name" : "Object.010",
            "scale" : [
                0.001270000240765512,
                0.001270000240765512,
                0.001270000240765512
            ]
        },
        {
            "mesh" : 11,
            "name" : "Object.011",
            "scale" : [
                0.001270000240765512,
                0.001270000240765512,
                0.001270000240765512
            ]
        }
    ],
    "materials" : [
        {
            "doubleSided" : true,
            "name" : "Metal",
            "pbrMetallicRoughness" : {
                "baseColorTexture" : {
                    "index" : 0,
                    "texCoord" : 0
                },
                "metallicFactor" : 0.800000011920929,
                "roughnessFactor" : 0.5
            }
        },
        {
            "doubleSided" : true,
            "name" : "New Kaca",
            "pbrMetallicRoughness" : {
                "baseColorFactor" : [
                    0.800000011920929,
                    0.800000011920929,
                    0.800000011920929,
                    1
                ],
                "metallicFactor" : 0,
                "roughnessFactor" : 0.20000000298023224
            }
        },
        {
            "doubleSided" : true,
            "name" : "Glide",
            "pbrMetallicRoughness" : {
                "baseColorFactor" : [
                    0.01108776219189167,
                    0.01108776219189167,
                    0.01108776219189167,
                    1
                ],
                "metallicFactor" : 0,
                "roughnessFactor" : 0.5
            }
        },
        {
            "doubleSided" : true,
            "name" : "bumper",
            "pbrMetallicRoughness" : {
                "baseColorFactor" : [
                    1,
                    1,
                    1,
                    1
                ],
                "metallicFactor" : 0,
                "roughnessFactor" : 0.30000001192092896
            }
        }
    ],
    "meshes" : [
        {
            "name" : "Mesh",
            "primitives" : [
                {
                    "attributes" : {
                        "POSITION" : 0,
                        "NORMAL" : 1,
                        "TEXCOORD_0" : 2
                    },
                    "indices" : 3,
                    "material" : 0
                }
            ]
        },
        {
            "name" : "Mesh.001",
            "primitives" : [
                {
                    "attributes" : {
                        "POSITION" : 4,
                        "NORMAL" : 5
                    },
                    "indices" : 6,
                    "material" : 1
                },
                {
                    "attributes" : {
                        "POSITION" : 7,
                        "NORMAL" : 8
                    },
                    "indices" : 9
                }
            ]
        },
        {
            "name" : "Mesh.002",
            "primitives" : [
                {
                    "attributes" : {
                        "POSITION" : 10,
                        "NORMAL" : 11,
                        "TEXCOORD_0" : 12
                    },
                    "indices" : 13,
                    "material" : 0
                }
            ]
        },
        {
            "name" : "Mesh.003",
            "primitives" : [
                {
                    "attributes" : {
                        "POSITION" : 14,
                        "NORMAL" : 15
                    },
                    "indices" : 16,
                    "material" : 2
                }
            ]
        },
        {
            "name" : "Mesh.004",
            "primitives" : [
                {
                    "attributes" : {
                        "POSITION" : 17,
                        "NORMAL" : 18
                    },
                    "indices" : 19,
                    "material" : 2
                }
            ]
        },
        {
            "name" : "Mesh.005",
            "primitives" : [
                {
                    "attributes" : {
                        "POSITION" : 20,
                        "NORMAL" : 21
                    },
                    "indices" : 22,
                    "material" : 3
                }
            ]
        },
        {
            "name" : "Mesh.006",
            "primitives" : [
                {
                    "attributes" : {
                        "POSITION" : 23,
                        "NORMAL" : 24
                    },
                    "indices" : 22,
                    "material" : 3
                }
            ]
        },
        {
            "name" : "Mesh.007",
            "primitives" : [
                {
                    "attributes" : {
                        "POSITION" : 25,
                        "NORMAL" : 26
                    },
                    "indices" : 22,
                    "material" : 3
                }
            ]
        },
        {
            "name" : "Mesh.008",
            "primitives" : [
                {
                    "attributes" : {
                        "POSITION" : 27,
                        "NORMAL" : 28,
                        "TEXCOORD_0" : 29
                    },
                    "indices" : 30,
                    "material" : 0
                }
            ]
        },
        {
            "name" : "Mesh.009",
            "primitives" : [
                {
                    "attributes" : {
                        "POSITION" : 31,
                        "NORMAL" : 32
                    },
                    "indices" : 19,
                    "material" : 2
                }
            ]
        },
        {
            "name" : "Mesh.010",
            "primitives" : [
                {
                    "attributes" : {
                        "POSITION" : 33,
                        "NORMAL" : 34
                    },
                    "indices" : 16,
                    "material" : 2
                }
            ]
        },
        {
            "name" : "Mesh.011",
            "primitives" : [
                {
                    "attributes" : {
                        "POSITION" : 35,
                        "NORMAL" : 36
                    },
                    "indices" : 22,
                    "material" : 3
                }
            ]
        }
    ],
    "textures" : [
        {
            "source" : 0
        }
    ],
    "images" : [
        {
            "bufferView" : 4,
            "mimeType" : "image/jpeg",
            "name" : "80_gold circular Scratched metal PBR texture-seamless"
        }
    ],
    "accessors" : [
        {
            "bufferView" : 0,
            "componentType" : 5126,
            "count" : 112,
            "max" : [
                1227.258056640625,
                30,
                -9.89621353149414
            ],
            "min" : [
                -7.2580647468566895,
                -2.64177568709556e-13,
                -345.1037902832031
            ],
            "type" : "VEC3"
        },
        {
            "bufferView" : 1,
            "componentType" : 5126,
            "count" : 112,
            "type" : "VEC3"
        },
        {
            "bufferView" : 2,
            "componentType" : 5126,
            "count" : 112,
            "type" : "VEC2"
        },
        {
            "bufferView" : 3,
            "componentType" : 5123,
            "count" : 204,
            "type" : "SCALAR"
        },
        {
            "bufferView" : 5,
            "componentType" : 5126,
            "count" : 8,
            "max" : [
                1712.5,
                735,
                115
            ],
            "min" : [
                -492.5,
                716,
                -470
            ],
            "type" : "VEC3"
        },
        {
            "bufferView" : 6,
            "componentType" : 5126,
            "count" : 8,
            "type" : "VEC3"
        },
        {
            "bufferView" : 7,
            "componentType" : 5123,
            "count" : 12,
            "type" : "SCALAR"
        },
        {
            "bufferView" : 8,
            "componentType" : 5126,
            "count" : 16,
            "max" : [
                1712.5,
                735,
                115
            ],
            "min" : [
                -492.5,
                716,
                -470
            ],
            "type" : "VEC3"
        },
        {
            "bufferView" : 9,
            "componentType" : 5126,
            "count" : 16,
            "type" : "VEC3"
        },
        {
            "bufferView" : 10,
            "componentType" : 5123,
            "count" : 24,
            "type" : "SCALAR"
        },
        {
            "bufferView" : 11,
            "componentType" : 5126,
            "count" : 48,
            "max" : [
                150,
                713,
                50
            ],
            "min" : [
                -172.5,
                -1.7469359292476838e-13,
                -405
            ],
            "type" : "VEC3"
        },
        {
            "bufferView" : 12,
            "componentType" : 5126,
            "count" : 48,
            "type" : "VEC3"
        },
        {
            "bufferView" : 13,
            "componentType" : 5126,
            "count" : 48,
            "type" : "VEC2"
        },
        {
            "bufferView" : 14,
            "componentType" : 5123,
            "count" : 84,
            "type" : "SCALAR"
        },
        {
            "bufferView" : 15,
            "componentType" : 5126,
            "count" : 2264,
            "max" : [
                21.499753952026367,
                4.23455576159526e-10,
                -321.5067443847656
            ],
            "min" : [
                2.500246286392212,
                -10,
                -340.4932556152344
            ],
            "type" : "VEC3"
        },
        {
            "bufferView" : 16,
            "componentType" : 5126,
            "count" : 2264,
            "type" : "VEC3"
        },
        {
            "bufferView" : 17,
            "componentType" : 5123,
            "count" : 5772,
            "type" : "SCALAR"
        },
        {
            "bufferView" : 18,
            "componentType" : 5126,
            "count" : 2264,
            "max" : [
                21.499753952026367,
                4.234537998026866e-10,
                -14.506742477416992
            ],
            "min" : [
                2.500246286392212,
                -10,
                -33.49325942993164
            ],
            "type" : "VEC3"
        },
        {
            "bufferView" : 19,
            "componentType" : 5126,
            "count" : 2264,
            "type" : "VEC3"
        },
        {
            "bufferView" : 20,
            "componentType" : 5123,
            "count" : 5772,
            "type" : "SCALAR"
        },
        {
            "bufferView" : 21,
            "componentType" : 5126,
            "count" : 88,
            "max" : [
                -72.5,
                716,
                24.74553680419922
            ],
            "min" : [
                -122.5,
                713,
                -24.74553680419922
            ],
            "type" : "VEC3"
        },
        {
            "bufferView" : 22,
            "componentType" : 5126,
            "count" : 88,
            "type" : "VEC3"
        },
        {
            "bufferView" : 23,
            "componentType" : 5123,
            "count" : 252,
            "type" : "SCALAR"
        },
        {
            "bufferView" : 24,
            "componentType" : 5126,
            "count" : 88,
            "max" : [
                -72.5,
                716,
                -330.25445556640625
            ],
            "min" : [
                -122.5,
                713,
                -379.74554443359375
            ],
            "type" : "VEC3"
        },
        {
            "bufferView" : 25,
            "componentType" : 5126,
            "count" : 88,
            "type" : "VEC3"
        },
        {
            "bufferView" : 26,
            "componentType" : 5126,
            "count" : 88,
            "max" : [
                1342.5,
                716,
                -330.25445556640625
            ],
            "min" : [
                1292.5,
                713,
                -379.74554443359375
            ],
            "type" : "VEC3"
        },
        {
            "bufferView" : 27,
            "componentType" : 5126,
            "count" : 88,
            "type" : "VEC3"
        },
        {
            "bufferView" : 28,
            "componentType" : 5126,
            "count" : 48,
            "max" : [
                1392.5,
                713,
                50
            ],
            "min" : [
                1070,
                -2.0439205883349132e-13,
                -405
            ],
            "type" : "VEC3"
        },
        {
            "bufferView" : 29,
            "componentType" : 5126,
            "count" : 48,
            "type" : "VEC3"
        },
        {
            "bufferView" : 30,
            "componentType" : 5126,
            "count" : 48,
            "type" : "VEC2"
        },
        {
            "bufferView" : 31,
            "componentType" : 5123,
            "count" : 84,
            "type" : "SCALAR"
        },
        {
            "bufferView" : 32,
            "componentType" : 5126,
            "count" : 2264,
            "max" : [
                1217.499755859375,
                4.2342065964540154e-10,
                -321.5067443847656
            ],
            "min" : [
                1198.500244140625,
                -10,
                -340.4932556152344
            ],
            "type" : "VEC3"
        },
        {
            "bufferView" : 33,
            "componentType" : 5126,
            "count" : 2264,
            "type" : "VEC3"
        },
        {
            "bufferView" : 34,
            "componentType" : 5126,
            "count" : 2264,
            "max" : [
                1217.499755859375,
                4.2341888328856214e-10,
                -14.506742477416992
            ],
            "min" : [
                1198.500244140625,
                -10,
                -33.49325942993164
            ],
            "type" : "VEC3"
        },
        {
            "bufferView" : 35,
            "componentType" : 5126,
            "count" : 2264,
            "type" : "VEC3"
        },
        {
            "bufferView" : 36,
            "componentType" : 5126,
            "count" : 88,
            "max" : [
                1342.5,
                716,
                24.74553680419922
            ],
            "min" : [
                1292.5,
                713,
                -24.74553680419922
            ],
            "type" : "VEC3"
        },
        {
            "bufferView" : 37,
            "componentType" : 5126,
            "count" : 88,
            "type" : "VEC3"
        }
    ],
    "bufferViews" : [
        {
            "buffer" : 0,
            "byteLength" : 1344,
            "byteOffset" : 0
        },
        {
            "buffer" : 0,
            "byteLength" : 1344,
            "byteOffset" : 1344
        },
        {
            "buffer" : 0,
            "byteLength" : 896,
            "byteOffset" : 2688
        },
        {
            "buffer" : 0,
            "byteLength" : 408,
            "byteOffset" : 3584
        },
        {
            "buffer" : 0,
            "byteLength" : 1168378,
            "byteOffset" : 3992
        },
        {
            "buffer" : 0,
            "byteLength" : 96,
            "byteOffset" : 1172372
        },
        {
            "buffer" : 0,
            "byteLength" : 96,
            "byteOffset" : 1172468
        },
        {
            "buffer" : 0,
            "byteLength" : 24,
            "byteOffset" : 1172564
        },
        {
            "buffer" : 0,
            "byteLength" : 192,
            "byteOffset" : 1172588
        },
        {
            "buffer" : 0,
            "byteLength" : 192,
            "byteOffset" : 1172780
        },
        {
            "buffer" : 0,
            "byteLength" : 48,
            "byteOffset" : 1172972
        },
        {
            "buffer" : 0,
            "byteLength" : 576,
            "byteOffset" : 1173020
        },
        {
            "buffer" : 0,
            "byteLength" : 576,
            "byteOffset" : 1173596
        },
        {
            "buffer" : 0,
            "byteLength" : 384,
            "byteOffset" : 1174172
        },
        {
            "buffer" : 0,
            "byteLength" : 168,
            "byteOffset" : 1174556
        },
        {
            "buffer" : 0,
            "byteLength" : 27168,
            "byteOffset" : 1174724
        },
        {
            "buffer" : 0,
            "byteLength" : 27168,
            "byteOffset" : 1201892
        },
        {
            "buffer" : 0,
            "byteLength" : 11544,
            "byteOffset" : 1229060
        },
        {
            "buffer" : 0,
            "byteLength" : 27168,
            "byteOffset" : 1240604
        },
        {
            "buffer" : 0,
            "byteLength" : 27168,
            "byteOffset" : 1267772
        },
        {
            "buffer" : 0,
            "byteLength" : 11544,
            "byteOffset" : 1294940
        },
        {
            "buffer" : 0,
            "byteLength" : 1056,
            "byteOffset" : 1306484
        },
        {
            "buffer" : 0,
            "byteLength" : 1056,
            "byteOffset" : 1307540
        },
        {
            "buffer" : 0,
            "byteLength" : 504,
            "byteOffset" : 1308596
        },
        {
            "buffer" : 0,
            "byteLength" : 1056,
            "byteOffset" : 1309100
        },
        {
            "buffer" : 0,
            "byteLength" : 1056,
            "byteOffset" : 1310156
        },
        {
            "buffer" : 0,
            "byteLength" : 1056,
            "byteOffset" : 1311212
        },
        {
            "buffer" : 0,
            "byteLength" : 1056,
            "byteOffset" : 1312268
        },
        {
            "buffer" : 0,
            "byteLength" : 576,
            "byteOffset" : 1313324
        },
        {
            "buffer" : 0,
            "byteLength" : 576,
            "byteOffset" : 1313900
        },
        {
            "buffer" : 0,
            "byteLength" : 384,
            "byteOffset" : 1314476
        },
        {
            "buffer" : 0,
            "byteLength" : 168,
            "byteOffset" : 1314860
        },
        {
            "buffer" : 0,
            "byteLength" : 27168,
            "byteOffset" : 1315028
        },
        {
            "buffer" : 0,
            "byteLength" : 27168,
            "byteOffset" : 1342196
        },
        {
            "buffer" : 0,
            "byteLength" : 27168,
            "byteOffset" : 1369364
        },
        {
            "buffer" : 0,
            "byteLength" : 27168,
            "byteOffset" : 1396532
        },
        {
            "buffer" : 0,
            "byteLength" : 1056,
            "byteOffset" : 1423700
        },
        {
            "buffer" : 0,
            "byteLength" : 1056,
            "byteOffset" : 1424756
        }
    ],
    "buffers" : [
        {
            "byteLength" : 1425812,
            "uri" : "data:application/octet-stream;base64,"
        }
    ]
}
