# 3ds Max Wavefront OBJ Exporter v0.97b - (c)2007 guruware
# File Created: 19.03.2012 12:51:34

mtllib 14311_Straight_Leg_Console_Table-Ebony_v1_l1.mtl

#
# object Leg445
#

v  86.0731 -16.1717 -4.2832
v  80.8373 -16.1718 -4.2832
v  80.8373 -12.4782 -4.2832
v  86.0731 -12.4782 -4.2832
v  86.0465 -16.1414 67.5586
v  86.0465 -11.4102 67.5586
v  78.7536 -11.4102 67.5586
v  78.7536 -16.1414 67.5586
# 8 vertices

vn 0.0000 0.0000 -1.0000
vn 0.0000 0.0000 1.0000
vn 1.0000 0.0000 0.0004
vn -0.0000 0.9999 -0.0149
vn -0.9996 -0.0000 -0.0290
vn 0.0000 -1.0000 0.0004
# 6 vertex normals

vt 506.8271 -312.8008 -14.4270
vt 504.7079 -312.8008 -14.4270
vt 504.7079 -314.2958 -14.4270
vt 506.8271 -314.2958 -14.4270
vt 506.8163 -224.0616 14.6517
vt 506.8163 -222.1466 14.6517
vt 503.8644 -222.1466 14.6517
vt 503.8644 -224.0616 14.6517
vt 406.8467 -371.7851 -201.1575
vt 405.3517 -371.7851 -201.1575
vt 404.9194 -400.8637 -201.1468
vt 406.8344 -400.8638 -201.1468
vt 504.2868 -441.9574 46.3585
vt 502.1676 -441.9574 46.3585
vt 501.3242 -471.0361 46.7908
vt 504.2761 -471.0361 46.7908
vt 351.1230 -371.4637 -199.0383
vt 349.6280 -371.4637 -199.0383
vt 349.6403 -400.5424 -198.1949
vt 351.5553 -400.5424 -198.1949
vt 367.4179 -406.7915 44.8635
vt 365.2986 -406.7915 44.8635
vt 365.3094 -435.8702 44.8758
vt 368.2613 -435.8702 44.8758
# 24 texture coords

g Leg445
usemtl Ebony_mat
s 2
f 1/1/1 2/2/1 3/3/1 4/4/1 
s 4
f 5/5/2 6/6/2 7/7/2 8/8/2 
s 8
f 1/9/3 4/10/3 6/11/3 5/12/3 
s 16
f 4/13/4 3/14/4 7/15/4 6/16/4 
s 32
f 3/17/5 2/18/5 8/19/5 7/20/5 
s 64
f 2/21/6 1/22/6 5/23/6 8/24/6 
# 6 polygons

#
# object Leg446
#

v  86.0731 15.6881 -4.2832
v  80.8374 15.6881 -4.2832
v  80.8374 11.9945 -4.2832
v  86.0731 11.9945 -4.2832
v  86.0465 15.6577 67.5586
v  86.0465 10.9265 67.5586
v  78.7536 10.9265 67.5586
v  78.7536 15.6577 67.5586
# 8 vertices

vn 0.0000 0.0000 -1.0000
vn -0.0000 -0.0000 1.0000
vn 1.0000 0.0000 0.0004
vn 0.0000 -0.9999 -0.0149
vn -0.9996 -0.0000 -0.0290
vn -0.0000 1.0000 0.0004
# 6 vertex normals

vt 506.8271 -325.6964 -14.4270
vt 504.7079 -325.6964 -14.4270
vt 504.7079 -324.2014 -14.4270
vt 506.8271 -324.2014 -14.4270
vt 506.8163 -211.1906 14.6517
vt 506.8163 -213.1056 14.6517
vt 503.8644 -213.1056 14.6517
vt 503.8644 -211.1906 14.6517
vt 393.9511 -371.7851 -201.1575
vt 395.4461 -371.7851 -201.1575
vt 395.8784 -400.8637 -201.1468
vt 393.9634 -400.8637 -201.1468
vt 365.2986 -406.7915 56.2640
vt 367.4179 -406.7915 56.2640
vt 368.2613 -435.8702 55.8318
vt 365.3094 -435.8702 55.8318
vt 361.0286 -371.4637 -199.0383
vt 362.5236 -371.4637 -199.0383
vt 362.5113 -400.5424 -198.1949
vt 360.5963 -400.5424 -198.1949
vt 502.1676 -441.9574 57.7591
vt 504.2868 -441.9574 57.7591
vt 504.2761 -471.0361 57.7468
vt 501.3242 -471.0361 57.7468
# 24 texture coords

g Leg446
usemtl Ebony_mat
s 2
f 12/28/7 11/27/7 10/26/7 9/25/7 
s 4
f 16/32/8 15/31/8 14/30/8 13/29/8 
s 8
f 13/36/9 14/35/9 12/34/9 9/33/9 
s 16
f 14/40/10 15/39/10 11/38/10 12/37/10 
s 32
f 15/44/11 16/43/11 10/42/11 11/41/11 
s 64
f 16/48/12 13/47/12 9/46/12 10/45/12 
# 6 polygons

#
# object Leg447
#

v  -86.6494 -16.1717 -4.2832
v  -81.4137 -16.1717 -4.2832
v  -81.4137 -12.4782 -4.2832
v  -86.6494 -12.4782 -4.2832
v  -86.6229 -16.1414 67.5586
v  -86.6229 -11.4102 67.5586
v  -79.3299 -11.4102 67.5586
v  -79.3299 -16.1414 67.5586
# 8 vertices

vn -0.0000 -0.0000 -1.0000
vn 0.0000 0.0000 1.0000
vn -1.0000 -0.0000 0.0004
vn 0.0000 0.9999 -0.0149
vn -0.0000 0.9999 -0.0149
vn 0.9996 0.0000 -0.0290
vn -0.0000 -1.0000 0.0004
vn 0.0000 -1.0000 0.0004
# 8 vertex normals

vt 436.9159 -312.8008 -14.4270
vt 439.0351 -312.8008 -14.4270
vt 439.0351 -314.2958 -14.4270
vt 436.9159 -314.2958 -14.4270
vt 436.9266 -224.0616 14.6517
vt 436.9266 -222.1465 14.6517
vt 439.8785 -222.1465 14.6517
vt 439.8785 -224.0616 14.6517
vt 349.6281 -371.4637 -131.2463
vt 351.1230 -371.4637 -131.2463
vt 351.5553 -400.5424 -131.2570
vt 349.6403 -400.5424 -131.2570
vt 434.3755 -441.9574 46.3585
vt 436.4948 -441.9574 46.3585
vt 437.3382 -471.0360 46.7908
vt 434.3863 -471.0360 46.7908
vt 405.3517 -371.7851 -133.3655
vt 406.8467 -371.7851 -133.3655
vt 406.8344 -400.8638 -134.2089
vt 404.9194 -400.8638 -134.2089
vt 433.0907 -406.7915 44.8635
vt 435.2099 -406.7915 44.8635
vt 435.1991 -435.8702 44.8758
vt 432.2472 -435.8702 44.8758
# 24 texture coords

g Leg447
usemtl Ebony_mat
s 2
f 20/52/13 19/51/13 18/50/13 17/49/13 
s 4
f 24/56/14 23/55/14 22/54/14 21/53/14 
s 8
f 21/60/15 22/59/15 20/58/15 17/57/15 
s 16
f 22/64/17 23/63/17 19/62/16 20/61/16 
s 32
f 23/68/18 24/67/18 18/66/18 19/65/18 
s 64
f 24/72/20 21/71/20 17/70/19 18/69/19 
# 6 polygons

#
# object Leg448
#

v  -86.6494 15.6881 -4.2832
v  -81.4137 15.6881 -4.2832
v  -81.4137 11.9945 -4.2832
v  -86.6494 11.9945 -4.2832
v  -86.6229 15.6577 67.5586
v  -86.6229 10.9265 67.5586
v  -79.3299 10.9265 67.5586
v  -79.3299 15.6577 67.5586
# 8 vertices

vn 0.0000 0.0000 -1.0000
vn 0.0000 -0.0000 1.0000
vn -1.0000 -0.0000 0.0004
vn 0.0000 -0.9999 -0.0149
vn 0.9996 0.0000 -0.0290
vn -0.0000 1.0000 0.0004
# 6 vertex normals

vt 436.9158 -325.6964 -14.4270
vt 439.0351 -325.6964 -14.4270
vt 439.0351 -324.2014 -14.4270
vt 436.9158 -324.2014 -14.4270
vt 436.9266 -211.1905 14.6517
vt 436.9266 -213.1056 14.6517
vt 439.8785 -213.1056 14.6517
vt 439.8785 -211.1905 14.6517
vt 362.5236 -371.4637 -131.2463
vt 361.0286 -371.4637 -131.2463
vt 360.5963 -400.5424 -131.2570
vt 362.5113 -400.5424 -131.2570
vt 435.2099 -406.7915 56.2641
vt 433.0907 -406.7915 56.2641
vt 432.2473 -435.8702 55.8318
vt 435.1991 -435.8702 55.8318
vt 395.4461 -371.7851 -133.3655
vt 393.9511 -371.7851 -133.3655
vt 393.9634 -400.8638 -134.2089
vt 395.8784 -400.8638 -134.2089
vt 436.4948 -441.9574 57.7591
vt 434.3755 -441.9574 57.7591
vt 434.3863 -471.0360 57.7468
vt 437.3382 -471.0360 57.7468
# 24 texture coords

g Leg448
usemtl Ebony_mat
s 2
f 25/73/21 26/74/21 27/75/21 28/76/21 
s 4
f 29/77/22 30/78/22 31/79/22 32/80/22 
s 8
f 25/81/23 28/82/23 30/83/23 29/84/23 
s 16
f 28/85/24 27/86/24 31/87/24 30/88/24 
s 32
f 27/89/25 26/90/25 32/91/25 31/92/25 
s 64
f 26/93/26 25/94/26 29/95/26 32/96/26 
# 6 polygons

#
# object Box2327
#

v  85.5809 -15.6763 61.9151
v  84.0071 -15.6763 61.9151
v  84.0071 15.2139 61.9151
v  85.5809 15.2139 61.9151
v  85.5809 -15.6763 67.5586
v  85.5809 15.2139 67.5586
v  84.0071 15.2139 67.5586
v  84.0071 -15.6763 67.5586
# 8 vertices

vn 0.0000 0.0000 -1.0000
vn 0.0000 0.0000 1.0000
vn 1.0000 0.0000 0.0000
vn -0.0000 1.0000 0.0000
vn -1.0000 -0.0000 0.0000
vn 0.0000 -1.0000 0.0000
# 6 vertex normals

vt 384.4342 535.3704 12.3674
vt 384.4342 534.7334 12.3674
vt 396.9373 534.7334 12.3674
vt 396.9373 535.3704 12.3674
vt 506.6278 -223.8733 14.6517
vt 506.6278 -211.3702 14.6517
vt 505.9908 -211.3702 14.6517
vt 505.9908 -223.8733 14.6517
vt 295.3062 322.0447 -200.9582
vt 282.8031 322.0447 -200.9582
vt 282.8031 319.7605 -200.9582
vt 295.3062 319.7605 -200.9582
vt 472.0101 -496.3539 57.5671
vt 471.3730 -496.3539 57.5671
vt 471.3730 -498.6382 57.5671
vt 472.0101 -498.6382 57.5671
vt 293.3022 -325.5044 -200.3212
vt 293.3022 -313.0013 -200.3212
vt 291.0179 -313.0013 -200.3212
vt 291.0179 -325.5044 -200.3212
vt 207.1927 -59.5293 45.0640
vt 206.5557 -59.5293 45.0640
vt 206.5557 -61.8136 45.0640
vt 207.1927 -61.8136 45.0640
# 24 texture coords

g Box2327
usemtl Ebony_mat
s 2
f 33/97/27 34/98/27 35/99/27 36/100/27 
s 4
f 37/101/28 38/102/28 39/103/28 40/104/28 
s 8
f 33/105/29 36/106/29 38/107/29 37/108/29 
s 16
f 36/109/30 35/110/30 39/111/30 38/112/30 
s 32
f 35/113/31 34/114/31 40/115/31 39/116/31 
s 64
f 34/117/32 33/118/32 37/119/32 40/120/32 
# 6 polygons

#
# object Box2328
#

v  85.5408 13.4779 61.9151
v  -86.0459 13.4779 61.9151
v  -86.0459 15.2068 61.9151
v  85.5408 15.2069 61.9151
v  85.5408 13.4779 67.5586
v  85.5408 15.2069 67.5586
v  -86.0459 15.2068 67.5586
v  -86.0459 13.4779 67.5586
# 8 vertices

vn 0.0000 0.0000 -1.0000
vn 0.0000 0.0000 1.0000
vn 1.0000 0.0000 0.0000
vn -0.0000 1.0000 -0.0000
vn -1.0000 -0.0000 -0.0000
vn 0.0000 -1.0000 0.0000
# 6 vertex normals

vt 506.6116 -324.8018 12.3674
vt 437.1602 -324.8018 12.3674
vt 437.1602 -325.5016 12.3674
vt 506.6116 -325.5016 12.3674
vt 506.6116 -212.0729 14.6517
vt 506.6116 -211.3731 14.6517
vt 437.1602 -211.3730 14.6517
vt 437.1602 -212.0728 14.6517
vt 293.3022 -212.0728 -200.9420
vt 293.3022 -211.3730 -200.9420
vt 291.0179 -211.3730 -200.9420
vt 291.0179 -212.0728 -200.9420
vt 471.9938 -496.3539 57.5643
vt 402.5424 -496.3539 57.5643
vt 402.5424 -498.6381 57.5643
vt 471.9938 -498.6382 57.5643
vt 293.3022 -325.5016 -131.4906
vt 293.3022 -324.8018 -131.4906
vt 291.0179 -324.8018 -131.4906
vt 291.0179 -325.5016 -131.4906
vt 276.0234 -59.5293 56.8645
vt 206.5720 -59.5293 56.8645
vt 206.5720 -61.8136 56.8645
vt 276.0234 -61.8136 56.8645
# 24 texture coords

g Box2328
usemtl Ebony_mat
s 2
f 41/121/33 42/122/33 43/123/33 44/124/33 
s 4
f 45/125/34 46/126/34 47/127/34 48/128/34 
s 8
f 41/129/35 44/130/35 46/131/35 45/132/35 
s 16
f 44/133/36 43/134/36 47/135/36 46/136/36 
s 32
f 43/137/37 42/138/37 48/139/37 47/140/37 
s 64
f 42/141/38 41/142/38 45/143/38 48/144/38 
# 6 polygons

#
# object Box2329
#

v  85.5408 -15.6763 61.9151
v  -86.0459 -15.6763 61.9151
v  -86.0459 -13.9474 61.9151
v  85.5408 -13.9474 61.9151
v  85.5408 -15.6763 67.5586
v  85.5408 -13.9474 67.5586
v  -86.0459 -13.9474 67.5586
v  -86.0459 -15.6763 67.5586
# 8 vertices

vn 0.0000 0.0000 -1.0000
vn 0.0000 0.0000 1.0000
vn 1.0000 0.0000 0.0000
vn -0.0000 1.0000 0.0000
vn -1.0000 -0.0000 -0.0000
vn 0.0000 -1.0000 0.0000
# 6 vertex normals

vt 506.6116 -313.0013 12.3674
vt 437.1602 -313.0013 12.3674
vt 437.1602 -313.7011 12.3674
vt 506.6116 -313.7011 12.3674
vt 506.6116 -223.8733 14.6517
vt 506.6116 -223.1735 14.6517
vt 437.1602 -223.1735 14.6517
vt 437.1602 -223.8733 14.6517
vt 293.3022 -223.8733 -200.9420
vt 293.3022 -223.1735 -200.9420
vt 291.0179 -223.1735 -200.9420
vt 291.0179 -223.8733 -200.9420
vt 471.9938 -496.3539 45.7638
vt 402.5424 -496.3539 45.7638
vt 402.5424 -498.6381 45.7638
vt 471.9938 -498.6382 45.7638
vt 293.3022 -313.7011 -131.4906
vt 293.3022 -313.0013 -131.4906
vt 291.0179 -313.0013 -131.4906
vt 291.0179 -313.7011 -131.4906
vt 276.0234 -59.5293 45.0640
vt 206.5720 -59.5293 45.0640
vt 206.5720 -61.8136 45.0640
vt 276.0234 -61.8136 45.0640
# 24 texture coords

g Box2329
usemtl Ebony_mat
s 2
f 49/145/39 50/146/39 51/147/39 52/148/39 
s 4
f 53/149/40 54/150/40 55/151/40 56/152/40 
s 8
f 49/153/41 52/154/41 54/155/41 53/156/41 
s 16
f 52/157/42 51/158/42 55/159/42 54/160/42 
s 32
f 51/161/43 50/162/43 56/163/43 55/164/43 
s 64
f 50/165/44 49/166/44 53/167/44 56/168/44 
# 6 polygons

#
# object Box2330
#

v  -84.5954 -15.6763 61.9151
v  -86.1691 -15.6763 61.9151
v  -86.1692 15.2138 61.9151
v  -84.5954 15.2138 61.9151
v  -84.5954 -15.6763 67.5586
v  -84.5954 15.2138 67.5586
v  -86.1692 15.2138 67.5586
v  -86.1692 -15.6763 67.5586
# 8 vertices

vn 0.0000 0.0000 -1.0000
vn 0.0000 0.0000 1.0000
vn 1.0000 0.0000 0.0000
vn -0.0000 1.0000 0.0000
vn -1.0000 -0.0000 -0.0000
vn 0.0000 -1.0000 0.0000
# 6 vertex normals

vt 384.4342 466.4899 12.3674
vt 384.4342 465.8529 12.3674
vt 396.9373 465.8529 12.3674
vt 396.9373 466.4899 12.3674
vt 437.7473 -223.8733 14.6517
vt 437.7473 -211.3702 14.6517
vt 437.1104 -211.3702 14.6517
vt 437.1104 -223.8733 14.6517
vt 295.3062 322.0447 -132.0777
vt 282.8030 322.0447 -132.0777
vt 282.8030 319.7605 -132.0777
vt 295.3062 319.7605 -132.0777
vt 403.1296 -496.3539 57.5671
vt 402.4926 -496.3539 57.5671
vt 402.4926 -498.6381 57.5671
vt 403.1296 -498.6381 57.5671
vt 293.3022 -325.5044 -131.4408
vt 293.3022 -313.0013 -131.4408
vt 291.0179 -313.0013 -131.4408
vt 291.0179 -325.5044 -131.4408
vt 276.0732 -59.5293 45.0640
vt 275.4362 -59.5293 45.0640
vt 275.4362 -61.8136 45.0640
vt 276.0732 -61.8136 45.0640
# 24 texture coords

g Box2330
usemtl Ebony_mat
s 2
f 57/169/45 58/170/45 59/171/45 60/172/45 
s 4
f 61/173/46 62/174/46 63/175/46 64/176/46 
s 8
f 57/177/47 60/178/47 62/179/47 61/180/47 
s 16
f 60/181/48 59/182/48 63/183/48 62/184/48 
s 32
f 59/185/49 58/186/49 64/187/49 63/188/49 
s 64
f 58/189/50 57/190/50 61/191/50 64/192/50 
# 6 polygons

#
# object Box2331
#

v  88.9416 -18.5295 67.4493
v  -88.9416 -18.5295 67.4493
v  -88.9416 18.5295 67.4493
v  88.9416 18.5295 67.4493
v  88.9416 -18.5295 69.4741
v  88.9416 18.5295 69.4741
v  -88.9416 18.5295 69.4741
v  -88.9416 -18.5295 69.4741
# 8 vertices

vn 0.0000 0.0000 -1.0000
vn 0.0000 0.0000 1.0000
vn 1.0000 0.0000 0.0000
vn -0.0000 1.0000 0.0000
vn -1.0000 -0.0000 0.0000
vn 0.0000 -1.0000 0.0000
# 6 vertex normals

vt 480.6207 518.0284 14.6074
vt 480.6207 446.0284 14.6074
vt 495.6207 446.0284 14.6074
vt 495.6207 518.0284 14.6074
vt 138.0419 382.1557 15.4270
vt 123.0419 382.1557 15.4270
vt 123.0419 310.1557 15.4270
vt 138.0419 310.1557 15.4270
vt 291.0621 -225.0282 -202.3185
vt 291.0621 -210.0282 -202.3185
vt 290.2426 -210.0282 -202.3185
vt 290.2426 -225.0282 -202.3185
vt 291.0621 -471.2559 58.9091
vt 291.0621 -399.2559 58.9092
vt 290.2426 -399.2559 58.9092
vt 290.2426 -471.2559 58.9091
vt 291.0621 -326.8465 -130.3185
vt 291.0621 -311.8465 -130.3185
vt 290.2426 -311.8465 -130.3185
vt 290.2426 -326.8465 -130.3185
vt 277.1954 -61.7694 43.9092
vt 205.1954 -61.7694 43.9091
vt 205.1954 -62.5889 43.9091
vt 277.1954 -62.5889 43.9092
# 24 texture coords

g Box2331
usemtl Ebony_mat
s 2
f 65/193/51 66/194/51 67/195/51 68/196/51 
s 4
f 69/197/52 70/198/52 71/199/52 72/200/52 
s 8
f 65/201/53 68/202/53 70/203/53 69/204/53 
s 16
f 68/205/54 67/206/54 71/207/54 70/208/54 
s 32
f 67/209/55 66/210/55 72/211/55 71/212/55 
s 64
f 66/213/56 65/214/56 69/215/56 72/216/56 
# 6 polygons

