{
  "accessors": [
    {
      "bufferView": 2,
      "componentType": 5126,
      "count": 13000,
      "max": [
        37.613674163818359,
        85.664512634277344,
        33.072380065917969
      ],
      "min": [
        -31.473546981811523,
        10.65815258026123,
        -32.211906433105469
      ],
      "type": "VEC3"
    },
    {
      "bufferView": 2,
      "byteOffset": 156000,
      "componentType": 5126,
      "count": 13000,
      "max": [
        0.99999666213989258,
        0.99385899305343628,
        0.99974709749221802
      ],
      "min": [
        -0.99969840049743652,
        -0.99997574090957642,
        -0.99941003322601318
      ],
      "type": "VEC3"
    },
    {
      "bufferView": 1,
      "componentType": 5126,
      "count": 13000,
      "max": [
        0.99851024150848389,
        -0.0014897584915161133
      ],
      "min": [
        0.0014897584915161133,
        -0.99851024150848389
      ],
      "type": "VEC2"
    },
    {
      "bufferView": 0,
      "componentType": 5125,
      "count": 19500,
      "max": [
        12999
      ],
      "min": [
        0
      ],
      "type": "SCALAR"
    },
    {
      "bufferView": 2,
      "byteOffset": 312000,
      "componentType": 5126,
      "count": 10496,
      "max": [
        35.185272216796875,
        83.049415588378906,
        30.342910766601562
      ],
      "min": [
        -29.192281723022461,
        0,
        -29.847225189208984
      ],
      "type": "VEC3"
    },
    {
      "bufferView": 2,
      "byteOffset": 437952,
      "componentType": 5126,
      "count": 10496,
      "max": [
        0.99948364496231079,
        1,
        0.99979996681213379
      ],
      "min": [
        -0.99938029050827026,
        -0.99960190057754517,
        -0.99961835145950317
      ],
      "type": "VEC3"
    },
    {
      "bufferView": 1,
      "byteOffset": 104000,
      "componentType": 5126,
      "count": 10496,
      "max": [
        10.245877265930176,
        10.44139289855957
      ],
      "min": [
        -9.2458772659301758,
        -9.4338169097900391
      ],
      "type": "VEC2"
    },
    {
      "bufferView": 0,
      "byteOffset": 78000,
      "componentType": 5125,
      "count": 19821,
      "max": [
        10495
      ],
      "min": [
        0
      ],
      "type": "SCALAR"
    }
  ],
  "asset": {
    "extras": {
      "author": "Hora Timer (https://sketchfab.com/horatimer)",
      "license": "CC-BY-4.0 (http://creativecommons.org/licenses/by/4.0/)",
      "source": "https://sketchfab.com/3d-models/arvore-tree-94823b75b39144e7a1771ae3f93115fe",
      "title": "Árvore Tree"
    },
    "generator": "Sketchfab-8.64.0",
    "version": "2.0"
  },
  "bufferViews": [
    {
      "buffer": 0,
      "byteLength": 157284,
      "byteOffset": 0,
      "name": "floatBufferViews",
      "target": 34963
    },
    {
      "buffer": 0,
      "byteLength": 187968,
      "byteOffset": 157284,
      "byteStride": 8,
      "name": "floatBufferViews",
      "target": 34962
    },
    {
      "buffer": 0,
      "byteLength": 563904,
      "byteOffset": 345252,
      "byteStride": 12,
      "name": "floatBufferViews",
      "target": 34962
    }
  ],
  "buffers": [
    {
      "byteLength": 909156,
      "uri": "scene.bin"
    }
  ],
  "extensionsUsed": [
    "KHR_materials_unlit"
  ],
  "images": [
    {
      "uri": "textures/Folhas01_baseColor.png"
    },
    {
      "uri": "textures/Tronco_baseColor.png"
    }
  ],
  "materials": [
    {
      "doubleSided": true,
      "extensions": {
        "KHR_materials_unlit": {}
      },
      "name": "Folhas01",
      "pbrMetallicRoughness": {
        "baseColorFactor": [
          1,
          1,
          1,
          1
        ],
        "baseColorTexture": {
          "index": 0,
          "texCoord": 0
        },
        "metallicFactor": 0,
        "roughnessFactor": 1
      }
    },
    {
      "doubleSided": true,
      "emissiveFactor": [
        0,
        0,
        0
      ],
      "extensions": {
        "KHR_materials_unlit": {}
      },
      "name": "Tronco",
      "pbrMetallicRoughness": {
        "baseColorFactor": [
          1,
          1,
          1,
          1
        ],
        "baseColorTexture": {
          "index": 1,
          "texCoord": 0
        },
        "metallicFactor": 0,
        "roughnessFactor": 1
      }
    }
  ],
  "meshes": [
    {
      "name": "Folhas01_Folhas01_0",
      "primitives": [
        {
          "attributes": {
            "NORMAL": 1,
            "POSITION": 0,
            "TEXCOORD_0": 2
          },
          "indices": 3,
          "material": 0,
          "mode": 4
        }
      ]
    },
    {
      "name": "Tronco_Tronco_0",
      "primitives": [
        {
          "attributes": {
            "NORMAL": 5,
            "POSITION": 4,
            "TEXCOORD_0": 6
          },
          "indices": 7,
          "material": 1,
          "mode": 4
        }
      ]
    }
  ],
  "nodes": [
    {
      "children": [
        1
      ],
      "name": "RootNode (gltf orientation matrix)",
      "rotation": [
        -0.70710678118654746,
        -0,
        -0,
        0.70710678118654757
      ]
    },
    {
      "children": [
        2
      ],
      "name": "RootNode (model correction matrix)"
    },
    {
      "children": [
        3
      ],
      "matrix": [
        1,
        0,
        0,
        0,
        0,
        0,
        1,
        0,
        0,
        -1,
        0,
        0,
        0,
        0,
        0,
        1
      ],
      "name": "ba0b201f86904259bc8f958d9d698bb8.fbx"
    },
    {
      "children": [
        4,
        6
      ],
      "name": "RootNode"
    },
    {
      "children": [
        5
      ],
      "matrix": [
        100,
        0,
        0,
        0,
        0,
        99.999999999998664,
        1.6292067073209114e-05,
        0,
        0,
        -1.6292067073209114e-05,
        99.999999999998664,
        0,
        0,
        0,
        0,
        1
      ],
      "name": "Folhas01"
    },
    {
      "mesh": 0,
      "name": "Folhas01_Folhas01_0"
    },
    {
      "children": [
        7
      ],
      "matrix": [
        100,
        0,
        0,
        0,
        0,
        99.999999999998664,
        1.6292067073209114e-05,
        0,
        0,
        -1.6292067073209114e-05,
        99.999999999998664,
        0,
        0,
        0,
        0,
        1
      ],
      "name": "Tronco"
    },
    {
      "mesh": 1,
      "name": "Tronco_Tronco_0"
    }
  ],
  "samplers": [
    {
      "magFilter": 9729,
      "minFilter": 9987,
      "wrapS": 10497,
      "wrapT": 10497
    }
  ],
  "scene": 0,
  "scenes": [
    {
      "name": "OSG_Scene",
      "nodes": [
        0
      ]
    }
  ],
  "textures": [
    {
      "sampler": 0,
      "source": 0
    },
    {
      "sampler": 0,
      "source": 1
    }
  ]
}

