{
  "accessors": [
    {
      "bufferView": 2,
      "componentType": 5126,
      "count": 608,
      "max": [
        1.6345844268798828,
        1.4873334169387817,
        1.5205106735229492
      ],
      "min": [
        -1.6345844268798828,
        -10.49964714050293,
        -1.7486581802368164
      ],
      "type": "VEC3"
    },
    {
      "bufferView": 2,
      "byteOffset": 7296,
      "componentType": 5126,
      "count": 608,
      "max": [
        0.99993306398391724,
        1,
        0.99986088275909424
      ],
      "min": [
        -0.99993300437927246,
        -1,
        -0.99986100196838379
      ],
      "type": "VEC3"
    },
    {
      "bufferView": 1,
      "componentType": 5126,
      "count": 608,
      "max": [
        0.93100923299789429,
        0.99800789356231689
      ],
      "min": [
        0.0018583020428195596,
        0.0019920321647077799
      ],
      "type": "VEC2"
    },
    {
      "bufferView": 0,
      "componentType": 5125,
      "count": 1800,
      "max": [
        607
      ],
      "min": [
        0
      ],
      "type": "SCALAR"
    },
    {
      "bufferView": 2,
      "byteOffset": 14592,
      "componentType": 5126,
      "count": 482,
      "max": [
        1,
        1,
        1.0000001192092896
      ],
      "min": [
        -1.0000002384185791,
        -1,
        -1.0000004768371582
      ],
      "type": "VEC3"
    },
    {
      "bufferView": 2,
      "byteOffset": 20376,
      "componentType": 5126,
      "count": 482,
      "max": [
        1,
        1,
        1
      ],
      "min": [
        -1,
        -1,
        -1
      ],
      "type": "VEC3"
    },
    {
      "bufferView": 1,
      "byteOffset": 4864,
      "componentType": 5126,
      "count": 482,
      "max": [
        0.97351527214050293,
        0.99800801277160645
      ],
      "min": [
        0.0019431442487984896,
        0.0019920319318771362
      ],
      "type": "VEC2"
    },
    {
      "bufferView": 0,
      "byteOffset": 7200,
      "componentType": 5125,
      "count": 2280,
      "max": [
        481
      ],
      "min": [
        0
      ],
      "type": "SCALAR"
    },
    {
      "bufferView": 2,
      "byteOffset": 26160,
      "componentType": 5126,
      "count": 482,
      "max": [
        1,
        1,
        1.0000001192092896
      ],
      "min": [
        -1.0000002384185791,
        -1,
        -1.0000004768371582
      ],
      "type": "VEC3"
    },
    {
      "bufferView": 2,
      "byteOffset": 31944,
      "componentType": 5126,
      "count": 482,
      "max": [
        1,
        1,
        1
      ],
      "min": [
        -1,
        -1,
        -1
      ],
      "type": "VEC3"
    },
    {
      "bufferView": 1,
      "byteOffset": 8720,
      "componentType": 5126,
      "count": 482,
      "max": [
        0.97351527214050293,
        0.99800801277160645
      ],
      "min": [
        0.0019431442487984896,
        0.0019920319318771362
      ],
      "type": "VEC2"
    },
    {
      "bufferView": 0,
      "byteOffset": 16320,
      "componentType": 5125,
      "count": 2280,
      "max": [
        481
      ],
      "min": [
        0
      ],
      "type": "SCALAR"
    }
  ],
  "asset": {
    "extras": {
      "author": "coleggwentgames (https://sketchfab.com/coleggwentgames)",
      "license": "CC-BY-4.0 (http://creativecommons.org/licenses/by/4.0/)",
      "source": "https://sketchfab.com/3d-models/torch-9ddd0722f9f54671939db64a24c8a6c4",
      "title": "Torch"
    },
    "generator": "Sketchfab-7.46.0",
    "version": "2.0"
  },
  "bufferViews": [
    {
      "buffer": 0,
      "byteLength": 25440,
      "byteOffset": 0,
      "name": "floatBufferViews",
      "target": 34963
    },
    {
      "buffer": 0,
      "byteLength": 12576,
      "byteOffset": 25440,
      "byteStride": 8,
      "name": "floatBufferViews",
      "target": 34962
    },
    {
      "buffer": 0,
      "byteLength": 37728,
      "byteOffset": 38016,
      "byteStride": 12,
      "name": "floatBufferViews",
      "target": 34962
    }
  ],
  "buffers": [
    {
      "byteLength": 75744,
      "uri": "scene.bin"
    }
  ],
  "images": [
    {
      "uri": "textures/defaultPolygonShader_baseColor.jpeg"
    }
  ],
  "materials": [
    {
      "doubleSided": true,
      "emissiveFactor": [
        0,
        0,
        0
      ],
      "name": "defaultPolygonShader",
      "pbrMetallicRoughness": {
        "baseColorFactor": [
          1,
          1,
          1,
          1
        ],
        "baseColorTexture": {
          "index": 0,
          "texCoord": 0
        },
        "metallicFactor": 1,
        "roughnessFactor": 0.59999999999999998
      }
    }
  ],
  "meshes": [
    {
      "name": "pCylinder1_defaultPolygonShader_0",
      "primitives": [
        {
          "attributes": {
            "NORMAL": 1,
            "POSITION": 0,
            "TEXCOORD_0": 2
          },
          "indices": 3,
          "material": 0,
          "mode": 4
        }
      ]
    },
    {
      "name": "pSphere1_defaultPolygonShader_0",
      "primitives": [
        {
          "attributes": {
            "NORMAL": 5,
            "POSITION": 4,
            "TEXCOORD_0": 6
          },
          "indices": 7,
          "material": 0,
          "mode": 4
        }
      ]
    },
    {
      "name": "pSphere2_defaultPolygonShader_0",
      "primitives": [
        {
          "attributes": {
            "NORMAL": 9,
            "POSITION": 8,
            "TEXCOORD_0": 10
          },
          "indices": 11,
          "material": 0,
          "mode": 4
        }
      ]
    }
  ],
  "nodes": [
    {
      "children": [
        1
      ],
      "name": "RootNode (gltf orientation matrix)",
      "rotation": [
        -0.70710678118654746,
        -0,
        -0,
        0.70710678118654757
      ]
    },
    {
      "children": [
        2
      ],
      "name": "RootNode (model correction matrix)"
    },
    {
      "children": [
        3
      ],
      "matrix": [
        1,
        0,
        0,
        0,
        0,
        0,
        1,
        0,
        0,
        -1,
        0,
        0,
        0,
        0,
        0,
        1
      ],
      "name": "3c6eb11759ca4ff8bf463162c5217e01.fbx"
    },
    {
      "children": [
        4,
        6,
        8
      ],
      "name": "RootNode"
    },
    {
      "children": [
        5
      ],
      "matrix": [
        45.799213409423828,
        0,
        0,
        0,
        0,
        -45.795911708359078,
        0.54992701527413945,
        0,
        0,
        -0.54992701527413945,
        -45.795911708359078,
        0,
        0,
        0,
        0,
        1
      ],
      "name": "pCylinder1"
    },
    {
      "mesh": 0,
      "name": "pCylinder1_defaultPolygonShader_0"
    },
    {
      "children": [
        7
      ],
      "matrix": [
        40.45465087890625,
        0,
        0,
        0,
        0,
        1.0634912851888948e-14,
        -47.895389556884766,
        0,
        0,
        44.097160339355469,
        9.7915365458679446e-15,
        0,
        0,
        261.30401611328125,
        8.8091201782226562,
        1
      ],
      "name": "pSphere1"
    },
    {
      "mesh": 1,
      "name": "pSphere1_defaultPolygonShader_0"
    },
    {
      "children": [
        9
      ],
      "matrix": [
        19.274667739868164,
        0,
        0,
        0,
        0,
        5.0670167355286368e-15,
        -22.819814682006836,
        0,
        0,
        21.01014518737793,
        4.6651893875488803e-15,
        0,
        0,
        261.30401611328125,
        37.756717681884766,
        1
      ],
      "name": "pSphere2"
    },
    {
      "mesh": 2,
      "name": "pSphere2_defaultPolygonShader_0"
    }
  ],
  "samplers": [
    {
      "magFilter": 9729,
      "minFilter": 9987,
      "wrapS": 10497,
      "wrapT": 10497
    }
  ],
  "scene": 0,
  "scenes": [
    {
      "name": "OSG_Scene",
      "nodes": [
        0
      ]
    }
  ],
  "textures": [
    {
      "sampler": 0,
      "source": 0
    }
  ]
}

