{
  "accessors": [
    {
      "bufferView": 2,
      "componentType": 5126,
      "count": 474,
      "max": [
        21.482450485229492,
        28.690000534057617,
        15.733409881591797
      ],
      "min": [
        -21.25221061706543,
        -29.108419418334961,
        -0
      ],
      "type": "VEC3"
    },
    {
      "bufferView": 2,
      "byteOffset": 5688,
      "componentType": 5126,
      "count": 474,
      "max": [
        1,
        1,
        1
      ],
      "min": [
        -1,
        -1,
        -1
      ],
      "type": "VEC3"
    },
    {
      "bufferView": 3,
      "componentType": 5126,
      "count": 474,
      "max": [
        1,
        1,
        1,
        1
      ],
      "min": [
        -1,
        -1,
        -1,
        1
      ],
      "type": "VEC4"
    },
    {
      "bufferView": 1,
      "componentType": 5126,
      "count": 474,
      "max": [
        1.4537700414657593,
        1.4537700414657593
      ],
      "min": [
        -0.45377001166343689,
        -0.45377001166343689
      ],
      "type": "VEC2"
    },
    {
      "bufferView": 0,
      "componentType": 5125,
      "count": 1008,
      "max": [
        473
      ],
      "min": [
        0
      ],
      "type": "SCALAR"
    },
    {
      "bufferView": 2,
      "byteOffset": 11376,
      "componentType": 5126,
      "count": 332,
      "max": [
        1,
        1,
        2
      ],
      "min": [
        -1,
        -1,
        0
      ],
      "type": "VEC3"
    },
    {
      "bufferView": 2,
      "byteOffset": 15360,
      "componentType": 5126,
      "count": 332,
      "max": [
        0.99355179071426392,
        0.99355179071426392,
        0.99355179071426392
      ],
      "min": [
        -0.99355179071426392,
        -0.99355179071426392,
        -0.99355179071426392
      ],
      "type": "VEC3"
    },
    {
      "bufferView": 3,
      "byteOffset": 7584,
      "componentType": 5126,
      "count": 332,
      "max": [
        0.99709606170654297,
        0.99709582328796387,
        0.80897527933120728,
        1
      ],
      "min": [
        -0.99709606170654297,
        -0.99712663888931274,
        -0.80897527933120728,
        1
      ],
      "type": "VEC4"
    },
    {
      "bufferView": 1,
      "byteOffset": 3792,
      "componentType": 5126,
      "count": 332,
      "max": [
        1,
        1
      ],
      "min": [
        0,
        0
      ],
      "type": "VEC2"
    },
    {
      "bufferView": 0,
      "byteOffset": 4032,
      "componentType": 5125,
      "count": 1284,
      "max": [
        331
      ],
      "min": [
        0
      ],
      "type": "SCALAR"
    },
    {
      "bufferView": 2,
      "byteOffset": 19344,
      "componentType": 5126,
      "count": 147,
      "max": [
        1,
        1,
        2
      ],
      "min": [
        -1,
        -1,
        0
      ],
      "type": "VEC3"
    },
    {
      "bufferView": 2,
      "byteOffset": 21108,
      "componentType": 5126,
      "count": 147,
      "max": [
        0.98306548595428467,
        0.98306548595428467,
        0.98306548595428467
      ],
      "min": [
        -0.98306548595428467,
        -0.98306548595428467,
        -0.98306548595428467
      ],
      "type": "VEC3"
    },
    {
      "bufferView": 3,
      "byteOffset": 12896,
      "componentType": 5126,
      "count": 147,
      "max": [
        0.85339730978012085,
        0.99258369207382202,
        0.82900732755661011,
        1
      ],
      "min": [
        -0.79434603452682495,
        -0.86628490686416626,
        -0.99258369207382202,
        1
      ],
      "type": "VEC4"
    },
    {
      "bufferView": 1,
      "byteOffset": 6448,
      "componentType": 5126,
      "count": 147,
      "max": [
        1,
        1
      ],
      "min": [
        0,
        0
      ],
      "type": "VEC2"
    },
    {
      "bufferView": 0,
      "byteOffset": 9168,
      "componentType": 5125,
      "count": 564,
      "max": [
        146
      ],
      "min": [
        0
      ],
      "type": "SCALAR"
    },
    {
      "bufferView": 2,
      "byteOffset": 22872,
      "componentType": 5126,
      "count": 147,
      "max": [
        1,
        1,
        2
      ],
      "min": [
        -1,
        -1,
        0
      ],
      "type": "VEC3"
    },
    {
      "bufferView": 2,
      "byteOffset": 24636,
      "componentType": 5126,
      "count": 147,
      "max": [
        0.98306548595428467,
        0.98306548595428467,
        0.98306548595428467
      ],
      "min": [
        -0.98306548595428467,
        -0.98306548595428467,
        -0.98306548595428467
      ],
      "type": "VEC3"
    },
    {
      "bufferView": 3,
      "byteOffset": 15248,
      "componentType": 5126,
      "count": 147,
      "max": [
        0.85339730978012085,
        0.99258369207382202,
        0.82900732755661011,
        1
      ],
      "min": [
        -0.79434603452682495,
        -0.86628490686416626,
        -0.99258369207382202,
        1
      ],
      "type": "VEC4"
    },
    {
      "bufferView": 1,
      "byteOffset": 7624,
      "componentType": 5126,
      "count": 147,
      "max": [
        1,
        1
      ],
      "min": [
        0,
        0
      ],
      "type": "VEC2"
    },
    {
      "bufferView": 0,
      "byteOffset": 11424,
      "componentType": 5125,
      "count": 564,
      "max": [
        146
      ],
      "min": [
        0
      ],
      "type": "SCALAR"
    },
    {
      "bufferView": 2,
      "byteOffset": 26400,
      "componentType": 5126,
      "count": 147,
      "max": [
        1,
        1,
        2
      ],
      "min": [
        -1,
        -1,
        0
      ],
      "type": "VEC3"
    },
    {
      "bufferView": 2,
      "byteOffset": 28164,
      "componentType": 5126,
      "count": 147,
      "max": [
        0.98306548595428467,
        0.98306548595428467,
        0.98306548595428467
      ],
      "min": [
        -0.98306548595428467,
        -0.98306548595428467,
        -0.98306548595428467
      ],
      "type": "VEC3"
    },
    {
      "bufferView": 3,
      "byteOffset": 17600,
      "componentType": 5126,
      "count": 147,
      "max": [
        0.85339730978012085,
        0.99258369207382202,
        0.82900732755661011,
        1
      ],
      "min": [
        -0.79434603452682495,
        -0.86628490686416626,
        -0.99258369207382202,
        1
      ],
      "type": "VEC4"
    },
    {
      "bufferView": 1,
      "byteOffset": 8800,
      "componentType": 5126,
      "count": 147,
      "max": [
        1,
        1
      ],
      "min": [
        0,
        0
      ],
      "type": "VEC2"
    },
    {
      "bufferView": 0,
      "byteOffset": 13680,
      "componentType": 5125,
      "count": 564,
      "max": [
        146
      ],
      "min": [
        0
      ],
      "type": "SCALAR"
    },
    {
      "bufferView": 2,
      "byteOffset": 29928,
      "componentType": 5126,
      "count": 147,
      "max": [
        1,
        1,
        2
      ],
      "min": [
        -1,
        -1,
        0
      ],
      "type": "VEC3"
    },
    {
      "bufferView": 2,
      "byteOffset": 31692,
      "componentType": 5126,
      "count": 147,
      "max": [
        0.98306548595428467,
        0.98306548595428467,
        0.98306548595428467
      ],
      "min": [
        -0.98306548595428467,
        -0.98306548595428467,
        -0.98306548595428467
      ],
      "type": "VEC3"
    },
    {
      "bufferView": 3,
      "byteOffset": 19952,
      "componentType": 5126,
      "count": 147,
      "max": [
        0.85339730978012085,
        0.99258369207382202,
        0.82900732755661011,
        1
      ],
      "min": [
        -0.79434603452682495,
        -0.86628490686416626,
        -0.99258369207382202,
        1
      ],
      "type": "VEC4"
    },
    {
      "bufferView": 1,
      "byteOffset": 9976,
      "componentType": 5126,
      "count": 147,
      "max": [
        1,
        1
      ],
      "min": [
        0,
        0
      ],
      "type": "VEC2"
    },
    {
      "bufferView": 0,
      "byteOffset": 15936,
      "componentType": 5125,
      "count": 564,
      "max": [
        146
      ],
      "min": [
        0
      ],
      "type": "SCALAR"
    },
    {
      "bufferView": 2,
      "byteOffset": 33456,
      "componentType": 5126,
      "count": 2600,
      "max": [
        0.78470999002456665,
        0.9572100043296814,
        0.025699999183416367
      ],
      "min": [
        -0.7698100209236145,
        -0.77768999338150024,
        -0.53224998712539673
      ],
      "type": "VEC3"
    },
    {
      "bufferView": 2,
      "byteOffset": 64656,
      "componentType": 5126,
      "count": 2600,
      "max": [
        0.99976783990859985,
        0.99994760751724243,
        0.99999934434890747
      ],
      "min": [
        -0.99998539686203003,
        -0.99992680549621582,
        -1
      ],
      "type": "VEC3"
    },
    {
      "bufferView": 3,
      "byteOffset": 22304,
      "componentType": 5126,
      "count": 2600,
      "max": [
        1,
        0.99791246652603149,
        0.9997984766960144,
        1
      ],
      "min": [
        -0.99895387887954712,
        -0.99938321113586426,
        -0.9999881386756897,
        -1
      ],
      "type": "VEC4"
    },
    {
      "bufferView": 1,
      "byteOffset": 11152,
      "componentType": 5126,
      "count": 2600,
      "max": [
        1,
        1
      ],
      "min": [
        0,
        0
      ],
      "type": "VEC2"
    },
    {
      "bufferView": 0,
      "byteOffset": 18192,
      "componentType": 5125,
      "count": 13056,
      "max": [
        2599
      ],
      "min": [
        0
      ],
      "type": "SCALAR"
    }
  ],
  "asset": {
    "extras": {
      "author": "rhcreations (https://sketchfab.com/rhcreations)",
      "license": "CC-BY-4.0 (http://creativecommons.org/licenses/by/4.0/)",
      "source": "https://sketchfab.com/3d-models/double-bed-4-6dd5f17680b247558f29b4cf66e8b732",
      "title": "Double Bed 4"
    },
    "generator": "Sketchfab-6.72.0",
    "version": "2.0"
  },
  "bufferViews": [
    {
      "buffer": 0,
      "byteLength": 70416,
      "byteOffset": 0,
      "name": "floatBufferViews",
      "target": 34963
    },
    {
      "buffer": 0,
      "byteLength": 31952,
      "byteOffset": 70416,
      "byteStride": 8,
      "name": "floatBufferViews",
      "target": 34962
    },
    {
      "buffer": 0,
      "byteLength": 95856,
      "byteOffset": 102368,
      "byteStride": 12,
      "name": "floatBufferViews",
      "target": 34962
    },
    {
      "buffer": 0,
      "byteLength": 63904,
      "byteOffset": 198224,
      "byteStride": 16,
      "name": "floatBufferViews",
      "target": 34962
    }
  ],
  "buffers": [
    {
      "byteLength": 262128,
      "uri": "scene.bin"
    }
  ],
  "extensionsRequired": [
    "KHR_materials_pbrSpecularGlossiness"
  ],
  "extensionsUsed": [
    "KHR_materials_pbrSpecularGlossiness"
  ],
  "images": [
    {
      "uri": "textures/Wood_Material_diffuse.jpeg"
    },
    {
      "uri": "textures/Wood_Material_specularGlossiness.png"
    },
    {
      "uri": "textures/Sheet_Material_diffuse.jpeg"
    }
  ],
  "materials": [
    {
      "doubleSided": true,
      "extensions": {
        "KHR_materials_pbrSpecularGlossiness": {
          "diffuseFactor": [
            1,
            1,
            1,
            1
          ],
          "glossinessFactor": 0.40000000000000002,
          "specularFactor": [
            0.050000000000000003,
            0.050000000000000003,
            0.050000000000000003
          ]
        }
      },
      "name": "Pillow_1_0"
    },
    {
      "doubleSided": true,
      "extensions": {
        "KHR_materials_pbrSpecularGlossiness": {
          "diffuseFactor": [
            1,
            1,
            1,
            1
          ],
          "diffuseTexture": {
            "index": 0,
            "texCoord": 0
          },
          "glossinessFactor": 1,
          "specularFactor": [
            0.13586128048780488,
            0.13586128048780488,
            0.13586128048780488
          ],
          "specularGlossinessTexture": {
            "index": 1,
            "texCoord": 0
          }
        }
      },
      "name": "Wood_Material"
    },
    {
      "doubleSided": true,
      "extensions": {
        "KHR_materials_pbrSpecularGlossiness": {
          "diffuseFactor": [
            1,
            1,
            1,
            1
          ],
          "diffuseTexture": {
            "index": 2,
            "texCoord": 0
          },
          "glossinessFactor": 1,
          "specularFactor": [
            0,
            0,
            0
          ]
        }
      },
      "name": "Sheet_Material"
    }
  ],
  "meshes": [
    {
      "name": "Beadstead_0",
      "primitives": [
        {
          "attributes": {
            "NORMAL": 1,
            "POSITION": 0,
            "TANGENT": 2,
            "TEXCOORD_0": 3
          },
          "indices": 4,
          "material": 1,
          "mode": 4
        }
      ]
    },
    {
      "name": "Mattres_0",
      "primitives": [
        {
          "attributes": {
            "NORMAL": 6,
            "POSITION": 5,
            "TANGENT": 7,
            "TEXCOORD_0": 8
          },
          "indices": 9,
          "material": 2,
          "mode": 4
        }
      ]
    },
    {
      "name": "Pillow 1_0",
      "primitives": [
        {
          "attributes": {
            "NORMAL": 11,
            "POSITION": 10,
            "TANGENT": 12,
            "TEXCOORD_0": 13
          },
          "indices": 14,
          "material": 0,
          "mode": 4
        }
      ]
    },
    {
      "name": "Pillow 2_0",
      "primitives": [
        {
          "attributes": {
            "NORMAL": 16,
            "POSITION": 15,
            "TANGENT": 17,
            "TEXCOORD_0": 18
          },
          "indices": 19,
          "material": 0,
          "mode": 4
        }
      ]
    },
    {
      "name": "Pillow 3_0",
      "primitives": [
        {
          "attributes": {
            "NORMAL": 21,
            "POSITION": 20,
            "TANGENT": 22,
            "TEXCOORD_0": 23
          },
          "indices": 24,
          "material": 0,
          "mode": 4
        }
      ]
    },
    {
      "name": "Pillow 4_0",
      "primitives": [
        {
          "attributes": {
            "NORMAL": 26,
            "POSITION": 25,
            "TANGENT": 27,
            "TEXCOORD_0": 28
          },
          "indices": 29,
          "material": 0,
          "mode": 4
        }
      ]
    },
    {
      "name": "Duvet_0",
      "primitives": [
        {
          "attributes": {
            "NORMAL": 31,
            "POSITION": 30,
            "TANGENT": 32,
            "TEXCOORD_0": 33
          },
          "indices": 34,
          "material": 2,
          "mode": 4
        }
      ]
    }
  ],
  "nodes": [
    {
      "children": [
        1
      ],
      "name": "RootNode (gltf orientation matrix)",
      "rotation": [
        -0.70710678118654746,
        -0,
        -0,
        0.70710678118654757
      ]
    },
    {
      "children": [
        2
      ],
      "name": "RootNode (model correction matrix)"
    },
    {
      "children": [
        3
      ],
      "name": "Root"
    },
    {
      "children": [
        4,
        5,
        7,
        9,
        11,
        13,
        15
      ],
      "matrix": [
        -0,
        0.3398500000000001,
        0,
        0,
        -0.3398500000000001,
        -0,
        0,
        0,
        0,
        0,
        0.72966000000000009,
        0,
        0,
        0,
        0,
        1
      ],
      "name": "Beadstead"
    },
    {
      "mesh": 0,
      "name": "Beadstead_0"
    },
    {
      "children": [
        6
      ],
      "matrix": [
        19.265619999999995,
        0,
        0,
        0,
        -0,
        26.647639999999999,
        1.0000000000000004e-05,
        0,
        -0,
        0,
        1.2010399999999999,
        0,
        0.11512000000000003,
        -0.20921000000000003,
        5.8484699999999998,
        1
      ],
      "name": "Mattres"
    },
    {
      "mesh": 1,
      "name": "Mattres_0"
    },
    {
      "children": [
        8
      ],
      "matrix": [
        7.0942799999999995,
        0,
        0,
        0,
        -0,
        4.6208599999999995,
        0,
        0,
        -0,
        0,
        0.63227000000000011,
        0,
        -8.5340599999999984,
        19.114680000000003,
        7.7904499999999999,
        1
      ],
      "name": "Pillow 1"
    },
    {
      "mesh": 2,
      "name": "Pillow 1_0"
    },
    {
      "children": [
        10
      ],
      "matrix": [
        7.0942799999999995,
        0,
        0,
        0,
        -0,
        0.8024,
        2.1195200000000001,
        0,
        0,
        -1.33687,
        0.10979000000000003,
        0,
        -8.5340599999999984,
        26.449029999999997,
        9.6517099999999996,
        1
      ],
      "name": "Pillow 2"
    },
    {
      "mesh": 3,
      "name": "Pillow 2_0"
    },
    {
      "children": [
        12
      ],
      "matrix": [
        7.0942799999999995,
        0,
        0,
        0,
        -0,
        4.6208599999999995,
        0,
        0,
        -0,
        0,
        0.63227000000000011,
        0,
        8.6644400000000008,
        19.114680000000003,
        7.7904499999999999,
        1
      ],
      "name": "Pillow 3"
    },
    {
      "mesh": 4,
      "name": "Pillow 3_0"
    },
    {
      "children": [
        14
      ],
      "matrix": [
        7.0942799999999995,
        0,
        0,
        0,
        -0,
        0.8024,
        2.1195200000000001,
        0,
        0,
        -1.33687,
        0.10979000000000003,
        0,
        8.6644400000000008,
        26.449029999999997,
        9.6517099999999996,
        1
      ],
      "name": "Pillow 4"
    },
    {
      "mesh": 5,
      "name": "Pillow 4_0"
    },
    {
      "children": [
        16
      ],
      "matrix": [
        27.4879,
        0.04309000000000001,
        -0.0056500000000000005,
        0,
        -0.046230000000000014,
        29.492029999999996,
        0.0023800000000000006,
        0,
        0.0091500000000000019,
        -0.0035700000000000011,
        9.6528000000000009,
        0,
        -0.19157000000000002,
        -6.2493700000000008,
        9.2625600000000006,
        1
      ],
      "name": "Duvet"
    },
    {
      "mesh": 6,
      "name": "Duvet_0"
    }
  ],
  "samplers": [
    {
      "magFilter": 9729,
      "minFilter": 9987,
      "wrapS": 10497,
      "wrapT": 10497
    }
  ],
  "scene": 0,
  "scenes": [
    {
      "name": "OSG_Scene",
      "nodes": [
        0
      ]
    }
  ],
  "textures": [
    {
      "sampler": 0,
      "source": 0
    },
    {
      "sampler": 0,
      "source": 1
    },
    {
      "sampler": 0,
      "source": 2
    }
  ]
}

