{
  "accessors": [
    {
      "bufferView": 2,
      "componentType": 5126,
      "count": 65532,
      "max": [
        5.8111081123352051,
        11.069558143615723,
        8.549839973449707
      ],
      "min": [
        -5.612119197845459,
        0.95311802625656128,
        -3.0872910022735596
      ],
      "type": "VEC3"
    },
    {
      "bufferView": 2,
      "byteOffset": 786384,
      "componentType": 5126,
      "count": 65532,
      "max": [
        0.99995690584182739,
        0.9999992847442627,
        0.99998855590820312
      ],
      "min": [
        -0.99997353553771973,
        -0.99999988079071045,
        -0.99999886751174927
      ],
      "type": "VEC3"
    },
    {
      "bufferView": 3,
      "componentType": 5126,
      "count": 65532,
      "max": [
        0.91764706373214722,
        0.90980392694473267,
        0.89411765336990356,
        1
      ],
      "min": [
        0,
        0,
        0,
        1
      ],
      "type": "VEC4"
    },
    {
      "bufferView": 1,
      "componentType": 5126,
      "count": 65532,
      "max": [
        0.99989098310470581,
        0.99180501699447632
      ],
      "min": [
        0.00011999999696854502,
        0.00014699999883305281
      ],
      "type": "VEC2"
    },
    {
      "bufferView": 0,
      "componentType": 5125,
      "count": 311865,
      "max": [
        65531
      ],
      "min": [
        0
      ],
      "type": "SCALAR"
    },
    {
      "bufferView": 2,
      "byteOffset": 1572768,
      "componentType": 5126,
      "count": 35692,
      "max": [
        5.2409482002258301,
        10.934840202331543,
        7.4405918121337891
      ],
      "min": [
        -3.976032018661499,
        3.0592811107635498,
        -2.2041230201721191
      ],
      "type": "VEC3"
    },
    {
      "bufferView": 2,
      "byteOffset": 2001072,
      "componentType": 5126,
      "count": 35692,
      "max": [
        0.99998968839645386,
        0.99999779462814331,
        0.99997049570083618
      ],
      "min": [
        -0.99997782707214355,
        -0.99999964237213135,
        -0.99989223480224609
      ],
      "type": "VEC3"
    },
    {
      "bufferView": 3,
      "byteOffset": 1048512,
      "componentType": 5126,
      "count": 35692,
      "max": [
        0.87843137979507446,
        0.86666667461395264,
        0.86274510622024536,
        1
      ],
      "min": [
        0,
        0,
        0,
        1
      ],
      "type": "VEC4"
    },
    {
      "bufferView": 1,
      "byteOffset": 524256,
      "componentType": 5126,
      "count": 35692,
      "max": [
        0.99995702505111694,
        0.99193602800369263
      ],
      "min": [
        1.9999999494757503e-05,
        0.00041700000292621553
      ],
      "type": "VEC2"
    },
    {
      "bufferView": 0,
      "byteOffset": 1247460,
      "componentType": 5125,
      "count": 138135,
      "max": [
        35691
      ],
      "min": [
        0
      ],
      "type": "SCALAR"
    }
  ],
  "asset": {
    "extras": {
      "author": "CISMAS (https://sketchfab.com/cismas)",
      "license": "CC-BY-4.0 (http://creativecommons.org/licenses/by/4.0/)",
      "source": "https://sketchfab.com/3d-models/st-anthony-fountain-penzance-39eff271326e45ce9dea56e995919063",
      "title": "St Anthony Fountain, Penzance"
    },
    "generator": "Sketchfab-8.55.0",
    "version": "2.0"
  },
  "bufferViews": [
    {
      "buffer": 0,
      "byteLength": 1800000,
      "byteOffset": 0,
      "name": "floatBufferViews",
      "target": 34963
    },
    {
      "buffer": 0,
      "byteLength": 809792,
      "byteOffset": 1800000,
      "byteStride": 8,
      "name": "floatBufferViews",
      "target": 34962
    },
    {
      "buffer": 0,
      "byteLength": 2429376,
      "byteOffset": 2609792,
      "byteStride": 12,
      "name": "floatBufferViews",
      "target": 34962
    },
    {
      "buffer": 0,
      "byteLength": 1619584,
      "byteOffset": 5039168,
      "byteStride": 16,
      "name": "floatBufferViews",
      "target": 34962
    }
  ],
  "buffers": [
    {
      "byteLength": 6658752,
      "uri": "scene.bin"
    }
  ],
  "extensionsUsed": [
    "KHR_materials_unlit"
  ],
  "materials": [
    {
      "doubleSided": true,
      "emissiveFactor": [
        0,
        0,
        0
      ],
      "extensions": {
        "KHR_materials_unlit": {}
      },
      "name": "StA_Fountain_150k",
      "pbrMetallicRoughness": {
        "baseColorFactor": [
          0.98330833280524721,
          0.98330833280524721,
          0.98330833280524721,
          1
        ],
        "metallicFactor": 0,
        "roughnessFactor": 1
      }
    }
  ],
  "meshes": [
    {
      "primitives": [
        {
          "attributes": {
            "COLOR_0": 2,
            "NORMAL": 1,
            "POSITION": 0,
            "TEXCOORD_0": 3
          },
          "indices": 4,
          "material": 0,
          "mode": 4
        }
      ]
    },
    {
      "primitives": [
        {
          "attributes": {
            "COLOR_0": 7,
            "NORMAL": 6,
            "POSITION": 5,
            "TEXCOORD_0": 8
          },
          "indices": 9,
          "material": 0,
          "mode": 4
        }
      ]
    }
  ],
  "nodes": [
    {
      "children": [
        1
      ],
      "name": "RootNode (gltf orientation matrix)",
      "rotation": [
        -0.70710678118654746,
        -0,
        -0,
        0.70710678118654757
      ]
    },
    {
      "children": [
        2
      ],
      "matrix": [
        0,
        1,
        -1.1102230246251565e-16,
        0,
        1.1102230246251565e-16,
        -2.2204460492503131e-16,
        -1,
        0,
        -1,
        1.1102230246251565e-16,
        -2.2204460492503131e-16,
        0,
        2.830772876739502,
        5.9118447303771973,
        8.7426176071166992,
        1
      ],
      "name": "RootNode (model correction matrix)"
    },
    {
      "children": [
        3,
        4
      ],
      "name": "StA Fountain 150k.obj.cleaner.materialmerger.gles"
    },
    {
      "mesh": 0,
      "name": ""
    },
    {
      "mesh": 1,
      "name": ""
    }
  ],
  "scene": 0,
  "scenes": [
    {
      "name": "OSG_Scene",
      "nodes": [
        0
      ]
    }
  ]
}

