{
  "accessors": [
    {
      "bufferView": 1,
      "componentType": 5126,
      "count": 65532,
      "max": [
        81.883384704589844,
        -6.6097712516784668,
        321.9268798828125
      ],
      "min": [
        -81.883384704589844,
        -32.377094268798828,
        -2.5654838085174561
      ],
      "type": "VEC3"
    },
    {
      "bufferView": 1,
      "byteOffset": 786384,
      "componentType": 5126,
      "count": 65532,
      "max": [
        1,
        1,
        1
      ],
      "min": [
        -1,
        -1,
        -1
      ],
      "type": "VEC3"
    },
    {
      "bufferView": 2,
      "componentType": 5126,
      "count": 65532,
      "max": [
        1,
        1,
        0.96217632293701172,
        1
      ],
      "min": [
        -1,
        -1,
        -0.96217638254165649,
        1
      ],
      "type": "VEC4"
    },
    {
      "bufferView": 0,
      "componentType": 5125,
      "count": 304575,
      "max": [
        65531
      ],
      "min": [
        0
      ],
      "type": "SCALAR"
    },
    {
      "bufferView": 1,
      "byteOffset": 1572768,
      "componentType": 5126,
      "count": 6443,
      "max": [
        79.644386291503906,
        -13.328451156616211,
        4.1738958358764648
      ],
      "min": [
        -79.644386291503906,
        -32.0645751953125,
        -2.5654838085174561
      ],
      "type": "VEC3"
    },
    {
      "bufferView": 1,
      "byteOffset": 1650084,
      "componentType": 5126,
      "count": 6443,
      "max": [
        0.88937467336654663,
        1.9768920537899248e-05,
        -0.070092305541038513
      ],
      "min": [
        -0.88937461376190186,
        -0.99736976623535156,
        -1
      ],
      "type": "VEC3"
    },
    {
      "bufferView": 2,
      "byteOffset": 1048512,
      "componentType": 5126,
      "count": 6443,
      "max": [
        1,
        0.018639044836163521,
        0.88937473297119141,
        1
      ],
      "min": [
        0.45717915892601013,
        -0.054050099104642868,
        -0.88937473297119141,
        1
      ],
      "type": "VEC4"
    },
    {
      "bufferView": 0,
      "byteOffset": 1218300,
      "componentType": 5125,
      "count": 27201,
      "max": [
        6442
      ],
      "min": [
        0
      ],
      "type": "SCALAR"
    },
    {
      "bufferView": 1,
      "byteOffset": 1727400,
      "componentType": 5126,
      "count": 441,
      "max": [
        68.245811462402344,
        -30.613100051879883,
        295.6002197265625
      ],
      "min": [
        -63.155986785888672,
        -35.002113342285156,
        44.614799499511719
      ],
      "type": "VEC3"
    },
    {
      "bufferView": 1,
      "byteOffset": 1732692,
      "componentType": 5126,
      "count": 441,
      "max": [
        0,
        -0.99984723329544067,
        0.017484553158283234
      ],
      "min": [
        0,
        -0.99984723329544067,
        0.017484394833445549
      ],
      "type": "VEC3"
    },
    {
      "bufferView": 2,
      "byteOffset": 1151600,
      "componentType": 5126,
      "count": 441,
      "max": [
        1,
        0,
        0,
        1
      ],
      "min": [
        1,
        0,
        0,
        1
      ],
      "type": "VEC4"
    },
    {
      "bufferView": 0,
      "byteOffset": 1327104,
      "componentType": 5125,
      "count": 2400,
      "max": [
        440
      ],
      "min": [
        0
      ],
      "type": "SCALAR"
    },
    {
      "bufferView": 1,
      "byteOffset": 1737984,
      "componentType": 5126,
      "count": 472,
      "max": [
        10.884881973266602,
        -36.076316833496094,
        27.039470672607422
      ],
      "min": [
        -11.578715324401855,
        -37.594127655029297,
        4.3592209815979004
      ],
      "type": "VEC3"
    },
    {
      "bufferView": 1,
      "byteOffset": 1743648,
      "componentType": 5126,
      "count": 472,
      "max": [
        1,
        1,
        1
      ],
      "min": [
        -1,
        -1,
        -1
      ],
      "type": "VEC3"
    },
    {
      "bufferView": 2,
      "byteOffset": 1158656,
      "componentType": 5126,
      "count": 472,
      "max": [
        1,
        0.43945854902267456,
        1,
        1
      ],
      "min": [
        -1,
        -0.43945851922035217,
        -1,
        1
      ],
      "type": "VEC4"
    },
    {
      "bufferView": 0,
      "byteOffset": 1336704,
      "componentType": 5125,
      "count": 2052,
      "max": [
        471
      ],
      "min": [
        0
      ],
      "type": "SCALAR"
    },
    {
      "bufferView": 1,
      "byteOffset": 1749312,
      "componentType": 5126,
      "count": 2516,
      "max": [
        85.494270324707031,
        -11.834532737731934,
        323.33026123046875
      ],
      "min": [
        -64.100601196289062,
        -26.753211975097656,
        -3.4175949096679688
      ],
      "type": "VEC3"
    },
    {
      "bufferView": 1,
      "byteOffset": 1779504,
      "componentType": 5126,
      "count": 2516,
      "max": [
        1,
        1,
        1
      ],
      "min": [
        -1,
        -1,
        -1
      ],
      "type": "VEC3"
    },
    {
      "bufferView": 2,
      "byteOffset": 1166208,
      "componentType": 5126,
      "count": 2516,
      "max": [
        1,
        1,
        1,
        1
      ],
      "min": [
        -1,
        -1,
        -1,
        1
      ],
      "type": "VEC4"
    },
    {
      "bufferView": 0,
      "byteOffset": 1344912,
      "componentType": 5125,
      "count": 9675,
      "max": [
        2515
      ],
      "min": [
        0
      ],
      "type": "SCALAR"
    }
  ],
  "asset": {
    "extras": {
      "author": "Icefyre24 (https://sketchfab.com/Icefyre24)",
      "license": "CC-BY-4.0 (http://creativecommons.org/licenses/by/4.0/)",
      "source": "https://sketchfab.com/models/eb664c0047e749a7a3ef92ea8dc73214",
      "title": "Sleek and simple smartphone"
    },
    "generator": "Sketchfab-3.22.4",
    "version": "2.0"
  },
  "bufferViews": [
    {
      "buffer": 0,
      "byteLength": 1383612,
      "byteOffset": 0,
      "name": "floatBufferViews",
      "target": 34963
    },
    {
      "buffer": 0,
      "byteLength": 1809696,
      "byteOffset": 1383612,
      "byteStride": 12,
      "name": "floatBufferViews",
      "target": 34962
    },
    {
      "buffer": 0,
      "byteLength": 1206464,
      "byteOffset": 3193308,
      "byteStride": 16,
      "name": "floatBufferViews",
      "target": 34962
    }
  ],
  "buffers": [
    {
      "byteLength": 4399772,
      "uri": "scene.bin"
    }
  ],
  "materials": [
    {
      "doubleSided": true,
      "emissiveFactor": [
        0,
        0,
        0
      ],
      "name": "Car_Paint_-_Yellow",
      "pbrMetallicRoughness": {
        "baseColorFactor": [
          1,
          1,
          1,
          1
        ],
        "metallicFactor": 0,
        "roughnessFactor": 0.59999999999999998
      }
    },
    {
      "doubleSided": true,
      "emissiveFactor": [
        0,
        0,
        0
      ],
      "name": "Carbon_Fiber",
      "pbrMetallicRoughness": {
        "baseColorFactor": [
          1,
          1,
          1,
          1
        ],
        "metallicFactor": 0,
        "roughnessFactor": 0.59999999999999998
      }
    },
    {
      "doubleSided": true,
      "emissiveFactor": [
        0,
        0,
        0
      ],
      "name": "Synthetic_-_Silicone_Grip_Saw_Black",
      "pbrMetallicRoughness": {
        "baseColorFactor": [
          1,
          1,
          1,
          1
        ],
        "metallicFactor": 0,
        "roughnessFactor": 0.59999999999999998
      }
    },
    {
      "doubleSided": true,
      "emissiveFactor": [
        0,
        0,
        0
      ],
      "name": "default",
      "pbrMetallicRoughness": {
        "baseColorFactor": [
          1,
          1,
          1,
          1
        ],
        "metallicFactor": 0,
        "roughnessFactor": 0.59999999999999998
      }
    }
  ],
  "meshes": [
    {
      "primitives": [
        {
          "attributes": {
            "NORMAL": 1,
            "POSITION": 0,
            "TANGENT": 2
          },
          "indices": 3,
          "material": 0,
          "mode": 4
        }
      ]
    },
    {
      "primitives": [
        {
          "attributes": {
            "NORMAL": 5,
            "POSITION": 4,
            "TANGENT": 6
          },
          "indices": 7,
          "material": 0,
          "mode": 4
        }
      ]
    },
    {
      "primitives": [
        {
          "attributes": {
            "NORMAL": 9,
            "POSITION": 8,
            "TANGENT": 10
          },
          "indices": 11,
          "material": 1,
          "mode": 4
        }
      ]
    },
    {
      "primitives": [
        {
          "attributes": {
            "NORMAL": 13,
            "POSITION": 12,
            "TANGENT": 14
          },
          "indices": 15,
          "material": 2,
          "mode": 4
        }
      ]
    },
    {
      "primitives": [
        {
          "attributes": {
            "NORMAL": 17,
            "POSITION": 16,
            "TANGENT": 18
          },
          "indices": 19,
          "material": 3,
          "mode": 4
        }
      ]
    }
  ],
  "nodes": [
    {
      "children": [
        1
      ],
      "name": "RootNode (gltf orientation matrix)",
      "rotation": [
        -0.70710678118654746,
        -0,
        -0,
        0.70710678118654757
      ]
    },
    {
      "children": [
        2
      ],
      "name": "RootNode (model correction matrix)"
    },
    {
      "children": [
        3,
        4,
        5,
        6,
        7
      ],
      "name": "cellphone1.obj.cleaner.materialmerger.gles"
    },
    {
      "mesh": 0,
      "name": ""
    },
    {
      "mesh": 1,
      "name": ""
    },
    {
      "mesh": 2,
      "name": ""
    },
    {
      "mesh": 3,
      "name": ""
    },
    {
      "mesh": 4,
      "name": ""
    }
  ],
  "scene": 0,
  "scenes": [
    {
      "name": "OSG_Scene",
      "nodes": [
        0
      ]
    }
  ]
}

