{
  "accessors": [
    {
      "bufferView": 2,
      "componentType": 5126,
      "count": 320,
      "max": [
        0.66310286521911621,
        30,
        2.9903790950775146
      ],
      "min": [
        -53.276630401611328,
        -30,
        -53.347225189208984
      ],
      "type": "VEC3"
    },
    {
      "bufferView": 2,
      "byteOffset": 3840,
      "componentType": 5126,
      "count": 320,
      "max": [
        1,
        1,
        1
      ],
      "min": [
        -1,
        -1,
        -1
      ],
      "type": "VEC3"
    },
    {
      "bufferView": 3,
      "componentType": 5126,
      "count": 320,
      "max": [
        1,
        1,
        1,
        1
      ],
      "min": [
        0,
        -1,
        -1,
        1
      ],
      "type": "VEC4"
    },
    {
      "bufferView": 1,
      "componentType": 5126,
      "count": 320,
      "max": [
        0.96263998746871948,
        0.99950045347213745
      ],
      "min": [
        0.054225008934736252,
        0.00049950048560276628
      ],
      "type": "VEC2"
    },
    {
      "bufferView": 0,
      "componentType": 5125,
      "count": 624,
      "max": [
        319
      ],
      "min": [
        0
      ],
      "type": "SCALAR"
    },
    {
      "bufferView": 2,
      "byteOffset": 7680,
      "componentType": 5126,
      "count": 556,
      "max": [
        0.66310286521911621,
        103.947509765625,
        2.9903790950775146
      ],
      "min": [
        -53.276630401611328,
        -30,
        -62.001045227050781
      ],
      "type": "VEC3"
    },
    {
      "bufferView": 2,
      "byteOffset": 14352,
      "componentType": 5126,
      "count": 556,
      "max": [
        1,
        1,
        1
      ],
      "min": [
        -1,
        -1,
        -1
      ],
      "type": "VEC3"
    },
    {
      "bufferView": 3,
      "byteOffset": 5120,
      "componentType": 5126,
      "count": 556,
      "max": [
        1,
        1,
        1,
        1
      ],
      "min": [
        -1,
        -1,
        -1,
        1
      ],
      "type": "VEC4"
    },
    {
      "bufferView": 1,
      "byteOffset": 2560,
      "componentType": 5126,
      "count": 556,
      "max": [
        0.96263998746871948,
        0.99950045347213745
      ],
      "min": [
        0.0004810795362573117,
        0.00049950048560276628
      ],
      "type": "VEC2"
    },
    {
      "bufferView": 0,
      "byteOffset": 2496,
      "componentType": 5125,
      "count": 1128,
      "max": [
        555
      ],
      "min": [
        0
      ],
      "type": "SCALAR"
    },
    {
      "bufferView": 2,
      "byteOffset": 21024,
      "componentType": 5126,
      "count": 772,
      "max": [
        111.54630279541016,
        72.040817260742188,
        56.054264068603516
      ],
      "min": [
        -89.784034729003906,
        -28.67973518371582,
        -57.283840179443359
      ],
      "type": "VEC3"
    },
    {
      "bufferView": 2,
      "byteOffset": 30288,
      "componentType": 5126,
      "count": 772,
      "max": [
        1,
        1,
        1
      ],
      "min": [
        -1,
        -1,
        -1
      ],
      "type": "VEC3"
    },
    {
      "bufferView": 3,
      "byteOffset": 14016,
      "componentType": 5126,
      "count": 772,
      "max": [
        1,
        1,
        1,
        1
      ],
      "min": [
        -1,
        -1,
        -1,
        1
      ],
      "type": "VEC4"
    },
    {
      "bufferView": 1,
      "byteOffset": 7008,
      "componentType": 5126,
      "count": 772,
      "max": [
        0.99609375,
        0.90837854146957397
      ],
      "min": [
        0.0039062486030161381,
        0.0039062437135726213
      ],
      "type": "VEC2"
    },
    {
      "bufferView": 0,
      "byteOffset": 7008,
      "componentType": 5125,
      "count": 1776,
      "max": [
        771
      ],
      "min": [
        0
      ],
      "type": "SCALAR"
    },
    {
      "bufferView": 2,
      "byteOffset": 39552,
      "componentType": 5126,
      "count": 556,
      "max": [
        0.66310286521911621,
        103.947509765625,
        2.9903790950775146
      ],
      "min": [
        -53.276630401611328,
        -30,
        -62.001045227050781
      ],
      "type": "VEC3"
    },
    {
      "bufferView": 2,
      "byteOffset": 46224,
      "componentType": 5126,
      "count": 556,
      "max": [
        1,
        1,
        1
      ],
      "min": [
        -1,
        -1,
        -1
      ],
      "type": "VEC3"
    },
    {
      "bufferView": 3,
      "byteOffset": 26368,
      "componentType": 5126,
      "count": 556,
      "max": [
        1,
        1,
        1,
        1
      ],
      "min": [
        -1,
        -1,
        -1,
        1
      ],
      "type": "VEC4"
    },
    {
      "bufferView": 1,
      "byteOffset": 13184,
      "componentType": 5126,
      "count": 556,
      "max": [
        0.96263998746871948,
        0.99950045347213745
      ],
      "min": [
        0.0004810795362573117,
        0.00049950048560276628
      ],
      "type": "VEC2"
    },
    {
      "bufferView": 0,
      "byteOffset": 14112,
      "componentType": 5125,
      "count": 1128,
      "max": [
        555
      ],
      "min": [
        0
      ],
      "type": "SCALAR"
    },
    {
      "bufferView": 2,
      "byteOffset": 52896,
      "componentType": 5126,
      "count": 556,
      "max": [
        0.66310286521911621,
        103.947509765625,
        2.9903790950775146
      ],
      "min": [
        -53.276630401611328,
        -30,
        -62.001045227050781
      ],
      "type": "VEC3"
    },
    {
      "bufferView": 2,
      "byteOffset": 59568,
      "componentType": 5126,
      "count": 556,
      "max": [
        1,
        1,
        1
      ],
      "min": [
        -1,
        -1,
        -1
      ],
      "type": "VEC3"
    },
    {
      "bufferView": 3,
      "byteOffset": 35264,
      "componentType": 5126,
      "count": 556,
      "max": [
        1,
        1,
        1,
        1
      ],
      "min": [
        -1,
        -1,
        -1,
        1
      ],
      "type": "VEC4"
    },
    {
      "bufferView": 1,
      "byteOffset": 17632,
      "componentType": 5126,
      "count": 556,
      "max": [
        0.96263998746871948,
        0.99950045347213745
      ],
      "min": [
        0.0004810795362573117,
        0.00049950048560276628
      ],
      "type": "VEC2"
    },
    {
      "bufferView": 0,
      "byteOffset": 18624,
      "componentType": 5125,
      "count": 1128,
      "max": [
        555
      ],
      "min": [
        0
      ],
      "type": "SCALAR"
    },
    {
      "bufferView": 2,
      "byteOffset": 66240,
      "componentType": 5126,
      "count": 556,
      "max": [
        0.66310286521911621,
        103.947509765625,
        2.9903790950775146
      ],
      "min": [
        -53.276630401611328,
        -30,
        -62.001045227050781
      ],
      "type": "VEC3"
    },
    {
      "bufferView": 2,
      "byteOffset": 72912,
      "componentType": 5126,
      "count": 556,
      "max": [
        1,
        1,
        1
      ],
      "min": [
        -1,
        -1,
        -1
      ],
      "type": "VEC3"
    },
    {
      "bufferView": 3,
      "byteOffset": 44160,
      "componentType": 5126,
      "count": 556,
      "max": [
        1,
        1,
        1,
        1
      ],
      "min": [
        -1,
        -1,
        -1,
        1
      ],
      "type": "VEC4"
    },
    {
      "bufferView": 1,
      "byteOffset": 22080,
      "componentType": 5126,
      "count": 556,
      "max": [
        0.96263998746871948,
        0.99950045347213745
      ],
      "min": [
        0.0004810795362573117,
        0.00049950048560276628
      ],
      "type": "VEC2"
    },
    {
      "bufferView": 0,
      "byteOffset": 23136,
      "componentType": 5125,
      "count": 1128,
      "max": [
        555
      ],
      "min": [
        0
      ],
      "type": "SCALAR"
    }
  ],
  "asset": {
    "extras": {
      "author": "Zhelazniakov Aleksandr (https://sketchfab.com/mrblik112)",
      "license": "CC-BY-4.0 (http://creativecommons.org/licenses/by/4.0/)",
      "source": "https://sketchfab.com/3d-models/medieval-furniture-505dfef9a6554f7195113740db0fe806",
      "title": "Medieval furniture"
    },
    "generator": "Sketchfab-7.65.0",
    "version": "2.0"
  },
  "bufferViews": [
    {
      "buffer": 0,
      "byteLength": 27648,
      "byteOffset": 0,
      "name": "floatBufferViews",
      "target": 34963
    },
    {
      "buffer": 0,
      "byteLength": 26528,
      "byteOffset": 27648,
      "byteStride": 8,
      "name": "floatBufferViews",
      "target": 34962
    },
    {
      "buffer": 0,
      "byteLength": 79584,
      "byteOffset": 54176,
      "byteStride": 12,
      "name": "floatBufferViews",
      "target": 34962
    },
    {
      "buffer": 0,
      "byteLength": 53056,
      "byteOffset": 133760,
      "byteStride": 16,
      "name": "floatBufferViews",
      "target": 34962
    }
  ],
  "buffers": [
    {
      "byteLength": 186816,
      "uri": "scene.bin"
    }
  ],
  "images": [
    {
      "uri": "textures/Chair2_baseColor.png"
    },
    {
      "uri": "textures/Chair2_metallicRoughness.png"
    },
    {
      "uri": "textures/Chair2_normal.png"
    },
    {
      "uri": "textures/lambert1_baseColor.png"
    },
    {
      "uri": "textures/lambert1_metallicRoughness.png"
    },
    {
      "uri": "textures/lambert1_normal.png"
    }
  ],
  "materials": [
    {
      "doubleSided": true,
      "emissiveFactor": [
        0,
        0,
        0
      ],
      "name": "Chair2",
      "normalTexture": {
        "index": 2,
        "scale": 1,
        "texCoord": 0
      },
      "occlusionTexture": {
        "index": 1,
        "strength": 1,
        "texCoord": 0
      },
      "pbrMetallicRoughness": {
        "baseColorFactor": [
          1,
          1,
          1,
          1
        ],
        "baseColorTexture": {
          "index": 0,
          "texCoord": 0
        },
        "metallicFactor": 0,
        "metallicRoughnessTexture": {
          "index": 1,
          "texCoord": 0
        },
        "roughnessFactor": 1
      }
    },
    {
      "doubleSided": true,
      "emissiveFactor": [
        0,
        0,
        0
      ],
      "name": "Chair",
      "normalTexture": {
        "index": 2,
        "scale": 1,
        "texCoord": 0
      },
      "occlusionTexture": {
        "index": 1,
        "strength": 1,
        "texCoord": 0
      },
      "pbrMetallicRoughness": {
        "baseColorFactor": [
          1,
          1,
          1,
          1
        ],
        "baseColorTexture": {
          "index": 0,
          "texCoord": 0
        },
        "metallicFactor": 0,
        "metallicRoughnessTexture": {
          "index": 1,
          "texCoord": 0
        },
        "roughnessFactor": 1
      }
    },
    {
      "doubleSided": true,
      "emissiveFactor": [
        0,
        0,
        0
      ],
      "name": "lambert1",
      "normalTexture": {
        "index": 5,
        "scale": 1,
        "texCoord": 0
      },
      "occlusionTexture": {
        "index": 4,
        "strength": 1,
        "texCoord": 0
      },
      "pbrMetallicRoughness": {
        "baseColorFactor": [
          1,
          1,
          1,
          1
        ],
        "baseColorTexture": {
          "index": 3,
          "texCoord": 0
        },
        "metallicFactor": 1,
        "metallicRoughnessTexture": {
          "index": 4,
          "texCoord": 0
        },
        "roughnessFactor": 1
      }
    }
  ],
  "meshes": [
    {
      "name": "pCube14_Chair2_0",
      "primitives": [
        {
          "attributes": {
            "NORMAL": 1,
            "POSITION": 0,
            "TANGENT": 2,
            "TEXCOORD_0": 3
          },
          "indices": 4,
          "material": 0,
          "mode": 4
        }
      ]
    },
    {
      "name": "pCube15_Chair_0",
      "primitives": [
        {
          "attributes": {
            "NORMAL": 6,
            "POSITION": 5,
            "TANGENT": 7,
            "TEXCOORD_0": 8
          },
          "indices": 9,
          "material": 1,
          "mode": 4
        }
      ]
    },
    {
      "name": "polySurface16_lambert1_0",
      "primitives": [
        {
          "attributes": {
            "NORMAL": 11,
            "POSITION": 10,
            "TANGENT": 12,
            "TEXCOORD_0": 13
          },
          "indices": 14,
          "material": 2,
          "mode": 4
        }
      ]
    },
    {
      "name": "pCube24_Chair_0",
      "primitives": [
        {
          "attributes": {
            "NORMAL": 16,
            "POSITION": 15,
            "TANGENT": 17,
            "TEXCOORD_0": 18
          },
          "indices": 19,
          "material": 1,
          "mode": 4
        }
      ]
    },
    {
      "name": "pCube25_Chair_0",
      "primitives": [
        {
          "attributes": {
            "NORMAL": 21,
            "POSITION": 20,
            "TANGENT": 22,
            "TEXCOORD_0": 23
          },
          "indices": 24,
          "material": 1,
          "mode": 4
        }
      ]
    },
    {
      "name": "pCube26_Chair_0",
      "primitives": [
        {
          "attributes": {
            "NORMAL": 26,
            "POSITION": 25,
            "TANGENT": 27,
            "TEXCOORD_0": 28
          },
          "indices": 29,
          "material": 1,
          "mode": 4
        }
      ]
    }
  ],
  "nodes": [
    {
      "children": [
        1
      ],
      "name": "RootNode (gltf orientation matrix)",
      "rotation": [
        -0.70710678118654746,
        -0,
        -0,
        0.70710678118654757
      ]
    },
    {
      "children": [
        2
      ],
      "name": "RootNode (model correction matrix)"
    },
    {
      "children": [
        3
      ],
      "matrix": [
        1,
        0,
        0,
        0,
        0,
        0,
        1,
        0,
        0,
        -1,
        0,
        0,
        0,
        0,
        0,
        1
      ],
      "name": "e5d9388219f147789572d15785c367af.fbx"
    },
    {
      "children": [
        4,
        6,
        8,
        10,
        12,
        14
      ],
      "name": "RootNode"
    },
    {
      "children": [
        5
      ],
      "matrix": [
        0.0090524906025420387,
        0,
        0.0042488127071618233,
        0,
        0,
        0.0099999997764825821,
        0,
        0,
        -0.0042488127071618233,
        0,
        0.0090524906025420387,
        0,
        -1.4285556077957153,
        -5.6843417590258594e-16,
        0.27883389592170715,
        1
      ],
      "name": "pCube14"
    },
    {
      "mesh": 0,
      "name": "pCube14_Chair2_0"
    },
    {
      "children": [
        7
      ],
      "matrix": [
        0.0099788603181789684,
        0,
        -0.00064987866554060386,
        0,
        0,
        0.0099999997764825821,
        0,
        0,
        0.00064987866554060386,
        0,
        0.0099788603181789684,
        0,
        0.0028311708010733128,
        -5.6843417590258594e-16,
        -0.27712678909301758,
        1
      ],
      "name": "pCube15"
    },
    {
      "mesh": 1,
      "name": "pCube15_Chair_0"
    },
    {
      "children": [
        9
      ],
      "matrix": [
        0.0099999997764825821,
        0,
        0,
        0,
        0,
        0.0099999997764825821,
        0,
        0,
        0,
        0,
        0.0099999997764825821,
        0,
        -0.027970636263489723,
        0,
        0,
        1
      ],
      "name": "polySurface16"
    },
    {
      "mesh": 2,
      "name": "polySurface16_lambert1_0"
    },
    {
      "children": [
        11
      ],
      "matrix": [
        0.0098700980368425437,
        0,
        0.0016065989769599193,
        0,
        0,
        0.0099999997764825821,
        0,
        0,
        -0.0016065989769599193,
        0,
        0.0098700980368425437,
        0,
        0.65110445022583008,
        -5.6843417590258594e-16,
        -0.22166407108306885,
        1
      ],
      "name": "pCube24"
    },
    {
      "mesh": 3,
      "name": "pCube24_Chair_0"
    },
    {
      "children": [
        13
      ],
      "matrix": [
        -0.0076301599283397047,
        9.3442509332236174e-19,
        -0.0064637957113147316,
        0,
        4.3306009895396672e-19,
        0.0099999997764825821,
        9.3442509332236174e-19,
        0,
        0.0064637957113147316,
        4.3306009895396672e-19,
        -0.0076301599283397047,
        0,
        -0.40353786945343018,
        -5.6843417590258594e-16,
        0.39513102173805237,
        1
      ],
      "name": "pCube25"
    },
    {
      "mesh": 4,
      "name": "pCube25_Chair_0"
    },
    {
      "children": [
        15
      ],
      "matrix": [
        0.0052873098844210742,
        0,
        0.0084878943039928875,
        0,
        0,
        0.0099999997764825821,
        0,
        0,
        -0.0084878943039928875,
        0,
        0.0052873098844210742,
        0,
        1.3784017562866211,
        -5.6843417590258594e-16,
        0.5423896312713623,
        1
      ],
      "name": "pCube26"
    },
    {
      "mesh": 5,
      "name": "pCube26_Chair_0"
    }
  ],
  "samplers": [
    {
      "magFilter": 9729,
      "minFilter": 9987,
      "wrapS": 10497,
      "wrapT": 10497
    }
  ],
  "scene": 0,
  "scenes": [
    {
      "name": "OSG_Scene",
      "nodes": [
        0
      ]
    }
  ],
  "textures": [
    {
      "sampler": 0,
      "source": 0
    },
    {
      "sampler": 0,
      "source": 1
    },
    {
      "sampler": 0,
      "source": 2
    },
    {
      "sampler": 0,
      "source": 3
    },
    {
      "sampler": 0,
      "source": 4
    },
    {
      "sampler": 0,
      "source": 5
    }
  ]
}

