{
  "accessors": [
    {
      "bufferView": 2,
      "componentType": 5126,
      "count": 13449,
      "max": [
        0.016415122896432877,
        0.016529252752661705,
        0.26144430041313171
      ],
      "min": [
        -0.048585444688796997,
        -0.020194144919514656,
        -0.31445962190628052
      ],
      "type": "VEC3"
    },
    {
      "bufferView": 2,
      "byteOffset": 161388,
      "componentType": 5126,
      "count": 13449,
      "max": [
        1,
        1,
        1
      ],
      "min": [
        -1,
        -1,
        -1
      ],
      "type": "VEC3"
    },
    {
      "bufferView": 3,
      "componentType": 5126,
      "count": 13449,
      "max": [
        0.99999940395355225,
        0.99991697072982788,
        1,
        1
      ],
      "min": [
        -0.99939900636672974,
        -1,
        -1,
        -1
      ],
      "type": "VEC4"
    },
    {
      "bufferView": 3,
      "byteOffset": 215184,
      "componentType": 5126,
      "count": 13449,
      "max": [
        1,
        1,
        1,
        1
      ],
      "min": [
        0,
        0,
        0,
        1
      ],
      "type": "VEC4"
    },
    {
      "bufferView": 1,
      "componentType": 5126,
      "count": 13449,
      "max": [
        0.98354434967041016,
        0.98446446657180786
      ],
      "min": [
        0.0055914856493473053,
        0.007558947429060936
      ],
      "type": "VEC2"
    },
    {
      "bufferView": 1,
      "byteOffset": 107592,
      "componentType": 5126,
      "count": 13449,
      "max": [
        0.98354434967041016,
        0.98446446657180786
      ],
      "min": [
        0.0055914856493473053,
        0.007558947429060936
      ],
      "type": "VEC2"
    },
    {
      "bufferView": 1,
      "byteOffset": 215184,
      "componentType": 5126,
      "count": 13449,
      "max": [
        0.98354434967041016,
        0.98446446657180786
      ],
      "min": [
        0.0055914856493473053,
        0.007558947429060936
      ],
      "type": "VEC2"
    },
    {
      "bufferView": 0,
      "componentType": 5125,
      "count": 74040,
      "max": [
        13448
      ],
      "min": [
        0
      ],
      "type": "SCALAR"
    },
    {
      "bufferView": 2,
      "byteOffset": 322776,
      "componentType": 5126,
      "count": 10898,
      "max": [
        0.016415126621723175,
        0.017224596813321114,
        0.26144430041313171
      ],
      "min": [
        -0.048585444688796997,
        -0.015833908692002296,
        -0.31445962190628052
      ],
      "type": "VEC3"
    },
    {
      "bufferView": 2,
      "byteOffset": 453552,
      "componentType": 5126,
      "count": 10898,
      "max": [
        1,
        1,
        1
      ],
      "min": [
        -0.99999904632568359,
        -1,
        -1
      ],
      "type": "VEC3"
    },
    {
      "bufferView": 3,
      "byteOffset": 430368,
      "componentType": 5126,
      "count": 10898,
      "max": [
        0.99999779462814331,
        0.99987888336181641,
        1,
        1
      ],
      "min": [
        -0.99956351518630981,
        -1,
        -0.99999964237213135,
        -1
      ],
      "type": "VEC4"
    },
    {
      "bufferView": 3,
      "byteOffset": 604736,
      "componentType": 5126,
      "count": 10898,
      "max": [
        1,
        1,
        1,
        1
      ],
      "min": [
        0,
        0,
        0,
        1
      ],
      "type": "VEC4"
    },
    {
      "bufferView": 1,
      "byteOffset": 322776,
      "componentType": 5126,
      "count": 10898,
      "max": [
        0.9833148717880249,
        0.98028415441513062
      ],
      "min": [
        0.0068648010492324829,
        0.0091668926179409027
      ],
      "type": "VEC2"
    },
    {
      "bufferView": 1,
      "byteOffset": 409960,
      "componentType": 5126,
      "count": 10898,
      "max": [
        0.9833148717880249,
        0.98028415441513062
      ],
      "min": [
        0.0068648010492324829,
        0.0091668926179409027
      ],
      "type": "VEC2"
    },
    {
      "bufferView": 1,
      "byteOffset": 497144,
      "componentType": 5126,
      "count": 10898,
      "max": [
        0.9833148717880249,
        0.98028415441513062
      ],
      "min": [
        0.0068648010492324829,
        0.0091668926179409027
      ],
      "type": "VEC2"
    },
    {
      "bufferView": 0,
      "byteOffset": 296160,
      "componentType": 5125,
      "count": 60288,
      "max": [
        10897
      ],
      "min": [
        0
      ],
      "type": "SCALAR"
    }
  ],
  "asset": {
    "extras": {
      "author": "pateodor (https://sketchfab.com/pateodor)",
      "license": "CC-BY-NC-SA-4.0 (http://creativecommons.org/licenses/by-nc-sa/4.0/)",
      "source": "https://sketchfab.com/3d-models/hedge-shears-0019c537f5884ce08907a07e72bd3b64",
      "title": "Hedge Shears"
    },
    "generator": "Sketchfab-7.51.0",
    "version": "2.0"
  },
  "bufferViews": [
    {
      "buffer": 0,
      "byteLength": 537312,
      "byteOffset": 0,
      "name": "floatBufferViews",
      "target": 34963
    },
    {
      "buffer": 0,
      "byteLength": 584328,
      "byteOffset": 537312,
      "byteStride": 8,
      "name": "floatBufferViews",
      "target": 34962
    },
    {
      "buffer": 0,
      "byteLength": 584328,
      "byteOffset": 1121640,
      "byteStride": 12,
      "name": "floatBufferViews",
      "target": 34962
    },
    {
      "buffer": 0,
      "byteLength": 779104,
      "byteOffset": 1705968,
      "byteStride": 16,
      "name": "floatBufferViews",
      "target": 34962
    }
  ],
  "buffers": [
    {
      "byteLength": 2485072,
      "uri": "scene.bin"
    }
  ],
  "images": [
    {
      "uri": "textures/blade_l_baseColor.png"
    },
    {
      "uri": "textures/blade_l_metallicRoughness.png"
    },
    {
      "uri": "textures/blade_l_normal.png"
    },
    {
      "uri": "textures/blade_r_baseColor.png"
    },
    {
      "uri": "textures/blade_r_metallicRoughness.png"
    },
    {
      "uri": "textures/blade_r_normal.png"
    }
  ],
  "materials": [
    {
      "doubleSided": true,
      "emissiveFactor": [
        0,
        0,
        0
      ],
      "name": "blade_l",
      "normalTexture": {
        "index": 2,
        "scale": 1,
        "texCoord": 0
      },
      "pbrMetallicRoughness": {
        "baseColorFactor": [
          1,
          1,
          1,
          1
        ],
        "baseColorTexture": {
          "index": 0,
          "texCoord": 0
        },
        "metallicFactor": 1,
        "metallicRoughnessTexture": {
          "index": 1,
          "texCoord": 0
        },
        "roughnessFactor": 1
      }
    },
    {
      "doubleSided": true,
      "emissiveFactor": [
        0,
        0,
        0
      ],
      "name": "blade_r",
      "normalTexture": {
        "index": 5,
        "scale": 1,
        "texCoord": 0
      },
      "pbrMetallicRoughness": {
        "baseColorFactor": [
          1,
          1,
          1,
          1
        ],
        "baseColorTexture": {
          "index": 3,
          "texCoord": 0
        },
        "metallicFactor": 1,
        "metallicRoughnessTexture": {
          "index": 4,
          "texCoord": 0
        },
        "roughnessFactor": 1
      }
    }
  ],
  "meshes": [
    {
      "name": "blade_L_blade_l_0",
      "primitives": [
        {
          "attributes": {
            "COLOR_0": 3,
            "NORMAL": 1,
            "POSITION": 0,
            "TANGENT": 2,
            "TEXCOORD_0": 4,
            "TEXCOORD_1": 5,
            "TEXCOORD_2": 6
          },
          "indices": 7,
          "material": 0,
          "mode": 4
        }
      ]
    },
    {
      "name": "blade_R_blade_r_0",
      "primitives": [
        {
          "attributes": {
            "COLOR_0": 11,
            "NORMAL": 9,
            "POSITION": 8,
            "TANGENT": 10,
            "TEXCOORD_0": 12,
            "TEXCOORD_1": 13,
            "TEXCOORD_2": 14
          },
          "indices": 15,
          "material": 1,
          "mode": 4
        }
      ]
    }
  ],
  "nodes": [
    {
      "children": [
        1
      ],
      "name": "RootNode (gltf orientation matrix)",
      "rotation": [
        -0.70710678118654746,
        -0,
        -0,
        0.70710678118654757
      ]
    },
    {
      "children": [
        2
      ],
      "matrix": [
        1,
        0,
        0,
        0,
        0,
        1,
        0,
        0,
        0,
        0,
        1,
        0,
        -0.5278620719909668,
        -2.33787818615383e-06,
        1.082256062545639e-08,
        1
      ],
      "name": "RootNode (model correction matrix)"
    },
    {
      "children": [
        3
      ],
      "matrix": [
        1,
        0,
        0,
        0,
        0,
        0,
        1,
        0,
        0,
        -1,
        0,
        0,
        0,
        0,
        0,
        1
      ],
      "name": "4e16488386ed4439b4837dc784ff6c43.fbx"
    },
    {
      "children": [
        4
      ],
      "name": "RootNode"
    },
    {
      "children": [
        5,
        6
      ],
      "matrix": [
        -99.999999999999602,
        -8.7422779804564875e-06,
        0,
        0,
        -1.4242978711041864e-12,
        1.6292067994694293e-05,
        99.99999999999865,
        0,
        -8.7422779804563706e-06,
        99.99999999999828,
        -1.6292067983592062e-05,
        0,
        3.0194218158721924,
        21.057384490966797,
        0.52932804822921753,
        1
      ],
      "name": "blade_L"
    },
    {
      "mesh": 0,
      "name": "blade_L_blade_l_0"
    },
    {
      "children": [
        7
      ],
      "matrix": [
        -0.80740530153901013,
        7.058561588948346e-08,
        -0.58999718562608028,
        0,
        -8.742277980456488e-08,
        -0.99999999999999623,
        -2.6469779601696886e-23,
        0,
        -0.58999718562607806,
        5.1579194044301779e-08,
        0.80740530153901302,
        0,
        -0.001861967146396637,
        -0.0045979353599250317,
        0,
        1
      ],
      "name": "blade_R"
    },
    {
      "mesh": 1,
      "name": "blade_R_blade_r_0"
    }
  ],
  "samplers": [
    {
      "magFilter": 9729,
      "minFilter": 9987,
      "wrapS": 10497,
      "wrapT": 10497
    }
  ],
  "scene": 0,
  "scenes": [
    {
      "name": "OSG_Scene",
      "nodes": [
        0
      ]
    }
  ],
  "textures": [
    {
      "sampler": 0,
      "source": 0
    },
    {
      "sampler": 0,
      "source": 1
    },
    {
      "sampler": 0,
      "source": 2
    },
    {
      "sampler": 0,
      "source": 3
    },
    {
      "sampler": 0,
      "source": 4
    },
    {
      "sampler": 0,
      "source": 5
    }
  ]
}

