{
  "accessors": [
    {
      "bufferView": 2,
      "componentType": 5126,
      "count": 2550,
      "max": [
        0.0027438972610980272,
        0.0027438972610980272,
        0.00050000002374872565
      ],
      "min": [
        -0.0027438972610980272,
        -0.0027451389469206333,
        -0.007576164323836565
      ],
      "type": "VEC3"
    },
    {
      "bufferView": 2,
      "byteOffset": 30600,
      "componentType": 5126,
      "count": 2550,
      "max": [
        1,
        1,
        1
      ],
      "min": [
        -1,
        -1,
        -1
      ],
      "type": "VEC3"
    },
    {
      "bufferView": 3,
      "componentType": 5126,
      "count": 2550,
      "max": [
        0.99999833106994629,
        1,
        0.99999523162841797,
        1
      ],
      "min": [
        -0.9999992847442627,
        -1,
        -0.99999535083770752,
        1
      ],
      "type": "VEC4"
    },
    {
      "bufferView": 1,
      "componentType": 5126,
      "count": 2550,
      "max": [
        0.99963390827178955,
        0.93319523334503174
      ],
      "min": [
        0.00036608750815503299,
        0.00036608750815503299
      ],
      "type": "VEC2"
    },
    {
      "bufferView": 1,
      "byteOffset": 20400,
      "componentType": 5126,
      "count": 2550,
      "max": [
        0.99963390827178955,
        0.93319523334503174
      ],
      "min": [
        0.00036608750815503299,
        0.00036608750815503299
      ],
      "type": "VEC2"
    },
    {
      "bufferView": 1,
      "byteOffset": 40800,
      "componentType": 5126,
      "count": 2550,
      "max": [
        0.99963390827178955,
        0.93319523334503174
      ],
      "min": [
        0.00036608750815503299,
        0.00036608750815503299
      ],
      "type": "VEC2"
    },
    {
      "bufferView": 1,
      "byteOffset": 61200,
      "componentType": 5126,
      "count": 2550,
      "max": [
        0.99963390827178955,
        0.93319523334503174
      ],
      "min": [
        0.00036608750815503299,
        0.00036608750815503299
      ],
      "type": "VEC2"
    },
    {
      "bufferView": 1,
      "byteOffset": 81600,
      "componentType": 5126,
      "count": 2550,
      "max": [
        0.99963390827178955,
        0.93319523334503174
      ],
      "min": [
        0.00036608750815503299,
        0.00036608750815503299
      ],
      "type": "VEC2"
    },
    {
      "bufferView": 0,
      "componentType": 5125,
      "count": 11232,
      "max": [
        2237
      ],
      "min": [
        0
      ],
      "type": "SCALAR"
    },
    {
      "bufferView": 2,
      "byteOffset": 61200,
      "componentType": 5126,
      "count": 2550,
      "max": [
        0.0027438972610980272,
        0.0027438972610980272,
        0.00050000002374872565
      ],
      "min": [
        -0.0027438972610980272,
        -0.0027451389469206333,
        -0.007576164323836565
      ],
      "type": "VEC3"
    },
    {
      "bufferView": 2,
      "byteOffset": 91800,
      "componentType": 5126,
      "count": 2550,
      "max": [
        1,
        1,
        1
      ],
      "min": [
        -1,
        -1,
        -1
      ],
      "type": "VEC3"
    },
    {
      "bufferView": 3,
      "byteOffset": 40800,
      "componentType": 5126,
      "count": 2550,
      "max": [
        0.99999833106994629,
        1,
        0.99999523162841797,
        1
      ],
      "min": [
        -0.9999992847442627,
        -1,
        -0.99999535083770752,
        1
      ],
      "type": "VEC4"
    },
    {
      "bufferView": 1,
      "byteOffset": 102000,
      "componentType": 5126,
      "count": 2550,
      "max": [
        0.99963390827178955,
        0.93319523334503174
      ],
      "min": [
        0.00036608750815503299,
        0.00036608750815503299
      ],
      "type": "VEC2"
    },
    {
      "bufferView": 1,
      "byteOffset": 122400,
      "componentType": 5126,
      "count": 2550,
      "max": [
        0.99963390827178955,
        0.93319523334503174
      ],
      "min": [
        0.00036608750815503299,
        0.00036608750815503299
      ],
      "type": "VEC2"
    },
    {
      "bufferView": 1,
      "byteOffset": 142800,
      "componentType": 5126,
      "count": 2550,
      "max": [
        0.99963390827178955,
        0.93319523334503174
      ],
      "min": [
        0.00036608750815503299,
        0.00036608750815503299
      ],
      "type": "VEC2"
    },
    {
      "bufferView": 1,
      "byteOffset": 163200,
      "componentType": 5126,
      "count": 2550,
      "max": [
        0.99963390827178955,
        0.93319523334503174
      ],
      "min": [
        0.00036608750815503299,
        0.00036608750815503299
      ],
      "type": "VEC2"
    },
    {
      "bufferView": 1,
      "byteOffset": 183600,
      "componentType": 5126,
      "count": 2550,
      "max": [
        0.99963390827178955,
        0.93319523334503174
      ],
      "min": [
        0.00036608750815503299,
        0.00036608750815503299
      ],
      "type": "VEC2"
    },
    {
      "bufferView": 0,
      "byteOffset": 44928,
      "componentType": 5125,
      "count": 1584,
      "max": [
        2549
      ],
      "min": [
        2238
      ],
      "type": "SCALAR"
    }
  ],
  "asset": {
    "extras": {
      "author": "Ziyuway (https://sketchfab.com/Ziyuway)",
      "license": "CC-BY-4.0 (http://creativecommons.org/licenses/by/4.0/)",
      "source": "https://sketchfab.com/3d-models/hourglass-49b2bb2c0f8048859956fd02ca43525d",
      "title": "Hourglass"
    },
    "generator": "Sketchfab-7.44.0",
    "version": "2.0"
  },
  "bufferViews": [
    {
      "buffer": 0,
      "byteLength": 51264,
      "byteOffset": 0,
      "name": "floatBufferViews",
      "target": 34963
    },
    {
      "buffer": 0,
      "byteLength": 204000,
      "byteOffset": 51264,
      "byteStride": 8,
      "name": "floatBufferViews",
      "target": 34962
    },
    {
      "buffer": 0,
      "byteLength": 122400,
      "byteOffset": 255264,
      "byteStride": 12,
      "name": "floatBufferViews",
      "target": 34962
    },
    {
      "buffer": 0,
      "byteLength": 81600,
      "byteOffset": 377664,
      "byteStride": 16,
      "name": "floatBufferViews",
      "target": 34962
    }
  ],
  "buffers": [
    {
      "byteLength": 459264,
      "uri": "scene.bin"
    }
  ],
  "images": [
    {
      "uri": "textures/HourGlass_baseColor.png"
    },
    {
      "uri": "textures/HourGlass_metallicRoughness.png"
    },
    {
      "uri": "textures/HourGlass_normal.png"
    },
    {
      "uri": "textures/HourGlassOpacity_baseColor.png"
    }
  ],
  "materials": [
    {
      "doubleSided": false,
      "emissiveFactor": [
        0,
        0,
        0
      ],
      "name": "HourGlass",
      "normalTexture": {
        "index": 2,
        "scale": 1,
        "texCoord": 0
      },
      "occlusionTexture": {
        "index": 1,
        "strength": 1,
        "texCoord": 0
      },
      "pbrMetallicRoughness": {
        "baseColorFactor": [
          1,
          1,
          1,
          1
        ],
        "baseColorTexture": {
          "index": 0,
          "texCoord": 0
        },
        "metallicFactor": 0,
        "metallicRoughnessTexture": {
          "index": 1,
          "texCoord": 0
        },
        "roughnessFactor": 0.5
      }
    },
    {
      "alphaMode": "BLEND",
      "doubleSided": false,
      "emissiveFactor": [
        0,
        0,
        0
      ],
      "name": "HourGlassOpacity",
      "normalTexture": {
        "index": 2,
        "scale": 1,
        "texCoord": 0
      },
      "occlusionTexture": {
        "index": 1,
        "strength": 0.91300000000000003,
        "texCoord": 0
      },
      "pbrMetallicRoughness": {
        "baseColorFactor": [
          0.96226400000000001,
          0.96226400000000001,
          0.96226400000000001,
          1
        ],
        "baseColorTexture": {
          "index": 3,
          "texCoord": 0
        },
        "metallicFactor": 0,
        "metallicRoughnessTexture": {
          "index": 1,
          "texCoord": 0
        },
        "roughnessFactor": 0.5
      }
    }
  ],
  "meshes": [
    {
      "primitives": [
        {
          "attributes": {
            "NORMAL": 1,
            "POSITION": 0,
            "TANGENT": 2,
            "TEXCOORD_0": 3,
            "TEXCOORD_1": 4,
            "TEXCOORD_2": 5,
            "TEXCOORD_3": 6,
            "TEXCOORD_4": 7
          },
          "indices": 8,
          "material": 0,
          "mode": 4
        }
      ]
    },
    {
      "primitives": [
        {
          "attributes": {
            "NORMAL": 10,
            "POSITION": 9,
            "TANGENT": 11,
            "TEXCOORD_0": 12,
            "TEXCOORD_1": 13,
            "TEXCOORD_2": 14,
            "TEXCOORD_3": 15,
            "TEXCOORD_4": 16
          },
          "indices": 17,
          "material": 1,
          "mode": 4
        }
      ]
    }
  ],
  "nodes": [
    {
      "children": [
        1
      ],
      "name": "RootNode (gltf orientation matrix)",
      "rotation": [
        -0.70710678118654746,
        -0,
        -0,
        0.70710678118654757
      ]
    },
    {
      "children": [
        2
      ],
      "name": "RootNode (model correction matrix)"
    },
    {
      "children": [
        3
      ],
      "name": "root"
    },
    {
      "children": [
        4
      ],
      "matrix": [
        1,
        0,
        0,
        0,
        0,
        2.2204460492503131e-16,
        1,
        0,
        0,
        -1,
        2.2204460492503131e-16,
        0,
        0,
        0,
        0,
        1
      ],
      "name": "GLTF_SceneRootNode"
    },
    {
      "children": [
        5,
        6
      ],
      "matrix": [
        100,
        -0,
        0,
        0,
        0,
        -1.6858737120709022e-05,
        99.999984741209516,
        0,
        -0,
        -99.999984741209516,
        -1.6858737120709022e-05,
        0,
        0,
        0,
        0,
        1
      ],
      "name": "HourGlass_0"
    },
    {
      "mesh": 0,
      "name": ""
    },
    {
      "mesh": 1,
      "name": ""
    }
  ],
  "samplers": [
    {
      "magFilter": 9729,
      "minFilter": 9729,
      "wrapS": 10497,
      "wrapT": 10497
    }
  ],
  "scene": 0,
  "scenes": [
    {
      "name": "OSG_Scene",
      "nodes": [
        0
      ]
    }
  ],
  "textures": [
    {
      "sampler": 0,
      "source": 0
    },
    {
      "sampler": 0,
      "source": 1
    },
    {
      "sampler": 0,
      "source": 2
    },
    {
      "sampler": 0,
      "source": 3
    }
  ]
}

