{
  "accessors": [
    {
      "bufferView": 2,
      "componentType": 5126,
      "count": 1414,
      "max": [
        1.3607479333877563,
        7.7253475189208984,
        1.2795002460479736
      ],
      "min": [
        -1.7058587074279785,
        0.16756606101989746,
        -1.7351107597351074
      ],
      "type": "VEC3"
    },
    {
      "bufferView": 2,
      "byteOffset": 16968,
      "componentType": 5126,
      "count": 1414,
      "max": [
        1,
        0.051212124526500702,
        1
      ],
      "min": [
        -1,
        -0.051212124526500702,
        -1
      ],
      "type": "VEC3"
    },
    {
      "bufferView": 1,
      "componentType": 5126,
      "count": 1414,
      "max": [
        0.99565666913986206,
        0.94642859697341919
      ],
      "min": [
        0.0047997059300541878,
        0.053571414202451706
      ],
      "type": "VEC2"
    },
    {
      "bufferView": 1,
      "byteOffset": 11312,
      "componentType": 5126,
      "count": 1414,
      "max": [
        0.99565666913986206,
        0.94642859697341919
      ],
      "min": [
        0.0047997059300541878,
        0.053571414202451706
      ],
      "type": "VEC2"
    },
    {
      "bufferView": 0,
      "componentType": 5125,
      "count": 6912,
      "max": [
        1413
      ],
      "min": [
        0
      ],
      "type": "SCALAR"
    },
    {
      "bufferView": 2,
      "byteOffset": 33936,
      "componentType": 5126,
      "count": 2893,
      "max": [
        2.0189900398254395,
        8.1092090606689453,
        2.0189900398254395
      ],
      "min": [
        -2.0189900398254395,
        0,
        -2.0189900398254395
      ],
      "type": "VEC3"
    },
    {
      "bufferView": 2,
      "byteOffset": 68652,
      "componentType": 5126,
      "count": 2893,
      "max": [
        0.99955630302429199,
        1,
        0.99932467937469482
      ],
      "min": [
        -0.99978089332580566,
        -1,
        -0.99994742870330811
      ],
      "type": "VEC3"
    },
    {
      "bufferView": 1,
      "byteOffset": 22624,
      "componentType": 5126,
      "count": 2893,
      "max": [
        0.99819099903106689,
        0.98214280605316162
      ],
      "min": [
        0.0010766277555376291,
        0.017779277637600899
      ],
      "type": "VEC2"
    },
    {
      "bufferView": 1,
      "byteOffset": 45768,
      "componentType": 5126,
      "count": 2893,
      "max": [
        0.99819099903106689,
        0.98214280605316162
      ],
      "min": [
        0.0010766277555376291,
        0.017779277637600899
      ],
      "type": "VEC2"
    },
    {
      "bufferView": 0,
      "byteOffset": 27648,
      "componentType": 5125,
      "count": 11808,
      "max": [
        2892
      ],
      "min": [
        0
      ],
      "type": "SCALAR"
    },
    {
      "bufferView": 2,
      "byteOffset": 103368,
      "componentType": 5126,
      "count": 28522,
      "max": [
        0.93042206764221191,
        4.531306266784668,
        0.93042206764221191
      ],
      "min": [
        -0.93042206764221191,
        -1.0107444524765015,
        -0.93042206764221191
      ],
      "type": "VEC3"
    },
    {
      "bufferView": 2,
      "byteOffset": 445632,
      "componentType": 5126,
      "count": 28522,
      "max": [
        1,
        1,
        1
      ],
      "min": [
        -1,
        -1,
        -1
      ],
      "type": "VEC3"
    },
    {
      "bufferView": 1,
      "byteOffset": 68912,
      "componentType": 5126,
      "count": 28522,
      "max": [
        1.0000001192092896,
        1.7602810859680176
      ],
      "min": [
        0,
        -1.010744571685791
      ],
      "type": "VEC2"
    },
    {
      "bufferView": 0,
      "byteOffset": 74880,
      "componentType": 5125,
      "count": 158976,
      "max": [
        28521
      ],
      "min": [
        0
      ],
      "type": "SCALAR"
    },
    {
      "bufferView": 2,
      "byteOffset": 787896,
      "componentType": 5126,
      "count": 5494,
      "max": [
        0.91060304641723633,
        0.4147566556930542,
        0.91060304641723633
      ],
      "min": [
        -0.91060304641723633,
        -0.98112624883651733,
        -0.91060304641723633
      ],
      "type": "VEC3"
    },
    {
      "bufferView": 2,
      "byteOffset": 853824,
      "componentType": 5126,
      "count": 5494,
      "max": [
        0.99998652935028076,
        1,
        0.99998652935028076
      ],
      "min": [
        -0.99998652935028076,
        -1,
        -0.99998652935028076
      ],
      "type": "VEC3"
    },
    {
      "bufferView": 1,
      "byteOffset": 297088,
      "componentType": 5126,
      "count": 5494,
      "max": [
        1,
        1
      ],
      "min": [
        0,
        0
      ],
      "type": "VEC2"
    },
    {
      "bufferView": 1,
      "byteOffset": 341040,
      "componentType": 5126,
      "count": 5494,
      "max": [
        1,
        1
      ],
      "min": [
        0,
        0
      ],
      "type": "VEC2"
    },
    {
      "bufferView": 1,
      "byteOffset": 384992,
      "componentType": 5126,
      "count": 5494,
      "max": [
        1,
        1
      ],
      "min": [
        0,
        0
      ],
      "type": "VEC2"
    },
    {
      "bufferView": 1,
      "byteOffset": 428944,
      "componentType": 5126,
      "count": 5494,
      "max": [
        1,
        1
      ],
      "min": [
        0,
        0
      ],
      "type": "VEC2"
    },
    {
      "bufferView": 0,
      "byteOffset": 710784,
      "componentType": 5125,
      "count": 31104,
      "max": [
        5493
      ],
      "min": [
        0
      ],
      "type": "SCALAR"
    },
    {
      "bufferView": 2,
      "byteOffset": 919752,
      "componentType": 5126,
      "count": 2753,
      "max": [
        0.9935951828956604,
        -3.1202511308947578e-05,
        0.99359524250030518
      ],
      "min": [
        -0.99359524250030518,
        -0.062544070184230804,
        -0.99359530210494995
      ],
      "type": "VEC3"
    },
    {
      "bufferView": 2,
      "byteOffset": 952788,
      "componentType": 5126,
      "count": 2753,
      "max": [
        1,
        1,
        1
      ],
      "min": [
        -1,
        0.00036622464540414512,
        -1
      ],
      "type": "VEC3"
    },
    {
      "bufferView": 1,
      "byteOffset": 472896,
      "componentType": 5126,
      "count": 2753,
      "max": [
        0,
        0
      ],
      "min": [
        0,
        0
      ],
      "type": "VEC2"
    },
    {
      "bufferView": 0,
      "byteOffset": 835200,
      "componentType": 5125,
      "count": 16128,
      "max": [
        2752
      ],
      "min": [
        0
      ],
      "type": "SCALAR"
    }
  ],
  "asset": {
    "extras": {
      "author": "jc sekinger (https://sketchfab.com/jc.sekinger)",
      "license": "CC-BY-4.0 (http://creativecommons.org/licenses/by/4.0/)",
      "source": "https://sketchfab.com/3d-models/55-minutes-hourglass-dbb6856b60da47f0aec3f81863a75ca9",
      "title": "55 minutes hourglass"
    },
    "generator": "Sketchfab-8.47.0",
    "version": "2.0"
  },
  "bufferViews": [
    {
      "buffer": 0,
      "byteLength": 899712,
      "byteOffset": 0,
      "name": "floatBufferViews",
      "target": 34963
    },
    {
      "buffer": 0,
      "byteLength": 494920,
      "byteOffset": 899712,
      "byteStride": 8,
      "name": "floatBufferViews",
      "target": 34962
    },
    {
      "buffer": 0,
      "byteLength": 985824,
      "byteOffset": 1394632,
      "byteStride": 12,
      "name": "floatBufferViews",
      "target": 34962
    }
  ],
  "buffers": [
    {
      "byteLength": 2380456,
      "uri": "scene.bin"
    }
  ],
  "extensionsRequired": [
    "KHR_materials_pbrSpecularGlossiness"
  ],
  "extensionsUsed": [
    "KHR_materials_pbrSpecularGlossiness"
  ],
  "images": [
    {
      "uri": "textures/pieds_diffuse.png"
    },
    {
      "uri": "textures/socles_diffuse.png"
    },
    {
      "uri": "textures/sable_diffuse.png"
    },
    {
      "uri": "textures/sable_specularGlossiness.png"
    }
  ],
  "materials": [
    {
      "doubleSided": true,
      "emissiveFactor": [
        0,
        0,
        0
      ],
      "extensions": {
        "KHR_materials_pbrSpecularGlossiness": {
          "diffuseFactor": [
            1,
            1,
            1,
            1
          ],
          "diffuseTexture": {
            "index": 0,
            "texCoord": 0
          },
          "glossinessFactor": 0.25458400000000003,
          "specularFactor": [
            0,
            0,
            0
          ]
        }
      },
      "name": "pieds"
    },
    {
      "doubleSided": false,
      "emissiveFactor": [
        0,
        0,
        0
      ],
      "extensions": {
        "KHR_materials_pbrSpecularGlossiness": {
          "diffuseFactor": [
            1,
            1,
            1,
            1
          ],
          "diffuseTexture": {
            "index": 1,
            "texCoord": 0
          },
          "glossinessFactor": 0.25458400000000003,
          "specularFactor": [
            0,
            0,
            0
          ]
        }
      },
      "name": "socles"
    },
    {
      "alphaMode": "BLEND",
      "doubleSided": true,
      "emissiveFactor": [
        0,
        0,
        0
      ],
      "extensions": {
        "KHR_materials_pbrSpecularGlossiness": {
          "diffuseFactor": [
            0,
            0,
            0,
            0.044692118400000001
          ],
          "glossinessFactor": 0.99522820999999995,
          "specularFactor": [
            1,
            1,
            1
          ]
        }
      },
      "name": "verre"
    },
    {
      "doubleSided": true,
      "extensions": {
        "KHR_materials_pbrSpecularGlossiness": {
          "diffuseFactor": [
            1,
            1,
            1,
            1
          ],
          "diffuseTexture": {
            "index": 2,
            "texCoord": 0
          },
          "glossinessFactor": 1,
          "specularFactor": [
            0,
            0,
            0
          ],
          "specularGlossinessTexture": {
            "index": 3,
            "texCoord": 0
          }
        }
      },
      "name": "sable"
    },
    {
      "doubleSided": true,
      "emissiveFactor": [
        0,
        0,
        0
      ],
      "extensions": {
        "KHR_materials_pbrSpecularGlossiness": {
          "diffuseFactor": [
            0.0077417726999999999,
            0.0089817673000000004,
            0.011750637499999999,
            1
          ],
          "glossinessFactor": 0.86363599999999996,
          "specularFactor": [
            0.0262834835,
            0.0262834835,
            0.0262834835
          ]
        }
      },
      "name": "Material"
    }
  ],
  "meshes": [
    {
      "primitives": [
        {
          "attributes": {
            "NORMAL": 1,
            "POSITION": 0,
            "TEXCOORD_0": 2,
            "TEXCOORD_1": 3
          },
          "indices": 4,
          "material": 0,
          "mode": 4
        }
      ]
    },
    {
      "primitives": [
        {
          "attributes": {
            "NORMAL": 6,
            "POSITION": 5,
            "TEXCOORD_0": 7,
            "TEXCOORD_1": 8
          },
          "indices": 9,
          "material": 1,
          "mode": 4
        }
      ]
    },
    {
      "primitives": [
        {
          "attributes": {
            "NORMAL": 11,
            "POSITION": 10,
            "TEXCOORD_0": 12
          },
          "indices": 13,
          "material": 2,
          "mode": 4
        }
      ]
    },
    {
      "primitives": [
        {
          "attributes": {
            "NORMAL": 15,
            "POSITION": 14,
            "TEXCOORD_0": 16,
            "TEXCOORD_1": 17,
            "TEXCOORD_2": 18,
            "TEXCOORD_3": 19
          },
          "indices": 20,
          "material": 3,
          "mode": 4
        }
      ]
    },
    {
      "primitives": [
        {
          "attributes": {
            "NORMAL": 22,
            "POSITION": 21,
            "TEXCOORD_0": 23
          },
          "indices": 24,
          "material": 4,
          "mode": 4
        }
      ]
    }
  ],
  "nodes": [
    {
      "children": [
        1
      ],
      "name": "RootNode (gltf orientation matrix)",
      "rotation": [
        -0.70710678118654746,
        -0,
        -0,
        0.70710678118654757
      ]
    },
    {
      "children": [
        2
      ],
      "name": "RootNode (model correction matrix)"
    },
    {
      "children": [
        3
      ],
      "name": "root"
    },
    {
      "children": [
        4,
        6,
        8,
        10,
        12
      ],
      "matrix": [
        1,
        0,
        0,
        0,
        0,
        2.2204460492503131e-16,
        1,
        0,
        0,
        -1,
        2.2204460492503131e-16,
        0,
        0,
        0,
        0,
        1
      ],
      "name": "GLTF_SceneRootNode"
    },
    {
      "children": [
        5
      ],
      "matrix": [
        -0.50000008286144215,
        0,
        -0.86602535594435737,
        0,
        0,
        1,
        0,
        0,
        0.86602535594435737,
        0,
        -0.50000008286144215,
        0,
        0,
        0.11056512594223022,
        0,
        1
      ],
      "name": "pieds_0"
    },
    {
      "mesh": 0,
      "name": ""
    },
    {
      "children": [
        7
      ],
      "matrix": [
        1,
        0,
        0,
        0,
        0,
        1,
        0,
        0,
        0,
        0,
        1,
        0,
        0,
        0.0024178028106689453,
        0,
        1
      ],
      "name": "socles_1"
    },
    {
      "mesh": 1,
      "name": ""
    },
    {
      "children": [
        9
      ],
      "matrix": [
        1.2524422407150269,
        0,
        0,
        0,
        0,
        1.2524422407150269,
        0,
        0,
        0,
        0,
        1.2524422407150269,
        0,
        0,
        1.8523720502853394,
        0,
        1
      ],
      "name": "ampoules_2"
    },
    {
      "mesh": 2,
      "name": ""
    },
    {
      "children": [
        11
      ],
      "matrix": [
        1.2524422407150269,
        0,
        0,
        0,
        0,
        1.2524422407150269,
        0,
        0,
        0,
        0,
        1.2524422407150269,
        0,
        0,
        1.8523720502853394,
        0,
        1
      ],
      "name": "sable_3"
    },
    {
      "mesh": 3,
      "name": ""
    },
    {
      "children": [
        13
      ],
      "matrix": [
        5.4431934356689453,
        0,
        0,
        0,
        0,
        5.4431934356689453,
        0,
        0,
        0,
        0,
        5.4431934356689453,
        0,
        0,
        0,
        0,
        1
      ],
      "name": "table_4"
    },
    {
      "mesh": 4,
      "name": ""
    }
  ],
  "samplers": [
    {
      "magFilter": 9729,
      "minFilter": 9987,
      "wrapS": 10497,
      "wrapT": 10497
    }
  ],
  "scene": 0,
  "scenes": [
    {
      "name": "OSG_Scene",
      "nodes": [
        0
      ]
    }
  ],
  "textures": [
    {
      "sampler": 0,
      "source": 0
    },
    {
      "sampler": 0,
      "source": 1
    },
    {
      "sampler": 0,
      "source": 2
    },
    {
      "sampler": 0,
      "source": 3
    }
  ]
}

