{
  "accessors": [
    {
      "bufferView": 2,
      "componentType": 5126,
      "count": 1917,
      "max": [
        26.376445770263672,
        23.573749542236328,
        55.545677185058594
      ],
      "min": [
        -26.376445770263672,
        -23.573753356933594,
        -1.8325119018554688
      ],
      "type": "VEC3"
    },
    {
      "bufferView": 2,
      "byteOffset": 23004,
      "componentType": 5126,
      "count": 1917,
      "max": [
        1,
        1,
        1
      ],
      "min": [
        -1,
        -1,
        -1
      ],
      "type": "VEC3"
    },
    {
      "bufferView": 3,
      "componentType": 5126,
      "count": 1917,
      "max": [
        1,
        1,
        1,
        1
      ],
      "min": [
        -0.99056702852249146,
        -1,
        -1,
        1
      ],
      "type": "VEC4"
    },
    {
      "bufferView": 1,
      "componentType": 5126,
      "count": 1917,
      "max": [
        0.74934208393096924,
        0.9781571626663208
      ],
      "min": [
        0.020796138793230057,
        0.32528755068778992
      ],
      "type": "VEC2"
    },
    {
      "bufferView": 0,
      "componentType": 5125,
      "count": 6474,
      "max": [
        1916
      ],
      "min": [
        0
      ],
      "type": "SCALAR"
    },
    {
      "bufferView": 2,
      "byteOffset": 46008,
      "componentType": 5126,
      "count": 1732,
      "max": [
        19.572319030761719,
        -16.440689086914062,
        48.976509094238281
      ],
      "min": [
        10.459178924560547,
        -61.916610717773438,
        4.7366447448730469
      ],
      "type": "VEC3"
    },
    {
      "bufferView": 2,
      "byteOffset": 66792,
      "componentType": 5126,
      "count": 1732,
      "max": [
        1,
        0.99844455718994141,
        0.99240511655807495
      ],
      "min": [
        -1,
        -1,
        -1
      ],
      "type": "VEC3"
    },
    {
      "bufferView": 3,
      "byteOffset": 30672,
      "componentType": 5126,
      "count": 1732,
      "max": [
        0.99999070167541504,
        0.99993759393692017,
        1,
        1
      ],
      "min": [
        -0.98786205053329468,
        -0.97659826278686523,
        -1,
        1
      ],
      "type": "VEC4"
    },
    {
      "bufferView": 1,
      "byteOffset": 15336,
      "componentType": 5126,
      "count": 1732,
      "max": [
        0.79095041751861572,
        0.96474242210388184
      ],
      "min": [
        0.59655797481536865,
        0.37261417508125305
      ],
      "type": "VEC2"
    },
    {
      "bufferView": 0,
      "byteOffset": 25896,
      "componentType": 5125,
      "count": 5709,
      "max": [
        1731
      ],
      "min": [
        0
      ],
      "type": "SCALAR"
    },
    {
      "bufferView": 2,
      "byteOffset": 87576,
      "componentType": 5126,
      "count": 747,
      "max": [
        23.621246337890625,
        -43.255355834960938,
        30.045248031616211
      ],
      "min": [
        19.556188583374023,
        -56.48492431640625,
        17.500272750854492
      ],
      "type": "VEC3"
    },
    {
      "bufferView": 2,
      "byteOffset": 96540,
      "componentType": 5126,
      "count": 747,
      "max": [
        1,
        1,
        1
      ],
      "min": [
        -1,
        -1,
        -1
      ],
      "type": "VEC3"
    },
    {
      "bufferView": 3,
      "byteOffset": 58384,
      "componentType": 5126,
      "count": 747,
      "max": [
        1,
        0.94673913717269897,
        0.99999618530273438,
        1
      ],
      "min": [
        -0.99999821186065674,
        -1,
        -1,
        1
      ],
      "type": "VEC4"
    },
    {
      "bufferView": 1,
      "byteOffset": 29192,
      "componentType": 5126,
      "count": 747,
      "max": [
        0.99280881881713867,
        0.85732465982437134
      ],
      "min": [
        0.76119190454483032,
        0.2596592903137207
      ],
      "type": "VEC2"
    },
    {
      "bufferView": 0,
      "byteOffset": 48732,
      "componentType": 5125,
      "count": 2328,
      "max": [
        746
      ],
      "min": [
        0
      ],
      "type": "SCALAR"
    },
    {
      "bufferView": 2,
      "byteOffset": 105504,
      "componentType": 5126,
      "count": 664,
      "max": [
        22.516942977905273,
        -32.991901397705078,
        33.949966430664062
      ],
      "min": [
        19.568862915039062,
        -39.756343841552734,
        27.288291931152344
      ],
      "type": "VEC3"
    },
    {
      "bufferView": 2,
      "byteOffset": 113472,
      "componentType": 5126,
      "count": 664,
      "max": [
        1,
        1,
        0.98480784893035889
      ],
      "min": [
        -1,
        -1,
        -0.98480790853500366
      ],
      "type": "VEC3"
    },
    {
      "bufferView": 3,
      "byteOffset": 70336,
      "componentType": 5126,
      "count": 664,
      "max": [
        0.99999696016311646,
        0.99999314546585083,
        1,
        1
      ],
      "min": [
        -0.99988460540771484,
        -1,
        -1,
        1
      ],
      "type": "VEC4"
    },
    {
      "bufferView": 1,
      "byteOffset": 35168,
      "componentType": 5126,
      "count": 664,
      "max": [
        0.98375588655471802,
        0.30066025257110596
      ],
      "min": [
        0.011437099426984787,
        0.013491885736584663
      ],
      "type": "VEC2"
    },
    {
      "bufferView": 0,
      "byteOffset": 58044,
      "componentType": 5125,
      "count": 1872,
      "max": [
        663
      ],
      "min": [
        0
      ],
      "type": "SCALAR"
    }
  ],
  "asset": {
    "extras": {
      "author": "avhatar (https://sketchfab.com/avhatar)",
      "license": "CC-BY-4.0 (http://creativecommons.org/licenses/by/4.0/)",
      "source": "https://sketchfab.com/models/2e308cb3fe1d4676beb43e75fdd27e8e",
      "title": "Simple Safe"
    },
    "generator": "Sketchfab-3.19.3",
    "version": "2.0"
  },
  "bufferViews": [
    {
      "buffer": 0,
      "byteLength": 65532,
      "byteOffset": 0,
      "name": "floatBufferViews",
      "target": 34963
    },
    {
      "buffer": 0,
      "byteLength": 40480,
      "byteOffset": 65532,
      "byteStride": 8,
      "name": "floatBufferViews",
      "target": 34962
    },
    {
      "buffer": 0,
      "byteLength": 121440,
      "byteOffset": 106012,
      "byteStride": 12,
      "name": "floatBufferViews",
      "target": 34962
    },
    {
      "buffer": 0,
      "byteLength": 80960,
      "byteOffset": 227452,
      "byteStride": 16,
      "name": "floatBufferViews",
      "target": 34962
    }
  ],
  "buffers": [
    {
      "byteLength": 308412,
      "uri": "scene.bin"
    }
  ],
  "images": [
    {
      "uri": "textures/Mat1_normal.png"
    },
    {
      "uri": "textures/Mat1_metallicRoughness.png"
    },
    {
      "uri": "textures/Mat1_baseColor.png"
    }
  ],
  "materials": [
    {
      "doubleSided": true,
      "emissiveFactor": [
        0,
        0,
        0
      ],
      "name": "Mat1",
      "normalTexture": {
        "index": 0,
        "scale": 1,
        "texCoord": 0
      },
      "pbrMetallicRoughness": {
        "baseColorFactor": [
          1,
          1,
          1,
          1
        ],
        "baseColorTexture": {
          "index": 2,
          "texCoord": 0
        },
        "metallicFactor": 1,
        "metallicRoughnessTexture": {
          "index": 1,
          "texCoord": 0
        },
        "roughnessFactor": 1
      }
    }
  ],
  "meshes": [
    {
      "primitives": [
        {
          "attributes": {
            "NORMAL": 1,
            "POSITION": 0,
            "TANGENT": 2,
            "TEXCOORD_0": 3
          },
          "indices": 4,
          "material": 0,
          "mode": 4
        }
      ]
    },
    {
      "primitives": [
        {
          "attributes": {
            "NORMAL": 6,
            "POSITION": 5,
            "TANGENT": 7,
            "TEXCOORD_0": 8
          },
          "indices": 9,
          "material": 0,
          "mode": 4
        }
      ]
    },
    {
      "primitives": [
        {
          "attributes": {
            "NORMAL": 11,
            "POSITION": 10,
            "TANGENT": 12,
            "TEXCOORD_0": 13
          },
          "indices": 14,
          "material": 0,
          "mode": 4
        }
      ]
    },
    {
      "primitives": [
        {
          "attributes": {
            "NORMAL": 16,
            "POSITION": 15,
            "TANGENT": 17,
            "TEXCOORD_0": 18
          },
          "indices": 19,
          "material": 0,
          "mode": 4
        }
      ]
    }
  ],
  "nodes": [
    {
      "children": [
        1
      ],
      "name": "RootNode (gltf orientation matrix)",
      "rotation": [
        -0.70710678118654746,
        -0,
        -0,
        0.70710678118654757
      ]
    },
    {
      "children": [
        2
      ],
      "name": "RootNode (model correction matrix)"
    },
    {
      "children": [
        3
      ],
      "matrix": [
        1,
        0,
        0,
        0,
        0,
        0,
        1,
        0,
        0,
        -1,
        0,
        0,
        0,
        0,
        0,
        1
      ],
      "name": "Safe.FBX"
    },
    {
      "children": [
        4
      ],
      "name": "RootNode"
    },
    {
      "children": [
        5,
        7
      ],
      "matrix": [
        1,
        0,
        0,
        0,
        0,
        2.2204460492503131e-16,
        -1,
        0,
        0,
        1,
        2.2204460492503131e-16,
        0,
        0,
        0,
        0,
        1
      ],
      "name": "Safe1"
    },
    {
      "children": [
        6
      ],
      "matrix": [
        1,
        0,
        -0,
        0,
        0,
        1,
        0,
        0,
        0,
        0,
        1,
        0,
        0,
        0,
        1.6707882881164551,
        1
      ],
      "name": ""
    },
    {
      "mesh": 0,
      "name": ""
    },
    {
      "children": [
        8,
        10,
        13
      ],
      "matrix": [
        0.86602533337822585,
        -0.50000012194711796,
        0,
        0,
        0.50000012194711796,
        0.86602533337822585,
        0,
        0,
        0,
        0,
        1,
        0,
        19.138393402099609,
        -23.572235107421875,
        28.527364730834961,
        1
      ],
      "name": "Safe1_Door"
    },
    {
      "children": [
        9
      ],
      "matrix": [
        1,
        0,
        -0,
        0,
        0,
        1,
        0,
        0,
        0,
        0,
        1,
        0,
        -19.476694107055664,
        23.572235107421875,
        -26.856576919555664,
        1
      ],
      "name": ""
    },
    {
      "mesh": 1,
      "name": ""
    },
    {
      "children": [
        11
      ],
      "matrix": [
        1,
        0,
        0,
        0,
        0,
        1,
        0,
        0,
        0,
        0,
        1,
        0,
        2.1120243072509766,
        -26.297906875610352,
        -4.4582729339599609,
        1
      ],
      "name": "Door_Handle"
    },
    {
      "children": [
        12
      ],
      "matrix": [
        1,
        0,
        -0,
        0,
        0,
        1,
        0,
        0,
        0,
        0,
        1,
        0,
        -21.588718414306641,
        49.870140075683594,
        -22.398303985595703,
        1
      ],
      "name": ""
    },
    {
      "mesh": 2,
      "name": ""
    },
    {
      "children": [
        14
      ],
      "matrix": [
        1,
        0,
        0,
        0,
        0,
        1,
        0,
        0,
        0,
        0,
        1,
        0,
        1.5662078857421875,
        -12.801885604858398,
        3.7625522613525391,
        1
      ],
      "name": "Door_Lock"
    },
    {
      "children": [
        15
      ],
      "matrix": [
        1,
        0,
        -0,
        0,
        0,
        1,
        0,
        0,
        0,
        0,
        1,
        0,
        -21.042903900146484,
        36.374122619628906,
        -30.619129180908203,
        1
      ],
      "name": ""
    },
    {
      "mesh": 3,
      "name": ""
    }
  ],
  "samplers": [
    {
      "magFilter": 9729,
      "minFilter": 9987,
      "wrapS": 10497,
      "wrapT": 10497
    }
  ],
  "scene": 0,
  "scenes": [
    {
      "name": "OSG_Scene",
      "nodes": [
        0
      ]
    }
  ],
  "textures": [
    {
      "sampler": 0,
      "source": 0
    },
    {
      "sampler": 0,
      "source": 1
    },
    {
      "sampler": 0,
      "source": 2
    }
  ]
}

