{
  "accessors": [
    {
      "bufferView": 1,
      "componentType": 5126,
      "count": 5600,
      "max": [
        0.71258115768432617,
        1.0514756441116333,
        0.96779590845108032
      ],
      "min": [
        -1.3838478326797485,
        -1.0067204236984253,
        -7.7284331321716309
      ],
      "type": "VEC3"
    },
    {
      "bufferView": 1,
      "byteOffset": 67200,
      "componentType": 5126,
      "count": 5600,
      "max": [
        0.99999368190765381,
        0.9999464750289917,
        0.99958670139312744
      ],
      "min": [
        -0.99984109401702881,
        -0.99983865022659302,
        -0.99999886751174927
      ],
      "type": "VEC3"
    },
    {
      "bufferView": 2,
      "componentType": 5126,
      "count": 5600,
      "max": [
        1,
        1,
        1,
        1
      ],
      "min": [
        0,
        0,
        0,
        1
      ],
      "type": "VEC4"
    },
    {
      "bufferView": 0,
      "componentType": 5125,
      "count": 33402,
      "max": [
        5599
      ],
      "min": [
        0
      ],
      "type": "SCALAR"
    },
    {
      "bufferView": 1,
      "byteOffset": 134400,
      "componentType": 5126,
      "count": 59731,
      "max": [
        0.76643401384353638,
        1.0120007991790771,
        -3.0889787673950195
      ],
      "min": [
        -0.76643401384353638,
        -0.23781776428222656,
        -6.1898384094238281
      ],
      "type": "VEC3"
    },
    {
      "bufferView": 1,
      "byteOffset": 851172,
      "componentType": 5126,
      "count": 59731,
      "max": [
        0.99999862909317017,
        0.99996650218963623,
        0.99999862909317017
      ],
      "min": [
        -0.99999862909317017,
        -0.9999733567237854,
        -0.9999956488609314
      ],
      "type": "VEC3"
    },
    {
      "bufferView": 2,
      "byteOffset": 89600,
      "componentType": 5126,
      "count": 59731,
      "max": [
        0.51764708757400513,
        0.51764708757400513,
        0.51764708757400513,
        1
      ],
      "min": [
        0.50980395078659058,
        0.50980395078659058,
        0.50980395078659058,
        1
      ],
      "type": "VEC4"
    },
    {
      "bufferView": 0,
      "byteOffset": 133608,
      "componentType": 5125,
      "count": 358320,
      "max": [
        59730
      ],
      "min": [
        0
      ],
      "type": "SCALAR"
    },
    {
      "bufferView": 1,
      "byteOffset": 1567944,
      "componentType": 5126,
      "count": 2219,
      "max": [
        0.92441105842590332,
        1.9674965143203735,
        3.8373432159423828
      ],
      "min": [
        -0.92441105842590332,
        -0.85886937379837036,
        -1.4421842098236084
      ],
      "type": "VEC3"
    },
    {
      "bufferView": 1,
      "byteOffset": 1594572,
      "componentType": 5126,
      "count": 2219,
      "max": [
        0.99949908256530762,
        0.99912261962890625,
        0.99931293725967407
      ],
      "min": [
        -0.99949908256530762,
        -0.9991079568862915,
        -0.99883592128753662
      ],
      "type": "VEC3"
    },
    {
      "bufferView": 2,
      "byteOffset": 1045296,
      "componentType": 5126,
      "count": 2219,
      "max": [
        1,
        1,
        1,
        1
      ],
      "min": [
        1,
        1,
        1,
        1
      ],
      "type": "VEC4"
    },
    {
      "bufferView": 0,
      "byteOffset": 1566888,
      "componentType": 5125,
      "count": 13074,
      "max": [
        2218
      ],
      "min": [
        0
      ],
      "type": "SCALAR"
    },
    {
      "bufferView": 1,
      "byteOffset": 1621200,
      "componentType": 5126,
      "count": 8581,
      "max": [
        1.6250914335250854,
        1.2004193067550659,
        -0.85698360204696655
      ],
      "min": [
        -1.6250846385955811,
        -0.64810532331466675,
        -5.1962542533874512
      ],
      "type": "VEC3"
    },
    {
      "bufferView": 1,
      "byteOffset": 1724172,
      "componentType": 5126,
      "count": 8581,
      "max": [
        0.99983847141265869,
        0.99997794628143311,
        0.9954255223274231
      ],
      "min": [
        -0.99995309114456177,
        -0.9999966025352478,
        -0.9999244213104248
      ],
      "type": "VEC3"
    },
    {
      "bufferView": 2,
      "byteOffset": 1080800,
      "componentType": 5126,
      "count": 8581,
      "max": [
        1,
        1,
        1,
        1
      ],
      "min": [
        1,
        1,
        1,
        1
      ],
      "type": "VEC4"
    },
    {
      "bufferView": 0,
      "byteOffset": 1619184,
      "componentType": 5125,
      "count": 50946,
      "max": [
        8580
      ],
      "min": [
        0
      ],
      "type": "SCALAR"
    },
    {
      "bufferView": 1,
      "byteOffset": 1827144,
      "componentType": 5126,
      "count": 27806,
      "max": [
        0.99764341115951538,
        0.99765747785568237,
        0.99955761432647705
      ],
      "min": [
        -0.99764341115951538,
        -0.97393137216567993,
        -1.0274051427841187
      ],
      "type": "VEC3"
    },
    {
      "bufferView": 1,
      "byteOffset": 2160816,
      "componentType": 5126,
      "count": 27806,
      "max": [
        0.99999135732650757,
        1,
        0.99996680021286011
      ],
      "min": [
        -0.99999135732650757,
        -0.99999994039535522,
        -0.9999995231628418
      ],
      "type": "VEC3"
    },
    {
      "bufferView": 2,
      "byteOffset": 1218096,
      "componentType": 5126,
      "count": 27806,
      "max": [
        1,
        1,
        1,
        1
      ],
      "min": [
        1,
        1,
        1,
        1
      ],
      "type": "VEC4"
    },
    {
      "bufferView": 0,
      "byteOffset": 1822968,
      "componentType": 5125,
      "count": 166776,
      "max": [
        27805
      ],
      "min": [
        0
      ],
      "type": "SCALAR"
    },
    {
      "bufferView": 1,
      "byteOffset": 2494488,
      "componentType": 5126,
      "count": 9627,
      "max": [
        1.3301838636398315,
        1.0524080991744995,
        0.99477720260620117
      ],
      "min": [
        -1.1816439628601074,
        -1.1172064542770386,
        -7.7284102439880371
      ],
      "type": "VEC3"
    },
    {
      "bufferView": 1,
      "byteOffset": 2610012,
      "componentType": 5126,
      "count": 9627,
      "max": [
        0.9999803900718689,
        0.99973064661026001,
        0.99991559982299805
      ],
      "min": [
        -0.99994277954101562,
        -0.99975711107254028,
        -0.99999791383743286
      ],
      "type": "VEC3"
    },
    {
      "bufferView": 2,
      "byteOffset": 1662992,
      "componentType": 5126,
      "count": 9627,
      "max": [
        1,
        1,
        1,
        1
      ],
      "min": [
        0,
        0,
        0,
        1
      ],
      "type": "VEC4"
    },
    {
      "bufferView": 0,
      "byteOffset": 2490072,
      "componentType": 5125,
      "count": 57438,
      "max": [
        9626
      ],
      "min": [
        0
      ],
      "type": "SCALAR"
    },
    {
      "bufferView": 1,
      "byteOffset": 2725536,
      "componentType": 5126,
      "count": 9895,
      "max": [
        0.96322959661483765,
        1.0389922857284546,
        0.71194589138031006
      ],
      "min": [
        -0.96322959661483765,
        -0.19945812225341797,
        -6.9623894691467285
      ],
      "type": "VEC3"
    },
    {
      "bufferView": 1,
      "byteOffset": 2844276,
      "componentType": 5126,
      "count": 9895,
      "max": [
        0.99999624490737915,
        0.99999821186065674,
        0.99864006042480469
      ],
      "min": [
        -0.99999624490737915,
        -0.99998867511749268,
        -0.99975681304931641
      ],
      "type": "VEC3"
    },
    {
      "bufferView": 2,
      "byteOffset": 1817024,
      "componentType": 5126,
      "count": 9895,
      "max": [
        1,
        1,
        1,
        1
      ],
      "min": [
        0.99607843160629272,
        0.99607843160629272,
        0.99607843160629272,
        1
      ],
      "type": "VEC4"
    },
    {
      "bufferView": 0,
      "byteOffset": 2719824,
      "componentType": 5125,
      "count": 57636,
      "max": [
        9894
      ],
      "min": [
        0
      ],
      "type": "SCALAR"
    },
    {
      "bufferView": 1,
      "byteOffset": 2963016,
      "componentType": 5126,
      "count": 8965,
      "max": [
        1.3647196292877197,
        0.82032907009124756,
        0.7854277491569519
      ],
      "min": [
        -1.3672941923141479,
        -0.43616566061973572,
        -4.0984277725219727
      ],
      "type": "VEC3"
    },
    {
      "bufferView": 1,
      "byteOffset": 3070596,
      "componentType": 5126,
      "count": 8965,
      "max": [
        0.99993449449539185,
        0.9999733567237854,
        0.9999738335609436
      ],
      "min": [
        -0.99980157613754272,
        -0.99999505281448364,
        -0.99988484382629395
      ],
      "type": "VEC3"
    },
    {
      "bufferView": 2,
      "byteOffset": 1975344,
      "componentType": 5126,
      "count": 8965,
      "max": [
        1,
        1,
        1,
        1
      ],
      "min": [
        1,
        1,
        1,
        1
      ],
      "type": "VEC4"
    },
    {
      "bufferView": 0,
      "byteOffset": 2950368,
      "componentType": 5125,
      "count": 53358,
      "max": [
        8964
      ],
      "min": [
        0
      ],
      "type": "SCALAR"
    }
  ],
  "asset": {
    "extras": {
      "author": "berko (https://sketchfab.com/berko)",
      "license": "CC-BY-4.0 (http://creativecommons.org/licenses/by/4.0/)",
      "source": "https://sketchfab.com/3d-models/wirt-13fc12a4d322469585445f44c1d74e66",
      "title": "Wirt"
    },
    "generator": "Sketchfab-8.55.0",
    "version": "2.0"
  },
  "bufferViews": [
    {
      "buffer": 0,
      "byteLength": 3163800,
      "byteOffset": 0,
      "name": "floatBufferViews",
      "target": 34963
    },
    {
      "buffer": 0,
      "byteLength": 3178176,
      "byteOffset": 3163800,
      "byteStride": 12,
      "name": "floatBufferViews",
      "target": 34962
    },
    {
      "buffer": 0,
      "byteLength": 2118784,
      "byteOffset": 6341976,
      "byteStride": 16,
      "name": "floatBufferViews",
      "target": 34962
    }
  ],
  "buffers": [
    {
      "byteLength": 8460760,
      "uri": "scene.bin"
    }
  ],
  "materials": [
    {
      "doubleSided": true,
      "name": "material_0",
      "pbrMetallicRoughness": {
        "baseColorFactor": [
          1,
          1,
          1,
          1
        ],
        "metallicFactor": 0,
        "roughnessFactor": 0.59999999999999998
      }
    }
  ],
  "meshes": [
    {
      "primitives": [
        {
          "attributes": {
            "COLOR_0": 2,
            "NORMAL": 1,
            "POSITION": 0
          },
          "indices": 3,
          "material": 0,
          "mode": 4
        }
      ]
    },
    {
      "primitives": [
        {
          "attributes": {
            "COLOR_0": 6,
            "NORMAL": 5,
            "POSITION": 4
          },
          "indices": 7,
          "material": 0,
          "mode": 4
        }
      ]
    },
    {
      "primitives": [
        {
          "attributes": {
            "COLOR_0": 10,
            "NORMAL": 9,
            "POSITION": 8
          },
          "indices": 11,
          "material": 0,
          "mode": 4
        }
      ]
    },
    {
      "primitives": [
        {
          "attributes": {
            "COLOR_0": 14,
            "NORMAL": 13,
            "POSITION": 12
          },
          "indices": 15,
          "material": 0,
          "mode": 4
        }
      ]
    },
    {
      "primitives": [
        {
          "attributes": {
            "COLOR_0": 18,
            "NORMAL": 17,
            "POSITION": 16
          },
          "indices": 19,
          "material": 0,
          "mode": 4
        }
      ]
    },
    {
      "primitives": [
        {
          "attributes": {
            "COLOR_0": 22,
            "NORMAL": 21,
            "POSITION": 20
          },
          "indices": 23,
          "material": 0,
          "mode": 4
        }
      ]
    },
    {
      "primitives": [
        {
          "attributes": {
            "COLOR_0": 26,
            "NORMAL": 25,
            "POSITION": 24
          },
          "indices": 27,
          "material": 0,
          "mode": 4
        }
      ]
    },
    {
      "primitives": [
        {
          "attributes": {
            "COLOR_0": 30,
            "NORMAL": 29,
            "POSITION": 28
          },
          "indices": 31,
          "material": 0,
          "mode": 4
        }
      ]
    }
  ],
  "nodes": [
    {
      "children": [
        1
      ],
      "name": "RootNode (gltf orientation matrix)",
      "rotation": [
        -0.70710678118654746,
        -0,
        -0,
        0.70710678118654757
      ]
    },
    {
      "children": [
        2
      ],
      "name": "RootNode (model correction matrix)"
    },
    {
      "children": [
        3,
        4,
        5,
        6,
        7,
        8,
        9,
        10
      ],
      "name": "wirt_1.OBJ.cleaner.materialmerger.gles"
    },
    {
      "mesh": 0,
      "name": ""
    },
    {
      "mesh": 1,
      "name": ""
    },
    {
      "mesh": 2,
      "name": ""
    },
    {
      "mesh": 3,
      "name": ""
    },
    {
      "mesh": 4,
      "name": ""
    },
    {
      "mesh": 5,
      "name": ""
    },
    {
      "mesh": 6,
      "name": ""
    },
    {
      "mesh": 7,
      "name": ""
    }
  ],
  "scene": 0,
  "scenes": [
    {
      "name": "OSG_Scene",
      "nodes": [
        0
      ]
    }
  ]
}

