{
  "accessors": [
    {
      "bufferView": 2,
      "componentType": 5126,
      "count": 48523,
      "max": [
        1.3594492673873901,
        0.44143450260162354,
        0.37431824207305908
      ],
      "min": [
        -1.2141413688659668,
        -0.84229624271392822,
        -0.36389151215553284
      ],
      "type": "VEC3"
    },
    {
      "bufferView": 2,
      "byteOffset": 582276,
      "componentType": 5126,
      "count": 48523,
      "max": [
        0.99999463558197021,
        0.9999384880065918,
        0.99999487400054932
      ],
      "min": [
        -0.99999535083770752,
        -0.99998998641967773,
        -0.99999475479125977
      ],
      "type": "VEC3"
    },
    {
      "bufferView": 3,
      "componentType": 5126,
      "count": 48523,
      "max": [
        0.9999992847442627,
        0.99995666742324829,
        0.99999791383743286,
        1
      ],
      "min": [
        -0.99993693828582764,
        -0.99999964237213135,
        -0.99999797344207764,
        -1
      ],
      "type": "VEC4"
    },
    {
      "bufferView": 1,
      "componentType": 5126,
      "count": 48523,
      "max": [
        7.2408928871154785,
        9.635890007019043
      ],
      "min": [
        -5.7488250732421875,
        -8.5184555053710938
      ],
      "type": "VEC2"
    },
    {
      "bufferView": 1,
      "byteOffset": 388184,
      "componentType": 5126,
      "count": 48523,
      "max": [
        7.2408928871154785,
        9.635890007019043
      ],
      "min": [
        -5.7488250732421875,
        -8.5184555053710938
      ],
      "type": "VEC2"
    },
    {
      "bufferView": 1,
      "byteOffset": 776368,
      "componentType": 5126,
      "count": 48523,
      "max": [
        7.2408928871154785,
        9.635890007019043
      ],
      "min": [
        -5.7488250732421875,
        -8.5184555053710938
      ],
      "type": "VEC2"
    },
    {
      "bufferView": 1,
      "byteOffset": 1164552,
      "componentType": 5126,
      "count": 48523,
      "max": [
        7.2408928871154785,
        9.635890007019043
      ],
      "min": [
        -5.7488250732421875,
        -8.5184555053710938
      ],
      "type": "VEC2"
    },
    {
      "bufferView": 1,
      "byteOffset": 1552736,
      "componentType": 5126,
      "count": 48523,
      "max": [
        7.2408928871154785,
        9.635890007019043
      ],
      "min": [
        -5.7488250732421875,
        -8.5184555053710938
      ],
      "type": "VEC2"
    },
    {
      "bufferView": 0,
      "componentType": 5125,
      "count": 257802,
      "max": [
        48522
      ],
      "min": [
        0
      ],
      "type": "SCALAR"
    },
    {
      "bufferView": 2,
      "byteOffset": 1164552,
      "componentType": 5126,
      "count": 1572,
      "max": [
        1.2735236883163452,
        0.19982688128948212,
        -0.15002182126045227
      ],
      "min": [
        -1.1375383138656616,
        -0.78722065687179565,
        -0.43338873982429504
      ],
      "type": "VEC3"
    },
    {
      "bufferView": 2,
      "byteOffset": 1183416,
      "componentType": 5126,
      "count": 1572,
      "max": [
        0.98175907135009766,
        0.99734389781951904,
        0.99756830930709839
      ],
      "min": [
        -0.9700247049331665,
        -0.92954838275909424,
        -0.75967735052108765
      ],
      "type": "VEC3"
    },
    {
      "bufferView": 3,
      "byteOffset": 776368,
      "componentType": 5126,
      "count": 1572,
      "max": [
        0.99779260158538818,
        0.99984711408615112,
        0.69703316688537598,
        1
      ],
      "min": [
        -0.99896478652954102,
        -0.99796199798583984,
        -0.84047776460647583,
        1
      ],
      "type": "VEC4"
    },
    {
      "bufferView": 1,
      "byteOffset": 1940920,
      "componentType": 5126,
      "count": 1572,
      "max": [
        0.6865580677986145,
        0.58109074831008911
      ],
      "min": [
        0.20613694190979004,
        0.22945255041122437
      ],
      "type": "VEC2"
    },
    {
      "bufferView": 1,
      "byteOffset": 1953496,
      "componentType": 5126,
      "count": 1572,
      "max": [
        0.6865580677986145,
        0.58109074831008911
      ],
      "min": [
        0.20613694190979004,
        0.22945255041122437
      ],
      "type": "VEC2"
    },
    {
      "bufferView": 1,
      "byteOffset": 1966072,
      "componentType": 5126,
      "count": 1572,
      "max": [
        0.6865580677986145,
        0.58109074831008911
      ],
      "min": [
        0.20613694190979004,
        0.22945255041122437
      ],
      "type": "VEC2"
    },
    {
      "bufferView": 1,
      "byteOffset": 1978648,
      "componentType": 5126,
      "count": 1572,
      "max": [
        0.6865580677986145,
        0.58109074831008911
      ],
      "min": [
        0.20613694190979004,
        0.22945255041122437
      ],
      "type": "VEC2"
    },
    {
      "bufferView": 0,
      "byteOffset": 1031208,
      "componentType": 5125,
      "count": 6840,
      "max": [
        1571
      ],
      "min": [
        0
      ],
      "type": "SCALAR"
    }
  ],
  "asset": {
    "extras": {
      "author": "bencik85 (https://sketchfab.com/bencik85)",
      "license": "CC-BY-4.0 (http://creativecommons.org/licenses/by/4.0/)",
      "source": "https://sketchfab.com/3d-models/sofa-1b2c89c1a6214f42a52574b5601998e7",
      "title": "Sofa"
    },
    "generator": "Sketchfab-8.55.0",
    "version": "2.0"
  },
  "bufferViews": [
    {
      "buffer": 0,
      "byteLength": 1058568,
      "byteOffset": 0,
      "name": "floatBufferViews",
      "target": 34963
    },
    {
      "buffer": 0,
      "byteLength": 1991224,
      "byteOffset": 1058568,
      "byteStride": 8,
      "name": "floatBufferViews",
      "target": 34962
    },
    {
      "buffer": 0,
      "byteLength": 1202280,
      "byteOffset": 3049792,
      "byteStride": 12,
      "name": "floatBufferViews",
      "target": 34962
    },
    {
      "buffer": 0,
      "byteLength": 801520,
      "byteOffset": 4252072,
      "byteStride": 16,
      "name": "floatBufferViews",
      "target": 34962
    }
  ],
  "buffers": [
    {
      "byteLength": 5053592,
      "uri": "scene.bin"
    }
  ],
  "extensionsRequired": [
    "KHR_materials_pbrSpecularGlossiness"
  ],
  "extensionsUsed": [
    "KHR_materials_pbrSpecularGlossiness"
  ],
  "images": [
    {
      "uri": "textures/Fabric_diffuse.jpeg"
    },
    {
      "uri": "textures/Fabric_specularGlossiness.png"
    },
    {
      "uri": "textures/Fabric_normal.jpeg"
    },
    {
      "uri": "textures/Fabric_occlusion.png"
    },
    {
      "uri": "textures/WOOD_diffuse.jpeg"
    },
    {
      "uri": "textures/WOOD_specularGlossiness.png"
    },
    {
      "uri": "textures/WOOD_normal.jpeg"
    }
  ],
  "materials": [
    {
      "doubleSided": true,
      "emissiveFactor": [
        0,
        0,
        0
      ],
      "extensions": {
        "KHR_materials_pbrSpecularGlossiness": {
          "diffuseFactor": [
            1,
            1,
            1,
            1
          ],
          "diffuseTexture": {
            "index": 0,
            "texCoord": 0
          },
          "glossinessFactor": 0.068588499999999997,
          "specularFactor": [
            0,
            0,
            0
          ],
          "specularGlossinessTexture": {
            "index": 1,
            "texCoord": 0
          }
        }
      },
      "name": "Fabric",
      "normalTexture": {
        "index": 2,
        "scale": 1,
        "texCoord": 0
      },
      "occlusionTexture": {
        "index": 3,
        "strength": 0.73572000000000004,
        "texCoord": 0
      }
    },
    {
      "doubleSided": true,
      "emissiveFactor": [
        0,
        0,
        0
      ],
      "extensions": {
        "KHR_materials_pbrSpecularGlossiness": {
          "diffuseFactor": [
            1,
            1,
            1,
            1
          ],
          "diffuseTexture": {
            "index": 4,
            "texCoord": 0
          },
          "glossinessFactor": 1,
          "specularFactor": [
            0,
            0,
            0
          ],
          "specularGlossinessTexture": {
            "index": 5,
            "texCoord": 0
          }
        }
      },
      "name": "WOOD",
      "normalTexture": {
        "index": 6,
        "scale": 1,
        "texCoord": 0
      }
    }
  ],
  "meshes": [
    {
      "primitives": [
        {
          "attributes": {
            "NORMAL": 1,
            "POSITION": 0,
            "TANGENT": 2,
            "TEXCOORD_0": 3,
            "TEXCOORD_1": 4,
            "TEXCOORD_2": 5,
            "TEXCOORD_3": 6,
            "TEXCOORD_4": 7
          },
          "indices": 8,
          "material": 0,
          "mode": 4
        }
      ]
    },
    {
      "primitives": [
        {
          "attributes": {
            "NORMAL": 10,
            "POSITION": 9,
            "TANGENT": 11,
            "TEXCOORD_0": 12,
            "TEXCOORD_1": 13,
            "TEXCOORD_2": 14,
            "TEXCOORD_3": 15
          },
          "indices": 16,
          "material": 1,
          "mode": 4
        }
      ]
    }
  ],
  "nodes": [
    {
      "children": [
        1
      ],
      "name": "RootNode (gltf orientation matrix)",
      "rotation": [
        -0.70710678118654746,
        -0,
        -0,
        0.70710678118654757
      ]
    },
    {
      "children": [
        2
      ],
      "matrix": [
        1,
        1.4104348231229717e-32,
        2.832769343193999e-16,
        0,
        3.1450057482662597e-32,
        1,
        -1.6081226229577292e-16,
        0,
        -2.832769343193999e-16,
        1.6081226229577292e-16,
        1,
        0,
        -0.7321287989616394,
        -7.8780231475830078,
        6.9849610328674316,
        1
      ],
      "name": "RootNode (model correction matrix)"
    },
    {
      "children": [
        3
      ],
      "name": "root"
    },
    {
      "children": [
        4
      ],
      "matrix": [
        1,
        0,
        0,
        0,
        0,
        2.2204460492503131e-16,
        1,
        0,
        0,
        -1,
        2.2204460492503131e-16,
        0,
        0,
        0,
        0,
        1
      ],
      "name": "GLTF_SceneRootNode"
    },
    {
      "children": [
        5
      ],
      "matrix": [
        1,
        0,
        -0,
        0,
        -0,
        0,
        -1,
        0,
        0,
        1,
        0,
        0,
        0,
        0,
        0,
        1
      ],
      "name": "RootNode (gltf orientation matrix)_0"
    },
    {
      "children": [
        6
      ],
      "name": "RootNode (model correction matrix)_1"
    },
    {
      "children": [
        7
      ],
      "matrix": [
        1,
        0,
        0,
        0,
        0,
        0,
        1,
        0,
        0,
        -1,
        0,
        0,
        0,
        0,
        0,
        1
      ],
      "name": "22e56e97b900409fb065c397622a91e8.fbx_2"
    },
    {
      "children": [
        8
      ],
      "name": "RootNode_3"
    },
    {
      "children": [
        9,
        11
      ],
      "matrix": [
        131.77259826660156,
        3.6581203937530518,
        -6.2226400375366211,
        0,
        -6.7302083969116211,
        21.143255233764648,
        -130.09147644042969,
        0,
        -2.609100341796875,
        130.21406555175781,
        21.298158645629883,
        0,
        -19.538507461547852,
        43.068893432617188,
        -176.72291564941406,
        1
      ],
      "name": "Cube.001_4"
    },
    {
      "children": [
        10
      ],
      "name": "Cube.001_Fabric_0_5"
    },
    {
      "mesh": 0,
      "name": ""
    },
    {
      "children": [
        12
      ],
      "name": "Cube.001_WOOD_0_6"
    },
    {
      "mesh": 1,
      "name": ""
    }
  ],
  "samplers": [
    {
      "magFilter": 9729,
      "minFilter": 9987,
      "wrapS": 10497,
      "wrapT": 10497
    }
  ],
  "scene": 0,
  "scenes": [
    {
      "name": "OSG_Scene",
      "nodes": [
        0
      ]
    }
  ],
  "textures": [
    {
      "sampler": 0,
      "source": 0
    },
    {
      "sampler": 0,
      "source": 1
    },
    {
      "sampler": 0,
      "source": 2
    },
    {
      "sampler": 0,
      "source": 3
    },
    {
      "sampler": 0,
      "source": 4
    },
    {
      "sampler": 0,
      "source": 5
    },
    {
      "sampler": 0,
      "source": 6
    }
  ]
}

