{
  "accessors": [
    {
      "bufferView": 2,
      "componentType": 5126,
      "count": 2040,
      "max": [
        3.4429473876953125,
        24.759225845336914,
        3.7224917411804199
      ],
      "min": [
        -5.7748031616210938,
        20.822360992431641,
        -5.5804958343505859
      ],
      "type": "VEC3"
    },
    {
      "bufferView": 2,
      "byteOffset": 24480,
      "componentType": 5126,
      "count": 2040,
      "max": [
        0.93215298652648926,
        0.99806743860244751,
        0.90271991491317749
      ],
      "min": [
        -0.89843422174453735,
        -0.46853584051132202,
        -0.93992316722869873
      ],
      "type": "VEC3"
    },
    {
      "bufferView": 3,
      "componentType": 5126,
      "count": 2040,
      "max": [
        0.99978804588317871,
        0.93134331703186035,
        0.99987161159515381,
        1
      ],
      "min": [
        -0.99821001291275024,
        -0.99624794721603394,
        -0.99999904632568359,
        -1
      ],
      "type": "VEC4"
    },
    {
      "bufferView": 1,
      "componentType": 5126,
      "count": 2040,
      "max": [
        0.00094383955001831055,
        0.9990234375
      ],
      "min": [
        -0.99708503484725952,
        0.0009765625
      ],
      "type": "VEC2"
    },
    {
      "bufferView": 0,
      "componentType": 5125,
      "count": 6360,
      "max": [
        2039
      ],
      "min": [
        0
      ],
      "type": "SCALAR"
    },
    {
      "bufferView": 2,
      "byteOffset": 48960,
      "componentType": 5126,
      "count": 828,
      "max": [
        1.608673095703125,
        21.596652984619141,
        4.5404233932495117
      ],
      "min": [
        -3.188140869140625,
        -0.5458221435546875,
        -8.7194185256958008
      ],
      "type": "VEC3"
    },
    {
      "bufferView": 2,
      "byteOffset": 58896,
      "componentType": 5126,
      "count": 828,
      "max": [
        0.99983280897140503,
        0.99982684850692749,
        0.99845999479293823
      ],
      "min": [
        -0.99769806861877441,
        -0.75426572561264038,
        -0.99739670753479004
      ],
      "type": "VEC3"
    },
    {
      "bufferView": 3,
      "byteOffset": 32640,
      "componentType": 5126,
      "count": 828,
      "max": [
        0.99840438365936279,
        0.99944090843200684,
        0.99794155359268188,
        1
      ],
      "min": [
        -0.99852216243743896,
        -0.99878209829330444,
        -0.99908554553985596,
        -1
      ],
      "type": "VEC4"
    },
    {
      "bufferView": 1,
      "byteOffset": 16320,
      "componentType": 5126,
      "count": 828,
      "max": [
        0.47965717315673828,
        0.97914338111877441
      ],
      "min": [
        0.014607042074203491,
        0.022033780813217163
      ],
      "type": "VEC2"
    },
    {
      "bufferView": 0,
      "byteOffset": 25440,
      "componentType": 5125,
      "count": 4164,
      "max": [
        827
      ],
      "min": [
        0
      ],
      "type": "SCALAR"
    }
  ],
  "asset": {
    "extras": {
      "author": "smcafee-3d (https://sketchfab.com/smcafee)",
      "license": "CC-BY-4.0 (http://creativecommons.org/licenses/by/4.0/)",
      "source": "https://sketchfab.com/3d-models/red-rose-22d655ade2d24ababeb509f69b4a9cc7",
      "title": "Red Rose"
    },
    "generator": "Sketchfab-8.72.3",
    "version": "2.0"
  },
  "bufferViews": [
    {
      "buffer": 0,
      "byteLength": 42096,
      "byteOffset": 0,
      "name": "floatBufferViews",
      "target": 34963
    },
    {
      "buffer": 0,
      "byteLength": 22944,
      "byteOffset": 42096,
      "byteStride": 8,
      "name": "floatBufferViews",
      "target": 34962
    },
    {
      "buffer": 0,
      "byteLength": 68832,
      "byteOffset": 65040,
      "byteStride": 12,
      "name": "floatBufferViews",
      "target": 34962
    },
    {
      "buffer": 0,
      "byteLength": 45888,
      "byteOffset": 133872,
      "byteStride": 16,
      "name": "floatBufferViews",
      "target": 34962
    }
  ],
  "buffers": [
    {
      "byteLength": 179760,
      "uri": "scene.bin"
    }
  ],
  "images": [
    {
      "uri": "textures/Petals_baseColor.png"
    },
    {
      "uri": "textures/Petals_metallicRoughness.png"
    },
    {
      "uri": "textures/Petals_normal.png"
    },
    {
      "uri": "textures/Leaves_baseColor.png"
    },
    {
      "uri": "textures/Leaves_metallicRoughness.png"
    },
    {
      "uri": "textures/Leaves_normal.png"
    }
  ],
  "materials": [
    {
      "doubleSided": true,
      "name": "Petals",
      "normalTexture": {
        "index": 2,
        "scale": 1,
        "texCoord": 0
      },
      "pbrMetallicRoughness": {
        "baseColorFactor": [
          1,
          1,
          1,
          1
        ],
        "baseColorTexture": {
          "index": 0,
          "texCoord": 0
        },
        "metallicFactor": 0,
        "metallicRoughnessTexture": {
          "index": 1,
          "texCoord": 0
        },
        "roughnessFactor": 1
      }
    },
    {
      "doubleSided": true,
      "name": "Leaves",
      "normalTexture": {
        "index": 5,
        "scale": 1,
        "texCoord": 0
      },
      "pbrMetallicRoughness": {
        "baseColorFactor": [
          1,
          1,
          1,
          1
        ],
        "baseColorTexture": {
          "index": 3,
          "texCoord": 0
        },
        "metallicFactor": 0,
        "metallicRoughnessTexture": {
          "index": 4,
          "texCoord": 0
        },
        "roughnessFactor": 1
      }
    }
  ],
  "meshes": [
    {
      "name": "Head_Petals_0",
      "primitives": [
        {
          "attributes": {
            "NORMAL": 1,
            "POSITION": 0,
            "TANGENT": 2,
            "TEXCOORD_0": 3
          },
          "indices": 4,
          "material": 0,
          "mode": 4
        }
      ]
    },
    {
      "name": "Stem_Leaves_0",
      "primitives": [
        {
          "attributes": {
            "NORMAL": 6,
            "POSITION": 5,
            "TANGENT": 7,
            "TEXCOORD_0": 8
          },
          "indices": 9,
          "material": 1,
          "mode": 4
        }
      ]
    }
  ],
  "nodes": [
    {
      "children": [
        1
      ],
      "name": "RootNode (gltf orientation matrix)",
      "rotation": [
        -0.70710678118654746,
        -0,
        -0,
        0.70710678118654757
      ]
    },
    {
      "children": [
        2
      ],
      "name": "RootNode (model correction matrix)"
    },
    {
      "children": [
        3
      ],
      "matrix": [
        1,
        0,
        0,
        0,
        0,
        0,
        1,
        0,
        0,
        -1,
        0,
        0,
        0,
        0,
        0,
        1
      ],
      "name": "Rose.fbx"
    },
    {
      "children": [
        4
      ],
      "name": "RootNode"
    },
    {
      "children": [
        5,
        7
      ],
      "name": "Rose"
    },
    {
      "children": [
        6
      ],
      "name": "Head"
    },
    {
      "mesh": 0,
      "name": "Head_Petals_0"
    },
    {
      "children": [
        8
      ],
      "name": "Stem"
    },
    {
      "mesh": 1,
      "name": "Stem_Leaves_0"
    }
  ],
  "samplers": [
    {
      "magFilter": 9729,
      "minFilter": 9987,
      "wrapS": 10497,
      "wrapT": 10497
    }
  ],
  "scene": 0,
  "scenes": [
    {
      "name": "OSG_Scene",
      "nodes": [
        0
      ]
    }
  ],
  "textures": [
    {
      "sampler": 0,
      "source": 0
    },
    {
      "sampler": 0,
      "source": 1
    },
    {
      "sampler": 0,
      "source": 2
    },
    {
      "sampler": 0,
      "source": 3
    },
    {
      "sampler": 0,
      "source": 4
    },
    {
      "sampler": 0,
      "source": 5
    }
  ]
}

